<?xml version="1.0" encoding="utf-8"?>
<!-- Generator: Adobe Illustrator 25.4.1, SVG Export Plug-In . SVG Version: 6.00 Build 0)  -->
<svg version="1.1" xmlns="http://www.w3.org/2000/svg" xmlns:xlink="http://www.w3.org/1999/xlink" x="0px" y="0px"
	 viewBox="0 0 1920 1080" style="enable-background:new 0 0 1920 1080;" xml:space="preserve">
<style type="text/css">
	.st0{fill:#FFFFFF;}
	.st1{font-family:'Montserrat-Bold';}
	.st2{font-size:17px;}
	.st3{fill:#344E41;}
	.st4{fill:#DB6348;}
</style>
<g id="Boton">
	<g id="SECCION_1">
		<path id="RECTANGULO_NOMBRE_INSECTO" d="M1122.6,759.2h-306c-14.6,0-26.5-11.9-26.5-26.5l0,0c0-14.6,11.9-26.5,26.5-26.5h306
			c14.6,0,26.5,11.9,26.5,26.5l0,0C1149.1,747.3,1137.2,759.2,1122.6,759.2z"/>
	</g>
</g>
<g id="Texto_boton">
	<text id="NOMBRE_INSECTO" transform="matrix(1 0 0 1 890.031 740.4199)" class="st0 st1 st2">Desinsectaci贸n</text>
</g>
<g id="Icono_sanitizaci贸n">
	
		<rect id="MOSCA_COLOR_00000181790452875301928900000000886302635131043491_" x="1392.4" y="405" class="st3" width="214.6" height="214.6"/>
	<g>
		<path class="st0" d="M1560.8,497.8c4.2,1.2,7.9,2.3,11.7,3.3c6.2,1.6,8.6,4.4,9.1,10.9c0.9,11.9-1.6,23.2-6,34.1
			c-2.1,5.3-4.8,10.4-7.5,15.4c-1.7,3.1-4.2,5.8-7.9,6.1c-2,0.2-4-0.5-6-1c-3.5-0.8-6.9-1.8-10.4-2.7c-0.5-0.1-1-0.2-1.5-0.1
			c-4.2,1-7.1-0.5-8.8-4.4c-0.5-1.1-0.8-2.3-1.2-3.7c-2.3,2.5-4.3,4.9-6.6,7.2c-2.2,2.2-4.6,4.3-7.2,6.1c-1.1,0.8-2.9,1-4.3,1
			c-5.1,0.1-10.2,0.3-15.3,0c-1.8-0.1-3.8-1-5.3-2.2c-4.6-3.7-9-7.6-13.4-11.4c-0.5,1.1-1,2.7-1.7,4.1c-1.8,3.2-4.6,4.3-8.1,3.3
			c-0.6-0.2-1.2-0.2-1.8,0c-4.5,1.2-9,2.6-13.6,3.8c-3,0.8-5.5-0.6-7.5-2.6c-1.7-1.7-3.1-3.7-4.2-5.7c-5.6-10.4-9.9-21.2-11.5-33
			c-0.8-5.7-1.6-11.5-0.3-17.3c0.8-3.8,3.1-6.3,6.8-7.4c4.6-1.4,9.2-2.7,13.4-3.9c-0.9-1.9-2.5-3.8-2.7-5.9
			c-0.5-4.1-0.5-8.3-0.2-12.4c0.2-4.5,3-7.5,6.6-9.8c5.2-3.2,10.9-4.9,16.8-5.8c8.8-1.3,17.6-2.1,26.4-3.2c1-0.1,2-0.4,2.9-0.8
			c3-1.4,6.1-1.4,9.1-0.2c0.8,0.3,1.8,0.5,2.7,0.6c14.1,0.4,28,2.2,41.3,7.3c2,0.8,3.9,1.8,5.6,3.1c3.1,2.2,5,5,4.6,9.1
			c-0.2,2.6,0.1,5.2,0.3,7.7C1565.1,491.7,1564.5,495.2,1560.8,497.8z M1526,535.9c0.8-0.3,1.8-0.7,2.7-1c3.2-1,5.4-2.8,5.4-6.4
			c0-1,0.4-2.1,0.7-3.1c2.4-9,5.5-17.7,11.4-25.1c0.3-0.4,0.2-1.4-0.1-1.8c-1.7-2-3.5-4-5.5-5.7c-2.7-2.3-5.9-4-8.4-6.4
			c-4.4-4.5-8.5-9.4-12.7-14.2c-2.5-2.9-4.9-6-7.7-8.6c-3.6-3.4-8.1-3.5-11.8-0.2c-2.5,2.2-4.4,5.1-6.5,7.8
			c-2.5,3.1-4.6,6.5-7.5,9.2c-3.9,3.6-8.4,6.5-12.5,9.8c-3,2.4-5.8,4.9-7.4,8.4c-0.3,0.6-0.3,1.6,0,2c6.8,8.5,10.1,18.5,12.2,29
			c0.6,3.3,2.2,4.8,5,5.7c0.8,0.2,1.7,0.5,2.6,0.8c0.3-0.9,0.6-1.6,0.9-2.4c2.4-6.6,5-13.2,9.3-18.9c1-1.3,2.5-2.6,4.1-3
			c2.6-0.7,5.3-1.1,8-0.9c4.2,0.3,7.6,2,9.4,6.4C1520.1,523.3,1523.1,529.4,1526,535.9z M1471.3,534.3c-1.6-8.8-3.9-17.1-7.9-24.9
			c-1.6-3.1-3.8-5.9-5.9-8.7c-0.7-0.8-2.3-1.6-3.3-1.4c-4.3,0.8-8.6,2-12.5,3c1.9,2.7,3.9,5,5.5,7.6c3.9,6.5,6.2,13.6,8.4,20.8
			c0.2,0.7,0.9,1.6,1.6,1.8C1461.7,533.9,1466.3,534.7,1471.3,534.3z M1541,534.3c5.3,0.2,10.1-0.4,14.7-2.2c0.6-0.2,1-1.1,1.3-1.7
			c1.3-3.7,2.4-7.4,3.8-11c2.5-6.1,5.1-12.2,10.4-16.8c-3.5-1-6.9-1.8-10.3-2.9c-3.4-1.1-5.7,0-7.8,2.8
			C1546.3,511.9,1543.5,522.8,1541,534.3z M1525.6,552.7c1.6-4.7,1.4-9-0.8-13.2c-0.5-1-0.8-2.2-1.2-3.4c-2.5-6.4-5.1-12.7-7.6-19
			c-1.3-3.4-4.1-4.8-7.4-4.9c-2.6-0.1-5.3,0.1-7.8,0.8c-1.4,0.4-3,1.6-3.7,2.9c-4.8,8.4-8.8,17.3-10.9,26.8
			c-0.3,1.3-0.5,2.7-0.2,3.9c0.7,3.2,1.7,6.3,2.6,9.4c-1.3-9.2,5.3-14.5,12.5-15.8c2.9-0.6,6-0.9,9-0.6c6.9,0.7,12.4,3.6,14.9,10.6
			C1525.1,550.8,1525.3,551.6,1525.6,552.7z M1559.9,483.5c3.2-2.5,3.8-6.1,0.9-8.8c-2.1-2-4.6-3.7-7.3-4.9
			c-11-4.6-22.7-6.3-34.6-6.9c-1.3-0.1-2.7,0-4.1,0c2.8,3.5,5.4,6.7,8,9.9c0.4,0.5,1.2,0.9,1.8,1c5.8,0.9,11.6,1.6,17.3,2.7
			C1548.3,477.7,1554.4,479.7,1559.9,483.5z M1453.3,483.6c1.1-0.7,2-1.6,3.1-2.1c4-1.7,7.9-3.6,12.1-4.6c6-1.4,12.1-2.1,18.2-3.2
			c1.2-0.2,2.7-0.4,3.3-1.2c2.5-3.2,4.7-6.7,6.9-10c-3.1,0.4-6.3,0.6-9.5,1.1c-7.6,1.3-15.2,2.5-22.8,4.2c-4.6,1-8.7,3.2-12,6.8
			C1449.7,477.9,1449.9,481.1,1453.3,483.6z M1540.9,535.6c-0.1,0.7-0.4,1.8-0.4,2.8c-0.2,6-0.6,11.9-0.5,17.9c0,1.5,1,3.9,2.2,4.4
			c3.9,1.8,8.2,3,12.6,4.6c-3.1-11.2-1.4-21.6,1.3-31.7C1551,534.3,1546,534.9,1540.9,535.6z M1457.6,565.3c3.9-1.3,7.4-2.5,11-3.5
			c2.8-0.8,4-2.9,3.9-5.5c-0.1-6.5-0.5-13.1-0.8-19.6c0-0.4-0.8-1-1.3-1.1c-4.6-0.5-9.2-1-13.8-1.4
			C1459.1,544,1460.9,554.3,1457.6,565.3z M1557,497.2c-1.9-0.8-3.8-0.4-5.7,0.7c-2.7,1.6-4.5,4.1-6.1,6.8
			c-8.5,14.5-11.8,30.2-11.3,46.9c0.1,2.9,0.5,5.8,2.2,8.3c1,1.5,2.3,2.7,4.6,2.8c-2.7-2.7-3.1-5.9-3.1-9.2
			c-0.2-11.5,1.5-22.7,5.1-33.6c2.3-7,5.1-13.7,10.1-19.2C1553.9,499.3,1555.6,498.3,1557,497.2z M1455.3,497.3c1.4,1,3,1.8,4,3
			c1.9,2.2,3.8,4.6,5.1,7.2c7.8,14.8,10.7,30.8,10.3,47.4c-0.1,2.8-0.7,5.5-2.7,7.8c1.1-0.4,2.2-0.8,3-1.5c2.1-1.9,3-4.5,3-7.1
			c0.1-5.9,0.2-11.9-0.4-17.7c-1.3-11.7-4.9-22.7-11.2-32.7c-1.6-2.5-3.4-4.8-6.3-6.1C1458.6,496.8,1456.9,496.5,1455.3,497.3z
			 M1554.7,554.4c0.4,2.2,0.7,5.4,1.5,8.6c0.9,3.5,3.4,4.5,6.2,2.1c1.9-1.6,3.8-3.6,5-5.8c4.6-8.1,8.1-16.6,10.3-25.7
			c1.8-7.2,2.8-14.6,2-22.1c-0.4-3.2-1.6-5.8-4.4-7.5c-1.1-0.7-2.2-0.9-3,0.1c-1.9,2.2-3.9,4.3-5.4,6.7c-4.7,7.8-7.2,16.5-9.6,25.1
			C1555.7,541.6,1554.8,547.4,1554.7,554.4z M1432.3,517.8c0.6,4.2,1.1,9.1,2.1,13.8c2.1,10.2,6.1,19.7,11.3,28.7
			c1.2,2.1,3.2,3.9,5.2,5.3c2.4,1.7,4.4,0.7,5.2-2.1c0.6-2.2,1.1-4.5,1.3-6.8c0.7-7.5-0.5-14.8-2.6-22c-2.5-8.8-5.1-17.7-10.2-25.4
			c-1.2-1.9-2.8-3.5-4.4-5.1c-0.9-0.9-1.9-0.9-3.1-0.1c-2.1,1.4-3.5,3.1-3.9,5.6C1432.8,512,1432.6,514.5,1432.3,517.8z
			 M1558.2,484.6c-10.3-5.7-21-7.7-32.2-8c1.5,2,2.9,3.9,4.7,5.5c2.4,2.2,5.1,3.9,7.4,6.1c2.3,2.1,4.6,2.3,7.5,1.4
			C1549.8,488.3,1554,487.1,1558.2,484.6z M1454.9,484.8c2.9,2.2,11.1,5.3,14.8,5.5c0.4,0,0.8-0.2,1.1-0.5c3.8-2.9,7.6-5.8,11.3-8.9
			c1.9-1.5,3.6-3.2,5.6-5.1C1478.3,475.2,1459.4,480.4,1454.9,484.8z M1506.4,565.4c5,0,9.1-1.1,12.7-3.5c2.2-1.4,3.8-3.2,4.5-5.8
			c1.2-4.4-0.8-9.1-5.2-12.2c-6.3-4.4-18.4-4-24.4,0.9c-4.9,4-5.4,10.8-1.1,15.4C1496.5,564.1,1501.2,565.4,1506.4,565.4z
			 M1479.8,534.4c0.3,5.7,0.6,11.6,0.9,17.5c0,0.3,0.1,0.7,0.2,0.9c2.2,2.5,4.5,5,6.7,7.6c-0.5-3.3-1.4-6.3-2.4-9.4
			c-1-3.2-1.8-6.4-0.6-9.8c0.5-1.4,0.8-2.9,1.1-4.1C1483.5,536,1481.5,535.1,1479.8,534.4z M1526.7,558.4c2.3-2.8,6-4.8,5.1-9.3
			c-0.2-1.1,0-2.4,0.1-3.6c0.3-3.8,0.7-7.6,1-11.4c-2.3,0.9-4.6,1.8-6.9,2.8c0.6,1.5,1.1,3.1,1.7,4.6c1.1,2.5,1.3,4.9,0.7,7.6
			C1527.8,552.1,1527.3,555.2,1526.7,558.4z M1450.2,484.3c0.1,2.8,0,6,0.6,9.1c0.2,1,2,2.3,3.2,2.4c1.7,0.2,3.4-0.7,5.4-1.2
			c0.7-1.2,1.6-2.6,2.4-3.9C1457.8,488.6,1454,486.4,1450.2,484.3z M1562.6,484.5c-3.8,2-7.5,4-11.1,5.9c0.5,1.1,1,2.4,1.7,3.6
			c0.2,0.4,0.7,0.8,1.1,0.9c1.8,0.4,3.5,0.7,5.6,1.1C1563.5,493.1,1562.5,488.5,1562.6,484.5z M1489.1,557.8c0.5,1.3,0.9,2.8,1.6,4
			c1.9,3.1,4.5,5.7,8.4,6c4.6,0.3,9.3,0.3,13.9,0.2c1.7,0,3.6-0.4,5-1.2c1.9-1.1,3.4-2.8,4.9-4.4c0.6-0.6,0.8-1.6,1.2-2.4
			C1515.8,569,1495.7,570.5,1489.1,557.8z M1544,492.4c1.6,1.9,3.1,3.7,4.5,5.5c1.3-0.9,2.6-1.7,4-2.7c-0.7-1.6-1.5-3.2-2.2-4.7
			C1548.1,491.2,1546.1,491.8,1544,492.4z M1460,495.3c1.7,1.2,3.1,2.1,4.3,3c1.3-2.1,2.6-4.1,3.9-6.2c-1.8-0.4-3.7-1.5-5.1-0.9
			C1461.7,491.6,1461,493.8,1460,495.3z"/>
		<path class="st0" d="M1507.3,503.3c-2.6,0-4.7-1-5.6-3.4c-1.6-4.1-2.9-8.3-4.3-12.5c-0.6-1.8-1.1-3.7-1.7-5.6
			c-0.5-1.8-0.3-3.5,0.9-4.8c2.2-2.5,4.4-5,6.9-7.2c1.7-1.6,4.6-1.6,6.5,0.1c2.4,2.2,4.7,4.5,6.8,7.1c1.6,2,1.1,4.4,0.6,6.7
			c-1.2,5.1-2.5,10.1-3.8,15.2C1512.8,502.1,1510.9,503.3,1507.3,503.3z M1507.8,501.7c1.5-0.1,3.5-0.4,4-2.5
			c1.6-6.1,3-12.2,4.4-18.3c0.2-0.9,0-2.2-0.6-2.8c-1.9-2.3-3.9-4.5-6-6.5c-1.7-1.6-3.7-1.6-5.3-0.1c-2.2,2-4.2,4.3-6.1,6.6
			c-0.6,0.8-0.9,2.4-0.6,3.3c1.8,6,3.7,11.9,5.7,17.8C1503.9,501,1505.4,501.8,1507.8,501.7z"/>
		<path class="st0" d="M1518.9,507.1c0.1-0.8,0.3-2,0.6-3.1c1.2-4.9,2.5-9.7,3.8-14.6c0.2-0.7,0.4-1.4,0.7-2.1
			c1.5-3.4,3.4-3.9,6.2-1.5c2.4,2.1,4.8,4,7.1,6.2c2.7,2.5,2.6,4,0.1,6.7c-4.1,4.6-9,8.3-14.2,11.4
			C1520.6,511.7,1518.9,510.7,1518.9,507.1z M1520.4,507.3c0.2,0.3,0.3,1.1,0.7,1.3c0.5,0.2,1.4,0.2,1.8-0.2
			c4.7-3.9,9.4-7.9,14.1-11.9c0.8-0.7,0.8-1.6-0.2-2.4c-2.7-2.3-5.3-4.6-8-6.9c-1.6-1.4-2.3-1.2-3.2,0.7c-0.3,0.7-0.6,1.5-0.8,2.3
			c-1.2,4.2-2.3,8.5-3.5,12.7C1521,504.3,1520.7,505.7,1520.4,507.3z"/>
		<path class="st0" d="M1494.4,507.4c0,3.2-1.8,4.5-4.3,2.9c-5.7-3.6-10.9-7.9-15.4-12.9c-1.3-1.5-1-3.1,0.2-4.2
			c3.2-2.9,6.5-5.7,9.9-8.5c1.2-0.9,2.5-0.5,3.3,0.7c0.8,1.3,1.6,2.7,2,4.2c1.5,5.5,2.8,11,4.1,16.5
			C1494.4,506.6,1494.4,507.2,1494.4,507.4z M1492.9,507.2c0-0.3-0.1-0.6-0.2-1c-1.5-5.7-3-11.4-4.5-17.1c-0.2-0.7-0.5-1.3-0.9-1.9
			c-0.5-0.9-1.3-1.2-2.2-0.4c-2.8,2.4-5.6,4.7-8.3,7.1c-1.3,1.1-1.1,2.2,0.1,3.3c1.1,1.1,2.2,2.3,3.4,3.3c3.4,2.7,6.9,5.5,10.4,8
			C1492,509.5,1492.8,508.8,1492.9,507.2z"/>
		<path class="st0" d="M1519.5,537.4c-9.2-2.8-18-2.7-27.1,0.8c1.4-3.8,2.7-7.2,4-10.6c1.1-2.9,2.2-5.8,3.4-8.6
			c0.3-0.8,1.3-1.7,2.1-1.8c2.8-0.3,5.6-0.3,8.4-0.2c1.5,0,2.4,0.9,3,2.5c1.7,5.2,3.8,10.4,5.7,15.6
			C1519.1,535.8,1519.2,536.5,1519.5,537.4z M1517.8,535.8c-2.1-5.7-4-11-6-16.2c-0.2-0.5-1-1.1-1.5-1.1c-2.6-0.1-5.2-0.1-7.9-0.1
			c-1.1,0-1.6,0.6-2,1.6c-1.6,4.5-3.3,9-4.9,13.4c-0.3,0.7-0.5,1.5-0.9,2.4C1502.4,533.5,1509.9,533.3,1517.8,535.8z"/>
		<path class="st0" d="M1578.4,517.4c-0.3,12.5-3.6,24.2-9.2,35.3c-1,2-2.1,4-3.3,5.9c-1.2,1.8-2.6,3.6-5.1,3.1
			c-2.6-0.5-3.3-2.7-3.8-4.9c-0.9-4-0.4-8,0.3-12c1.8-10.9,5.1-21.3,9.9-31.2c0.6-1.1,1.2-2.2,2-3.2c1.7-2.2,3.6-2.9,5.5-2.3
			c2.1,0.7,3.5,2.8,3.7,5.2C1578.5,514.7,1578.4,516.1,1578.4,517.4z M1558.2,552.6c0.2,1.2,0.4,3.4,1.1,5.4
			c0.8,2.4,2.7,2.6,4.3,0.7c0.7-0.9,1.3-1.9,1.9-2.8c6.8-11.7,10.6-24.3,11.3-37.8c0.1-2.1-0.3-4.3-1-6.3c-0.7-2.2-2.8-2.7-4.4-1
			c-1.1,1.1-2,2.4-2.7,3.8c-1.8,4.1-3.7,8.2-5.1,12.4C1560.7,535,1558.8,543.2,1558.2,552.6z"/>
		<path class="st0" d="M1456,552.1c-0.3,2-0.5,4-0.9,5.9c-0.4,1.9-1.6,3.5-3.7,3.9c-2,0.3-3.5-0.9-4.4-2.4c-2.2-3.9-4.5-7.9-6.3-12
			c-4.6-10.5-7.2-21.5-6.8-33c0-0.7,0.1-1.5,0.3-2.2c0.5-2,1.6-3.4,3.6-4c2.1-0.6,3.8,0.3,5,1.9c1.3,1.8,2.4,3.7,3.3,5.7
			c5,10.8,8.4,22.1,9.6,34c0.1,0.8,0.1,1.5,0.1,2.3C1455.9,552,1456,552.1,1456,552.1z M1454.3,551.7c-0.1,0-0.2,0-0.3,0
			c0-0.9,0.1-1.8,0-2.6c-1.6-12.4-5-24.2-10.8-35.4c-0.5-1-1.3-2-2.2-2.8c-1.7-1.5-3.7-1.2-4.4,0.9c-0.7,1.9-1.1,3.9-1,5.9
			c0.4,8.8,2,17.4,5.4,25.5c2.1,5.1,4.9,10.1,7.5,15c0.4,0.8,1.9,1.8,2.6,1.7c0.9-0.2,1.9-1.4,2.2-2.4
			C1453.9,555.6,1454,553.7,1454.3,551.7z"/>
		<path class="st0" d="M1507.2,564.1c-3.7-0.1-7.7-0.5-11.2-2.8c-6-3.7-6.1-10.6,0.1-14c7.8-4.3,15.7-3.9,23.3,0.7
			c5.1,3.2,5.2,8.6,0.4,12.4c-2.7,2.1-5.8,2.9-9.1,3.4C1509.7,564,1508.6,564,1507.2,564.1z M1506.1,563c5.2-0.2,8.7-0.7,11.8-2.6
			c5.5-3.3,5.5-8.5,0-11.6c-7.2-4-14.4-3.9-21.6,0c-4.4,2.4-4.9,7.4-1,10.6C1498.9,562.3,1503.2,563,1506.1,563z"/>
		<path class="st0" d="M1506,562.4c-3,0-6.4-1.1-9.4-3.1c-3.6-2.3-3.9-6.3-0.8-9.2c2.6-2.4,5.9-3.1,9.2-3.4
			c4.5-0.5,8.8,0.3,12.6,2.8c3.9,2.5,4.2,6.3,0.7,9.4C1515.6,561.3,1512.5,562.2,1506,562.4z M1506.9,561.2
			c4.1-0.2,8.2-0.5,11.3-3.9c2-2.2,1.9-4.5-0.4-6.4c-5.1-4.2-15.4-4.4-20.7-0.6c-3.2,2.3-3.1,6,0.3,8
			C1500.4,560.1,1503.5,561.4,1506.9,561.2z"/>
	</g>
</g>
<g id="Icono_Desinfecci贸n">
	<rect id="MOSCA_COLOR" x="1167.4" y="405" class="st3" width="214.6" height="214.6"/>
	<path class="st0" d="M1240.3,497c12.2-5.1,23.2-9.9,34.3-14.2c1.9-0.7,4.7,0.5,7,1.3c23,8.6,46,17.3,69,26.1
		c12.6,4.8,15.7,10,12.1,19.4c-3.4,9.2-9,10.5-21.8,5.7c-31.4-11.8-62.9-23.6-94.3-35.4C1244.8,499.4,1243.3,498.5,1240.3,497z"/>
	<path class="st0" d="M1230.3,464.6c14.1,5.4,27.3,10.3,42.6,16.2c-12.9,5.4-23.5,10.9-34.8,14.1c-4.7,1.3-10.9-2.3-17.5-3.9
		C1224,481.7,1226.9,473.8,1230.3,464.6z"/>
	<path class="st0" d="M1205.4,530.3c4.1,8.8,7.3,15.6,10.5,22.6c2.7,5.9,2.5,12.4-3.3,15.5c-3.8,2-10.3,2.1-14.2,0.2
		c-5.9-3-5.9-9.6-3.4-15.4C1197.9,546.1,1201.3,539.2,1205.4,530.3z"/>
	<path class="st0" d="M1228.5,460c-4.1,10.7-7.9,21.1-12.2,31.3c-0.5,1.2-3.8,2.4-5.1,1.8c-1.3-0.5-2.7-3.6-2.2-4.9
		c3.5-10.1,7.4-20.2,11.5-30c0.5-1.3,3.4-2.2,5.1-2.1C1226.7,456.1,1227.5,458.6,1228.5,460z"/>
</g>
<g id="Icono_desinsectaci贸n">
	<g>
		<g>
			<rect id="HORMIGA_COLOR" x="781.2" y="321.7" class="st3" width="365" height="365"/>
		</g>
	</g>
	<g id="BARATA">
		<path class="st0" d="M868.9,445.7c0.8,0.4,1,1.3,1.4,1.9c3.8,7.3,9.3,13,16.5,16.8c1.8,0.9,2.3,1.9,2.1,3.9
			c-0.7,7.2-1.7,14.4-4.5,21.2c-1.4,3.3-3.2,6.4-5.8,8.9c-5,4.6-11.8,4.7-16.9,0.3c-2.8-2.4-4.8-5.6-6.1-9.1c-3-7.5-4-15.3-4.6-23.3
			c-0.1-1.1,0.3-1.8,1.3-2.3c1.9-1.2,3.8-2.5,5.6-4c4-3.3,7.3-7.3,9.7-11.9C867.9,447.2,868.1,446.2,868.9,445.7z M869.9,469.1
			L869.9,469.1c4.2,0,8.4,0,12.6,0c0.7,0,1.4,0,2-0.1c0.9-0.1,1.1-0.8,1.1-1.5s-0.3-1.2-1.1-1.3c-0.6,0-1.3,0-1.9,0
			c-8.3,0-16.6,0-25,0c-0.6,0-1.3,0-1.9,0.1c-0.9,0-1.2,0.6-1.2,1.4c0,0.9,0.4,1.4,1.2,1.4c0.6,0,1.3,0,1.9,0
			C861.8,469.1,865.8,469.1,869.9,469.1z M870,477.8L870,477.8c-4.2,0-8.4,0-12.6,0c-0.7,0-1.5,0.1-1.5,1.1c0,0.8,0.2,1.6,1.3,1.8
			c0.5,0.1,1.1,0.1,1.6,0.1c1.8,0,3.5,0,5.3,0c5.6,0,11,0,16.6,0c0.7,0,1.4,0,2.1,0c1.1-0.1,1.5-0.9,1.5-1.9s-0.8-1-1.6-1
			C878.4,477.8,874.2,477.8,870,477.8z M870.1,489.3L870.1,489.3c-0.6,0-1.3,0-1.9,0c-2.4,0-4.9,0-7.3,0c-0.5,0-1.1-0.1-1.4,0.5
			c-0.2,0.6,0.2,1,0.5,1.5c0.6,1,1.7,0.9,2.6,0.9c5,0,9.9,0,14.9,0c0.4,0,0.7,0,1.1,0c1.2-0.1,1.8-1,1.8-1.9c0-1.2-1.2-0.9-1.9-0.9
			C875.8,489.2,872.9,489.3,870.1,489.3z"/>
		<path class="st0" d="M859.2,405.4c-0.4-0.4-0.8-0.9-1.1-1.3c-0.1-0.4-0.3-0.6-0.7-0.6c-0.2-0.2-0.4-0.3-0.7-0.5
			c-0.7-0.7-1.5-1.1-2.4-1c-1-0.3-2-0.3-3,0.1c-0.8-0.1-1.5,0.2-2,0.8c-0.9,0.3-1.7,0.9-2.2,1.5h-0.2l-0.1,0.2
			c-1.2,0.8-2.1,1.7-2.9,2.9c-0.9,0.6-1.4,1.5-1.8,2.4c-0.3,0.5-0.6,0.9-0.9,1.4c-0.4,0.3-0.7,0.7-0.7,1.3c-0.3,0.6-0.7,1.2-1,1.8
			c-0.2,0.1-0.2,0.2-0.1,0.3c-2.6,4.9-4.3,10.1-5.8,15.5c-0.2,0.7-0.4,1.4-0.6,2c-0.4,0.9-1,1.2-1.9,1c-0.8-0.2-1.2-0.8-1.1-1.6
			c0-0.4,0.1-0.9,0.2-1.3c1.9-7,4.2-13.9,7.9-20.3c1.9-3.3,4.2-6.2,7.3-8.6c6.2-4.6,13-3.4,17.2,3c1.8,2.7,2.8,5.8,3.6,9
			c0.2,0.8,0.3,1.6,0.5,2.3c0.5,2,0.5,2.1,2.5,2c1.2,0,2.2,0,3.4,0.3c0.9,0.2,1.4-0.1,1.6-1c0.1-0.7,0.3-1.4,0.4-2
			c0.6-3.3,1.6-6.4,3.1-9.5c3.7-7,10.8-8.9,17.5-4.7c2.8,1.9,5.1,4.3,6.9,7c3.9,5.9,6.2,12.5,8.1,19.3c0.3,1,0.5,2,0.8,3
			c0.4,1.7,0,2.6-1,2.8c-1.4,0.2-1.8-0.8-2-1.9c-0.4-1.4-0.8-2.7-1.1-4.1c-1.5-5.3-3.3-10.3-6-15.1c-1.7-2.9-3.6-5.6-6.2-7.7
			c-1.2-1-2.4-1.7-3.9-2c-3.2-1-6-0.3-8.4,2.2c-1.6,1.8-2.4,3.8-3.2,5.9c-0.9,2.4-1.4,5.1-1.8,7.7c-0.2,1.4,0.1,2.2,1.2,3.2
			c4.6,4.3,6.8,9.8,8.5,15.8c0.5,1.6,0.1,1.9-1.5,1.8c-4.2-0.5-8.4-0.9-12.6-1.1c-5.7-0.2-11.4,0.1-17.1,0.7c-3,0.3-3.2,0.1-2.2-2.8
			c1.9-5.9,4.5-11.6,9.6-15.6c0.5-0.4,0.9-0.9,0.7-1.6c-0.9-4.5-1.7-9-4.5-12.8v-0.2L859.2,405.4z"/>
		<path class="st0" d="M861.8,440.8c1.3,0,2.6,0,3.9,0c1.4,0,1.6,0.3,1.1,1.7c-1.3,3.3-2.9,6.3-5.1,9.2
			c-7.3,9.6-17.3,14.3-28.9,16.3c-3.8,0.6-7.6,0.9-11.5,0.2c-5.7-1.1-7-4.2-4-9c1.8-2.7,4.1-4.8,6.6-6.6c6.8-4.9,14.5-7.6,22.6-9.6
			C851.6,441.8,856.7,441.3,861.8,440.8z"/>
		<path class="st0" d="M876,440.7c7,0.8,14,1.2,20.8,3.1c7.3,2.1,14,5.5,19.8,10.4c1.9,1.6,3.5,3.4,4.7,5.7c1.9,3.9,0.6,6.9-3.6,8
			c-1,0.3-2,0.5-3.1,0.4c-11.9-0.2-22.8-3.2-32.3-10.7c-4.9-3.9-8.4-9-10.6-14.7c-0.8-2-0.6-2.2,1.6-2.2
			C874,440.7,875,440.7,876,440.7z"/>
		<path class="st0" d="M842.1,409.9c0.4-1,0.9-1.9,1.8-2.4C843.8,408.6,843.4,409.6,842.1,409.9z"/>
		<path class="st0" d="M854.3,402c1-0.1,1.9,0.3,2.4,1C855.9,403,854.9,402.9,854.3,402z"/>
		<path class="st0" d="M849.4,402.9c0.6-0.5,1.3-0.9,2-0.8C850.9,403,850.2,403.1,849.4,402.9z"/>
		<path class="st0" d="M840.6,412.5c0-0.6,0.3-1,0.7-1.3C841.4,411.8,841.2,412.3,840.6,412.5z"/>
		<path class="st0" d="M857.4,403.5c0.4,0,0.6,0.3,0.7,0.6C857.7,404,857.5,403.8,857.4,403.5z"/>
		<path class="st0" d="M846.7,404.5l0.1-0.2h0.2C847,404.5,846.9,404.5,846.7,404.5z"/>
		<path class="st0" d="M839.5,414.6c-0.1-0.1,0-0.3,0.1-0.3C839.6,414.4,839.6,414.5,839.5,414.6z"/>
		<path class="st0" d="M859.2,405.4l0.2,0.1v0.2C859.3,405.6,859.2,405.5,859.2,405.4z"/>
	</g>
	<g id="ESCARABAJO">
		<path class="st0" d="M994.5,555.3c0-12.1,0-24,0-36.2c0-3.4,0.9-6.2,3-8.7c3.8-4.9,7.7-10.2,11.3-15.3c1.5-2.1,3.2-3.2,6-3
			c5.5,0.2,11.1,0,16.8,0.2c4.3,0,4.5,0.4,4.5,4.3c0,20.4,0.4,40.8-0.2,61.5c-0.6,15.7-8.7,27.4-22.6,35.1c-4,2.1-8.5,3.8-13.2,4.5
			c-4.7,0.6-5.3,0.2-5.3-4.7c0-7.9,0-16,0-23.8C994.5,564.5,994.5,560,994.5,555.3L994.5,555.3z"/>
		<path class="st0" d="M992,555.5c0,11.9,0,23.8,0,35.7c0,0.9,0,1.5,0,2.3c-0.2,4-0.6,4.5-4.5,4c-6-0.6-11.5-2.6-16.4-5.7
			c-13-8.3-20.2-20-20.4-35.5c-0.2-19.8-0.2-39.8-0.2-59.6c0-4,0.4-4.3,4.5-4.5c6,0,11.7,0,17.7,0c1.9,0,3.4,0.6,4.7,2.3
			c4.5,6.2,8.9,12.1,13.4,18.1c1.5,1.9,1.5,4.3,1.5,6.4C992,531.3,992,543.4,992,555.5L992,555.5z"/>
		<path class="st0" d="M993,489.8c-12.1,0-24,0-36.2,0c-1.3,0-2.3,0-3.6,0c-2.1,0-3-1.1-2.8-3.2c0.6-13.2,4.7-25.1,14.9-34.3
			c4-3.6,9.1-6,14.3-7.2c8.5-2.1,17.2-2.1,26-0.2c11.3,2.6,19.4,9.4,24.5,19.6c3.2,6.4,5.1,13.2,5.3,20.4c0.2,4.7,0,4.9-4.5,4.9
			c-10.2,0-20.4,0-30.6,0C997.9,489.8,995.6,489.8,993,489.8L993,489.8z"/>
		<path class="st0" d="M1074.9,622.1c-2.8-7.9-8.5-12.8-14.5-17.7c-1.9-1.7-3.6-3.6-5.5-5.1c-1.1-0.9-2.1-1.7-1.3-3.4
			c0.2-0.2,0.2-0.6,0-0.9c-3.2-3-1.7-6.8-1.9-10.2c-0.2-6-0.2-11.7-0.2-17.7c0-2.3-0.6-3.4-3.4-3.6c-3.6-0.4-6.2-3.4-8.9-5.7
			c-0.2-0.2-0.4-0.9-0.4-1.3c0-2.8-0.4-5.7,0.4-8.7c3,0.4,4.7,2.6,6.6,4c3.2,2.3,7.4,3.8,7.2,8.9c0,0.9,0.9,1.3,1.5,1.5
			c2.6,0.6,3,2.8,2.8,4.9c-0.2,8.3,0.9,16.8-0.6,25.1c-0.2,1.1,0.4,1.5,1.3,2.1c6.2,3.8,10.9,9.6,16.4,14c0.9,0.6,1.5,1.7,1.5,2.8
			C1076,614.9,1076.2,618.5,1074.9,622.1z"/>
		<path class="st0" d="M1006.2,493.8c-0.2,0.4-0.2,0.9-0.6,1.1c-3.6,4.9-7.2,9.8-10.6,14.5c-1.3,1.7-2.3,1.5-3.6-0.2
			c-3.4-4.7-7-9.4-10.4-14.3c-1.5-2.1-1.1-3,1.7-3c7,0,14.3,0,21.3,0C1004.9,492.3,1006,492.3,1006.2,493.8z"/>
		<path class="st0" d="M926.4,445.7c-4.7-0.2-4.7-0.2-8.1-4c-2.3-2.8-4.9-5.3-7.4-7.9c-2.1-2.1-2.6-2.1-4.3,0.6
			c-0.4,0.9-0.9,1.9-1.7,2.6c-2.1-4.5-1.1-11.1,1.9-13.4c1.1-0.9,2.1-1.1,3.2,0c5.3,6,10.6,11.9,16.2,17.7
			C927.7,443,926,444.3,926.4,445.7L926.4,445.7z"/>
		<path class="st0" d="M1082.2,437.9c-0.9-0.4-1.1-0.4-1.1-0.4c-3.6-6.2-3.6-6.2-8.3-1.1c-1.9,2.1-3.8,4.3-5.7,6.4
			c-0.6,0.9-1.5,1.5-2.3,2.1c-1.9,1.5-3.6,0.4-4.9-0.6c-1.5-1.3,0-2.6,0.9-3.4c4.9-5.5,9.8-11.1,14.7-16.4c1.9-2.1,2.8-1.9,4.7,0
			c1.5,1.3,1.9,3,1.9,4.9C1082.4,431.9,1082.2,434.7,1082.2,437.9z"/>
		<path class="st0" d="M926.2,445.7c2.1,0.6,3.4,1.7,3.8,4.3c1.3,8.3,2.8,16.6,4.3,24.9c0.2,1.1,0.2,2.1,0.2,3.2
			c0,1.5-0.9,2.3-2.1,2.6c-1.5,0.2-2.8-0.4-3.2-1.7c-0.2-0.6-0.4-1.5-0.4-2.1c-1.3-8.1-2.6-16-4.3-24
			C923.7,449.6,925.4,447.9,926.2,445.7C926.4,445.7,926.2,445.7,926.2,445.7z"/>
		<path class="st0" d="M1069.4,538.9c-0.2,1.9-1.1,3.4-2.3,4.5c-0.9,0.9-1.7-0.2-2.1-0.9c-1.9-2.6-3.6-5.1-5.3-7.9
			c-2.1-3.2-4.3-6.6-6.4-9.6c-0.6-0.9-1.1-1.7-1.5-2.8c-0.6-1.5-0.2-3,1.3-3.8c1.5-0.9,3-0.4,3.8,1.1c2.3,3.4,4.7,7,7,10.4
			c1.5,2.3,3.2,4.7,4.7,7.2C1068.8,537.9,1069.2,538.5,1069.4,538.9z"/>
		<path class="st0" d="M1062,452.1c-1.5,7.9-3,16.6-4.5,25.3c-0.4,1.9-1.3,3.2-3.4,2.8s-2.6-1.9-2.3-3.8c0.4-3,1.1-6,1.5-8.9
			c1.1-5.7,1.9-11.5,3-17.2c0.2-1.5-0.2-3.6,2.3-3.6C1061.1,447,1062.2,448.7,1062,452.1z"/>
		<path class="st0" d="M895.4,555.3c-0.4-4.7-0.2-8.9-0.2-13c0-1.5,1.1-2.1,2.3-2.1c4.9,0,9.8-0.2,14.9,0c1.7,0,3.8,2.8,3.6,4.5
			c0,1.3-1.1,1.3-1.9,1.3c-3.2,0-6.4,0.2-9.4,0s-5.1,0.6-6.2,3.8C898.1,551.5,897.5,553.4,895.4,555.3z"/>
		<path class="st0" d="M920.1,543.8c-1.9,0-3.4-3.8-2.6-5.7c0.6-1.3,1.5-2.6,2.3-3.8c2.8-4.3,5.5-8.5,8.5-12.8
			c0.6-0.9,1.3-1.7,1.9-2.6c0.9-1.1,2.1-1.3,3.2-0.6c1.5,0.9,1.7,2.1,1.1,3.4c-0.2,0.6-0.6,1.5-1.1,2.1c-3.8,6-7.9,12.1-11.7,18.1
			C921.1,543,920.7,543.6,920.1,543.8z"/>
		<path class="st0" d="M934.5,578.7c0,3.8,0,7.4,0,11.3c0,1.3,0.2,3-1.5,3.2c-1.5,0.4-3.6-1.3-4-2.8c-0.2-0.6-0.2-1.5-0.2-2.3
			c0-6.8,0-13.8,0.2-20.6c0-0.9,0-1.5,0.2-2.3c0.4-1.5,1.5-2.1,3-2.1c1.3,0,2.3,0.9,2.3,2.1c0.2,2.3,0.2,4.5,0.2,6.8
			C934.7,574,934.7,576.4,934.5,578.7C934.7,578.7,934.7,578.7,934.5,578.7z"/>
		<path class="st0" d="M911.1,620c-0.6-5.1-1.5-10,3.8-14c3.8-2.8,7.2-6.4,10.6-9.8c1.5-1.5,3-1.9,4.9-1.1c2.3,0.9,2.8,2.1,0.9,3.8
			c-3.2,3-6.2,6.2-9.8,8.7c-3.6,2.8-6.4,6-8.1,10c-0.4,0.9-0.9,1.5-1.3,2.3C911.8,620.2,911.3,620.2,911.1,620z"/>
		<path class="st0" d="M1090.5,554.2c-1.7-1.5-2.3-3.4-2.8-4.9c-0.9-2.3-2.6-3.4-5.1-3.4c-3.4,0.2-6.8,0-10.4,0
			c-1.9,0-2.3-0.9-1.5-2.6c0.9-1.9,1.9-3.4,4.3-3.2c4.3,0,8.3,0,12.6,0c1.5,0,3.2,0.2,3.4,2.3C1090.9,546.2,1091.3,550,1090.5,554.2
			z"/>
		<path class="st0" d="M984.5,434.5c0.2,3.2-2.6,6-6,6.2c-3,0.2-5.7-2.6-6-5.5c-0.2-3.2,2.6-6,6-6.2
			C981.8,428.9,984.3,431.3,984.5,434.5z"/>
		<path class="st0" d="M1007.9,428.9c3.2,0,5.7,2.6,5.5,5.7c0,3.4-2.6,6-6.2,5.7c-3,0-5.7-2.8-5.7-5.7
			C1001.8,431.5,1004.7,428.9,1007.9,428.9z"/>
		<path class="st0" d="M1044.3,512.1c0.2,0,1.5,0,2.6,0.2c2.3,0.4,3.6,1.7,3.6,3.8c0.2,2.3-1.1,4.3-3.4,4.7
			c-2.1,0.4-4.3,0.2-6.4,0.2c-1.7,0-2.3-1.1-2.3-2.6c0-0.4,0-0.9,0-1.3C1038.1,512.1,1038.3,511.9,1044.3,512.1z"/>
		<path class="st0" d="M947.9,552.5c-0.2,1.9,0.4,4.3-1.3,5.7c-2.3,2.1-4.7,4.3-7.7,5.1c-1.9,0.6-3.6,0-4.5-1.9
			c-1.1-1.9-0.6-4.9,1.3-6c3.2-1.9,6-4.5,9.1-6.4c1.9-1.3,2.8-0.9,3,1.3C947.9,551.1,947.9,551.9,947.9,552.5z"/>
		<path class="st0" d="M942.4,479.4c0.2,0,0.6,0,0.9,0c5.3,0,5.5,0.4,4.7,5.7c-0.2,1.9-1.1,3-3,3c-2.1,0-4.3,0.2-6.2,0
			c-3-0.2-4.5-2.1-4.3-4.7c0.2-2.3,1.5-3.6,4.5-3.8C940.1,479.4,941.3,479.4,942.4,479.4L942.4,479.4z"/>
		<path class="st0" d="M1044.5,479.4c1.1,0,2.1,0,3.2,0c2.3,0.2,4,1.7,4.3,3.8c0.2,2.1-0.9,3.6-3.2,4.3c-2.8,0.9-5.5,0.4-8.5,0.4
			c-1.1,0-1.5-0.9-1.7-1.7c-0.2-0.6-0.2-1.5-0.4-2.1c-0.4-4.3-0.2-4.5,4.3-4.7C1043,479.4,1043.9,479.4,1044.5,479.4L1044.5,479.4z"
			/>
		<path class="st0" d="M941.3,520.8c-0.2,0-1.3,0-2.3-0.2c-1.9-0.4-3-1.7-3.2-3.8c0-2.1,0.9-3.4,2.8-4c2.1-0.6,4.3-0.4,6.2-0.2
			c2.8,0.2,2.8,2.3,2.8,4.3c0,3.2-0.4,3.8-2.8,4.3C943.9,520.8,943,520.8,941.3,520.8z"/>
	</g>
</g>
<g id="Icono_Ratas">
	<g>
		<g>
			<path class="st4" d="M676.7,444.9c1.9,0,1.9-3,0-3C674.7,441.9,674.7,444.9,676.7,444.9L676.7,444.9z"/>
		</g>
	</g>
	<rect id="BARATA_COLOR" x="542.4" y="405" class="st3" width="214.6" height="214.6"/>
	<path class="st0" d="M695,563.6c-7.1,0-13.9,0-20.7,0c-27.4,0-54.8,0.1-82.2,0.1c-12.7,0-23.8-8.1-28.6-20.6
		c-4.5-11.6-1.4-25.1,7.7-33.5c10.4-9.7,27.3-8.9,36.7,1.7c9.7,11,3.6,29.2-10.9,33.7c-1.7,0.5-4.2-0.1-5.7-1.1
		c-2.8-1.9-2-5.4,1-6.7c0.4-0.2,0.9-0.2,1.3-0.3c6.8-2,9.9-5.7,9.7-11.6c-0.1-5.9-4.6-11.2-10.6-12.7c-9.8-2.5-19.4,4-21.4,14.4
		c-2.8,14.1,7,26.9,21.3,27.9c4.3,0.3,8.6,0,12.8,0c1.7-5.5,3.1-11.1,5.2-16.3c8.4-20.9,23.5-35,44.3-43.1c2.9-1.1,5.2-1.3,7.7,1.3
		c1.9,1.9,4.6,3.1,6.9,4.5c0.2-0.3,0.5-0.5,0.7-0.8c-1-1.1-2-2.2-2.9-3.4c-3.7-4.3-6.6-9-7.3-14.7c-0.8-6.6,1.7-11.9,7.1-15.5
		c6.1-4.1,12.6-4,18.6-0.2c3.3,2.1,6,2.2,9.5,0.8c10.5-4.3,21.6-5.1,32.8-3.9c3.7,0.4,7.9,1.1,9.4,5.1c1.6,4.4-0.9,7.9-4,10.9
		c-13.4,13-24,27.8-30.8,45.3c-4.3,11.2-7.1,22.7-7.4,34.8C695.3,560.6,695.1,561.7,695,563.6z M709.6,471.3c-0.5,0-0.9,0-1.4-0.1
		c-0.8,1.2-2.3,2.5-2.3,3.7c0,1.1,1.7,2.2,2.6,3.2c1.1-1,2.9-1.9,3.1-3.1C711.9,474,710.4,472.5,709.6,471.3z"/>
</g>
</svg>
