<?xml version="1.0" encoding="utf-8"?>
<!-- Generator: Adobe Illustrator 25.4.1, SVG Export Plug-In . SVG Version: 6.00 Build 0)  -->
<svg version="1.1" id="Layer_1" xmlns="http://www.w3.org/2000/svg" xmlns:xlink="http://www.w3.org/1999/xlink" x="0px" y="0px"
	 viewBox="0 0 318.5 297.6" style="enable-background:new 0 0 318.5 297.6;" xml:space="preserve">
<style type="text/css">
	.st0{fill:#344E41;}
	.st1{fill:#FFFFFF;}
	.st2{font-family:'Montserrat-SemiBold';}
	.st3{font-size:278.0876px;}
	.st4{enable-background:new    ;}
	.st5{fill:#A3B18A;}
</style>
<rect x="-0.5" y="0.6" class="st0" width="294" height="294"/>
<text transform="matrix(1 0 0 1 -10.4933 209.453)" class="st1 st2 st3">B</text>
<g class="st4">
	<path class="st1" d="M15.7,252.8v-25h10.4c2.7,0,4.8,0.5,6.3,1.6c1.5,1.1,2.3,2.7,2.3,4.7c0,1.4-0.3,2.5-1,3.4
		c-0.6,0.9-1.5,1.6-2.7,2.1c-1.1,0.5-2.4,0.7-3.8,0.7l0.6-0.7c1.7,0,3.2,0.2,4.4,0.7c1.2,0.5,2.1,1.2,2.8,2.2s0.9,2.1,0.9,3.6
		c0,2.1-0.8,3.7-2.3,4.9s-3.8,1.7-6.9,1.7h-11V252.8z M17.5,251.2h9.4c2.4,0,4.2-0.4,5.5-1.2c1.3-0.8,1.9-2.1,1.9-3.9
		c0-1.8-0.6-3.1-1.9-3.9c-1.3-0.8-3.1-1.2-5.5-1.2h-9.5v-1.6h8.7c2.2,0,3.8-0.4,5-1.2c1.2-0.8,1.8-2.1,1.8-3.7
		c0-1.6-0.6-2.9-1.8-3.7c-1.2-0.8-2.9-1.2-5-1.2h-8.5v21.6H17.5z"/>
	<path class="st1" d="M42.5,252.8v-25h9c2.1,0,3.9,0.3,5.4,1s2.7,1.6,3.5,2.9c0.8,1.2,1.2,2.8,1.2,4.5s-0.4,3.2-1.2,4.5
		c-0.8,1.2-2,2.2-3.5,2.9s-3.3,1-5.4,1h-8l0.8-0.9v9h-1.8V252.8z M44.4,243.8l-0.8-0.9h8c2.7,0,4.7-0.6,6.1-1.8s2.1-2.9,2.1-5
		c0-2.2-0.7-3.8-2.1-5s-3.4-1.8-6.1-1.8h-8l0.8-0.9C44.4,228.4,44.4,243.8,44.4,243.8z M59.9,252.8l-6.5-9.1h2.1l6.5,9.1H59.9z"/>
	<path class="st1" d="M70,251.1h15.4v1.6H68.2v-25h16.7v1.6H70V251.1z M69.8,239.3h13.5v1.6H69.8V239.3z"/>
	<path class="st1" d="M87.9,252.8l11.5-25h1.8l11.5,25h-2l-10.8-23.9h0.8l-10.8,23.9H87.9z M92.1,245.7l0.6-1.5h14.9l0.6,1.5H92.1z"
		/>
	<path class="st1" d="M117.2,252.8v-25h1.8v25H117.2z M118.8,246.4l-0.1-2.3l15.9-16.4h2.2l-11.1,11.5l-1,1.1L118.8,246.4z
		 M135.4,252.8L124.2,240l1.2-1.3l12.2,14.2L135.4,252.8L135.4,252.8z"/>
	<path class="st1" d="M142.3,252.8v-25h1.8v25H142.3z"/>
	<path class="st1" d="M152.8,252.8v-25h1.5l17.8,22.7h-0.8v-22.7h1.8v25h-1.5L153.8,230h0.8v22.7h-1.8V252.8z"/>
	<path class="st1" d="M192.5,252.9c-1.9,0-3.6-0.3-5.2-0.9s-3-1.5-4.2-2.7c-1.2-1.1-2.1-2.5-2.7-4s-1-3.2-1-5s0.3-3.5,1-5
		s1.6-2.9,2.7-4c1.2-1.1,2.6-2,4.2-2.7s3.3-0.9,5.2-0.9c1.8,0,3.5,0.3,5,0.9c1.5,0.6,2.9,1.4,4,2.6l-1.1,1.2
		c-1.1-1.1-2.3-1.8-3.6-2.3s-2.7-0.7-4.2-0.7c-1.6,0-3.1,0.3-4.5,0.8s-2.6,1.3-3.6,2.3s-1.8,2.2-2.4,3.5s-0.8,2.8-0.8,4.3
		c0,1.6,0.3,3,0.8,4.4s1.3,2.5,2.4,3.5c1,1,2.2,1.8,3.6,2.3s2.9,0.8,4.5,0.8c1.5,0,2.9-0.2,4.2-0.7s2.5-1.2,3.6-2.2l1,1.4
		c-1.1,1.1-2.5,1.9-4,2.4C195.8,252.7,194.2,252.9,192.5,252.9z M199.6,249.5v-9.2h1.7v9.3L199.6,249.5z"/>
</g>
<g class="st4">
	<path class="st1" d="M15.6,283.3v-25h11.7c3,0,5.3,0.6,6.8,1.8c1.6,1.2,2.4,2.8,2.4,4.7c0,1.3-0.3,2.5-0.9,3.4
		c-0.6,0.9-1.4,1.7-2.5,2.2c-1,0.5-2.2,0.8-3.4,0.8l0.6-1.3c1.4,0,2.7,0.3,3.8,0.8s2,1.3,2.7,2.2c0.7,1,1,2.2,1,3.6
		c0,2.1-0.8,3.8-2.5,5c-1.6,1.2-4.1,1.8-7.3,1.8H15.6z M20.3,279.7h7.5c1.7,0,3.1-0.3,4-0.9s1.4-1.5,1.4-2.7s-0.5-2.1-1.4-2.7
		s-2.3-0.9-4-0.9H20v-3.6h6.8c1.6,0,2.9-0.3,3.7-0.9c0.9-0.6,1.3-1.4,1.3-2.6s-0.4-2-1.3-2.6s-2.1-0.8-3.7-0.8h-6.6v17.7H20.3z"/>
	<path class="st1" d="M53.5,283.7c-3.4,0-6.1-1-8-2.9s-2.9-4.7-2.9-8.3v-14.1h4.6v13.9c0,2.6,0.6,4.4,1.7,5.6
		c1.1,1.2,2.7,1.7,4.7,1.7s3.6-0.6,4.7-1.7c1.1-1.2,1.6-3,1.6-5.6v-13.9h4.6v14.1c0,3.6-1,6.4-2.9,8.3
		C59.6,282.7,56.9,283.7,53.5,283.7z"/>
	<path class="st1" d="M82.6,283.7c-1.9,0-3.7-0.3-5.4-0.9c-1.6-0.6-3-1.5-4.3-2.7c-1.2-1.2-2.2-2.5-2.8-4.1c-0.7-1.6-1-3.3-1-5.1
		c0-1.9,0.3-3.6,1-5.1c0.7-1.6,1.6-2.9,2.8-4.1c1.2-1.2,2.7-2,4.3-2.7c1.6-0.6,3.4-0.9,5.4-0.9c2.1,0,4,0.3,5.7,1
		c1.7,0.7,3.1,1.7,4.3,3l-2.9,2.9c-1-1-2-1.7-3.2-2.2c-1.1-0.5-2.4-0.7-3.7-0.7c-1.3,0-2.5,0.2-3.6,0.6s-2.1,1-2.9,1.8
		s-1.4,1.7-1.9,2.8c-0.4,1.1-0.7,2.2-0.7,3.5s0.2,2.4,0.7,3.5c0.4,1.1,1.1,2,1.9,2.8s1.8,1.4,2.9,1.8s2.3,0.6,3.6,0.6
		c1.2,0,2.4-0.2,3.6-0.6s2.3-1.1,3.3-2l2.6,3.5c-1.3,1-2.8,1.8-4.5,2.4C86.1,283.4,84.3,283.7,82.6,283.7z M87.9,279.9v-9.3h4.4v9.9
		L87.9,279.9z"/>
	<path class="st1" d="M106.2,283.7c-1.9,0-3.8-0.3-5.6-0.8c-1.8-0.6-3.2-1.3-4.2-2.2l1.6-3.6c1,0.8,2.2,1.4,3.7,2
		c1.5,0.5,3,0.8,4.5,0.8c1.3,0,2.4-0.1,3.2-0.4c0.8-0.3,1.4-0.7,1.8-1.2s0.6-1,0.6-1.7c0-0.8-0.3-1.4-0.8-1.8
		c-0.5-0.5-1.3-0.8-2.1-1.1c-0.9-0.3-1.8-0.5-2.9-0.8c-1.1-0.2-2.1-0.5-3.2-0.8s-2-0.7-2.9-1.2s-1.6-1.2-2.1-2.1s-0.8-1.9-0.8-3.3
		s0.4-2.6,1.1-3.7s1.8-2,3.3-2.7c1.5-0.7,3.4-1,5.7-1c1.5,0,3,0.2,4.5,0.6c1.5,0.4,2.8,0.9,3.9,1.6l-1.5,3.6
		c-1.1-0.7-2.3-1.2-3.5-1.5s-2.3-0.5-3.4-0.5c-1.3,0-2.3,0.2-3.1,0.5c-0.8,0.3-1.4,0.7-1.7,1.2c-0.4,0.5-0.6,1.1-0.6,1.7
		c0,0.8,0.3,1.4,0.8,1.8s1.2,0.8,2.1,1.1c0.9,0.3,1.8,0.5,2.9,0.8c1.1,0.2,2.1,0.5,3.2,0.8s2,0.7,2.9,1.2s1.6,1.2,2.1,2
		c0.5,0.9,0.8,1.9,0.8,3.2c0,1.3-0.4,2.6-1.1,3.7s-1.8,2-3.3,2.7C110.3,283.4,108.4,283.7,106.2,283.7z"/>
</g>
<rect x="267.5" y="0.6" class="st5" width="50" height="192"/>
<rect x="212.5" y="0.6" class="st5" width="50" height="192"/>
</svg>
