<?xml version="1.0" encoding="utf-8"?>
<!-- Generator: Adobe Illustrator 25.4.1, SVG Export Plug-In . SVG Version: 6.00 Build 0)  -->
<svg version="1.1" id="Layer_1" xmlns="http://www.w3.org/2000/svg" xmlns:xlink="http://www.w3.org/1999/xlink" x="0px" y="0px"
	 viewBox="0 0 318.5 297.6" style="enable-background:new 0 0 318.5 297.6;" xml:space="preserve">
<style type="text/css">
	.st0{fill:#344E41;}
	.st1{fill:#FFFFFF;}
	.st2{font-family:'Montserrat-SemiBold';}
	.st3{font-size:278.0876px;}
	.st4{enable-background:new    ;}
	.st5{fill:#A3B18A;}
</style>
<rect x="-0.5" y="0.6" class="st0" width="294" height="294"/>
<text transform="matrix(1 0 0 1 -4.4933 215.453)" class="st1 st2 st3">B</text>
<g class="st4">
	<path class="st1" d="M22.8,247.8v-25h10.4c2.7,0,4.8,0.5,6.3,1.6c1.5,1.1,2.3,2.7,2.3,4.7c0,1.4-0.3,2.5-1,3.4
		c-0.6,0.9-1.5,1.6-2.7,2.1c-1.1,0.5-2.4,0.7-3.8,0.7l0.6-0.7c1.7,0,3.2,0.2,4.4,0.7c1.2,0.5,2.1,1.2,2.8,2.2s0.9,2.1,0.9,3.6
		c0,2.1-0.8,3.7-2.3,4.9c-1.5,1.2-3.8,1.7-6.9,1.7H22.8z M24.6,246.2H34c2.4,0,4.2-0.4,5.5-1.2c1.3-0.8,1.9-2.1,1.9-3.9
		c0-1.8-0.6-3.1-1.9-3.9c-1.3-0.8-3.1-1.2-5.5-1.2h-9.5v-1.6h8.7c2.2,0,3.8-0.4,5-1.2c1.2-0.8,1.8-2.1,1.8-3.7
		c0-1.6-0.6-2.9-1.8-3.7c-1.2-0.8-2.9-1.2-5-1.2h-8.5V246.2z"/>
	<path class="st1" d="M49.6,247.8v-25h9c2.1,0,3.9,0.3,5.4,1c1.5,0.7,2.7,1.6,3.5,2.9c0.8,1.2,1.2,2.8,1.2,4.5
		c0,1.7-0.4,3.2-1.2,4.5c-0.8,1.2-2,2.2-3.5,2.9s-3.3,1-5.4,1h-8l0.8-0.9v9H49.6z M51.5,238.8l-0.8-0.9h8c2.7,0,4.7-0.6,6.1-1.8
		s2.1-2.9,2.1-5c0-2.2-0.7-3.8-2.1-5s-3.4-1.8-6.1-1.8h-8l0.8-0.9V238.8z M67,247.8l-6.5-9.1h2.1l6.5,9.1H67z"/>
	<path class="st1" d="M77.1,246.1h15.4v1.6H75.3v-25H92v1.6H77.1V246.1z M76.9,234.3h13.5v1.6H76.9V234.3z"/>
	<path class="st1" d="M95,247.8l11.5-25h1.8l11.5,25h-2L107,223.9h0.8L97,247.8H95z M99.2,240.7l0.6-1.5h14.9l0.6,1.5H99.2z"/>
	<path class="st1" d="M124.3,247.8v-25h1.8v25H124.3z M125.9,241.4l-0.1-2.3l15.9-16.4h2.2l-11.1,11.5l-1,1.1L125.9,241.4z
		 M142.5,247.8l-11.2-12.8l1.2-1.3l12.2,14.2H142.5z"/>
	<path class="st1" d="M149.4,247.8v-25h1.8v25H149.4z"/>
	<path class="st1" d="M159.9,247.8v-25h1.5l17.8,22.7h-0.8v-22.7h1.8v25h-1.5L160.9,225h0.8v22.7H159.9z"/>
	<path class="st1" d="M199.6,247.9c-1.9,0-3.6-0.3-5.2-0.9s-3-1.5-4.2-2.7c-1.2-1.1-2.1-2.5-2.7-4s-1-3.2-1-5c0-1.8,0.3-3.5,1-5
		s1.6-2.9,2.7-4c1.2-1.1,2.6-2,4.2-2.7s3.3-0.9,5.2-0.9c1.8,0,3.5,0.3,5,0.9c1.5,0.6,2.9,1.4,4,2.6l-1.1,1.2
		c-1.1-1.1-2.3-1.8-3.6-2.3c-1.3-0.5-2.7-0.7-4.2-0.7c-1.6,0-3.1,0.3-4.5,0.8s-2.6,1.3-3.6,2.3c-1,1-1.8,2.2-2.4,3.5
		s-0.8,2.8-0.8,4.3c0,1.6,0.3,3,0.8,4.4s1.3,2.5,2.4,3.5c1,1,2.2,1.8,3.6,2.3s2.9,0.8,4.5,0.8c1.5,0,2.9-0.2,4.2-0.7
		s2.5-1.2,3.6-2.2l1,1.4c-1.1,1.1-2.5,1.9-4,2.4C202.9,247.7,201.3,247.9,199.6,247.9z M206.7,244.5v-9.2h1.7v9.3L206.7,244.5z"/>
</g>
<g class="st4">
	<path class="st1" d="M20.8,278.3v-25h11.7c3,0,5.3,0.6,6.8,1.8c1.6,1.2,2.4,2.8,2.4,4.7c0,1.3-0.3,2.5-0.9,3.4
		c-0.6,0.9-1.4,1.7-2.5,2.2c-1,0.5-2.2,0.8-3.4,0.8l0.6-1.3c1.4,0,2.7,0.3,3.8,0.8c1.1,0.5,2,1.3,2.7,2.2c0.7,1,1,2.2,1,3.6
		c0,2.1-0.8,3.8-2.5,5c-1.6,1.2-4.1,1.8-7.3,1.8H20.8z M25.5,274.7H33c1.7,0,3.1-0.3,4-0.9c0.9-0.6,1.4-1.5,1.4-2.7
		c0-1.2-0.5-2.1-1.4-2.7c-0.9-0.6-2.3-0.9-4-0.9h-7.8v-3.6H32c1.6,0,2.9-0.3,3.7-0.9c0.9-0.6,1.3-1.4,1.3-2.6c0-1.2-0.4-2-1.3-2.6
		S33.6,257,32,257h-6.6V274.7z"/>
	<path class="st1" d="M58.7,278.7c-3.4,0-6.1-1-8-2.9c-1.9-1.9-2.9-4.7-2.9-8.3v-14.1h4.6v13.9c0,2.6,0.6,4.4,1.7,5.6
		c1.1,1.2,2.7,1.7,4.7,1.7c2,0,3.6-0.6,4.7-1.7c1.1-1.2,1.6-3,1.6-5.6v-13.9h4.6v14.1c0,3.6-1,6.4-2.9,8.3
		C64.8,277.7,62.1,278.7,58.7,278.7z"/>
	<path class="st1" d="M87.8,278.7c-1.9,0-3.7-0.3-5.4-0.9c-1.6-0.6-3-1.5-4.3-2.7c-1.2-1.2-2.2-2.5-2.8-4.1c-0.7-1.6-1-3.3-1-5.1
		c0-1.9,0.3-3.6,1-5.1c0.7-1.6,1.6-2.9,2.8-4.1c1.2-1.2,2.7-2,4.3-2.7c1.6-0.6,3.4-0.9,5.4-0.9c2.1,0,4,0.3,5.7,1
		c1.7,0.7,3.1,1.7,4.3,3l-2.9,2.9c-1-1-2-1.7-3.2-2.2c-1.1-0.5-2.4-0.7-3.7-0.7c-1.3,0-2.5,0.2-3.6,0.6c-1.1,0.4-2.1,1-2.9,1.8
		c-0.8,0.8-1.4,1.7-1.9,2.8c-0.4,1.1-0.7,2.2-0.7,3.5c0,1.3,0.2,2.4,0.7,3.5c0.4,1.1,1.1,2,1.9,2.8c0.8,0.8,1.8,1.4,2.9,1.8
		c1.1,0.4,2.3,0.6,3.6,0.6c1.2,0,2.4-0.2,3.6-0.6c1.2-0.4,2.3-1.1,3.3-2l2.6,3.5c-1.3,1-2.8,1.8-4.5,2.4
		C91.3,278.4,89.5,278.7,87.8,278.7z M93.1,274.9v-9.3h4.4v9.9L93.1,274.9z"/>
	<path class="st1" d="M111.4,278.7c-1.9,0-3.8-0.3-5.6-0.8c-1.8-0.6-3.2-1.3-4.2-2.2l1.6-3.6c1,0.8,2.2,1.4,3.7,2
		c1.5,0.5,3,0.8,4.5,0.8c1.3,0,2.4-0.1,3.2-0.4c0.8-0.3,1.4-0.7,1.8-1.2c0.4-0.5,0.6-1,0.6-1.7c0-0.8-0.3-1.4-0.8-1.8
		c-0.5-0.5-1.3-0.8-2.1-1.1c-0.9-0.3-1.8-0.5-2.9-0.8c-1.1-0.2-2.1-0.5-3.2-0.8c-1.1-0.3-2-0.7-2.9-1.2c-0.9-0.5-1.6-1.2-2.1-2.1
		c-0.5-0.9-0.8-1.9-0.8-3.3c0-1.4,0.4-2.6,1.1-3.7c0.7-1.1,1.8-2,3.3-2.7c1.5-0.7,3.4-1,5.7-1c1.5,0,3,0.2,4.5,0.6
		c1.5,0.4,2.8,0.9,3.9,1.6l-1.5,3.6c-1.1-0.7-2.3-1.2-3.5-1.5c-1.2-0.3-2.3-0.5-3.4-0.5c-1.3,0-2.3,0.2-3.1,0.5
		c-0.8,0.3-1.4,0.7-1.7,1.2c-0.4,0.5-0.6,1.1-0.6,1.7c0,0.8,0.3,1.4,0.8,1.8s1.2,0.8,2.1,1.1c0.9,0.3,1.8,0.5,2.9,0.8
		c1.1,0.2,2.1,0.5,3.2,0.8c1.1,0.3,2,0.7,2.9,1.2c0.9,0.5,1.6,1.2,2.1,2c0.5,0.9,0.8,1.9,0.8,3.2c0,1.3-0.4,2.6-1.1,3.7
		c-0.7,1.1-1.8,2-3.3,2.7C115.5,278.4,113.6,278.7,111.4,278.7z"/>
</g>
<rect x="267.5" y="0.6" class="st5" width="50" height="192"/>
<rect x="212.5" y="0.6" class="st5" width="50" height="192"/>
</svg>
