<?xml version="1.0" encoding="utf-8"?>
<!-- Generator: Adobe Illustrator 25.4.1, SVG Export Plug-In . SVG Version: 6.00 Build 0)  -->
<svg version="1.1" xmlns="http://www.w3.org/2000/svg" xmlns:xlink="http://www.w3.org/1999/xlink" x="0px" y="0px"
	 viewBox="0 0 1440 900" style="enable-background:new 0 0 1440 900;" xml:space="preserve">
<style type="text/css">
	.st0{fill:none;stroke:#000000;stroke-miterlimit:10;}
	.st1{fill:#2C2D31;}
	.st2{fill:#FFFFFF;}
	.st3{font-family:'Montserrat-Light';}
	.st4{font-size:17.4353px;}
	.st5{fill:#DB6348;}
	.st6{fill:#CC98E6;}
	.st7{fill:#EE827F;}
	.st8{fill:#C5D363;}
	.st9{fill:#64DAE6;}
	.st10{font-family:'Montserrat-Bold';}
	.st11{font-size:17px;}
	.st12{fill:none;}
	.st13{font-family:'Montserrat-Regular';}
	.st14{font-family:'Montserrat-ExtraLight';}
</style>
<g id="GUIA_AREA_DE_TRABAJO">
	<path class="st0" d="M9,902V39c0,0,0-18,20-18s1380,0,1380,0s24,3,24,19s0,861,0,861"/>
	<rect x="1352.5" y="38.5" class="st1" width="80" height="33"/>
	<polygon class="st0" points="1352.5,38.5 9,38.5 9.3,71 1352.5,71 	"/>
	<rect x="9.5" y="37.5" class="st1" width="617.5" height="34"/>
	<text transform="matrix(1 0 0 1 1365.6494 61.5928)" class="st2 st3 st4">MENU</text>
</g>
<g id="SECCION_1">
	<rect id="ESCARABAJO_COLOR" x="103.8" y="306.8" class="st5" width="169" height="169"/>
	<g id="ESCARABAJO">
		<path class="st1" d="M189,407.5c0-5.7,0-11.3,0-17c0-1.6,0.4-2.9,1.4-4.1c1.8-2.3,3.6-4.8,5.3-7.2c0.7-1,1.5-1.5,2.8-1.4
			c2.6,0.1,5.2,0,7.9,0.1c2,0,2.1,0.2,2.1,2c0,9.6,0.2,19.2-0.1,28.9c-0.3,7.4-4.1,12.9-10.6,16.5c-1.9,1-4,1.8-6.2,2.1
			c-2.2,0.3-2.5,0.1-2.5-2.2c0-3.7,0-7.5,0-11.2C189,411.8,189,409.7,189,407.5C189,407.5,189,407.5,189,407.5z"/>
		<path class="st1" d="M187.8,407.6c0,5.6,0,11.2,0,16.8c0,0.4,0,0.7,0,1.1c-0.1,1.9-0.3,2.1-2.1,1.9c-2.8-0.3-5.4-1.2-7.7-2.7
			c-6.1-3.9-9.5-9.4-9.6-16.7c-0.1-9.3-0.1-18.7-0.1-28c0-1.9,0.2-2,2.1-2.1c2.8,0,5.5,0,8.3,0c0.9,0,1.6,0.3,2.2,1.1
			c2.1,2.9,4.2,5.7,6.3,8.5c0.7,0.9,0.7,2,0.7,3C187.8,396.2,187.8,401.9,187.8,407.6C187.8,407.6,187.8,407.6,187.8,407.6z"/>
		<path class="st1" d="M188.3,376.7c-5.7,0-11.3,0-17,0c-0.6,0-1.1,0-1.7,0c-1,0-1.4-0.5-1.3-1.5c0.3-6.2,2.2-11.8,7-16.1
			c1.9-1.7,4.3-2.8,6.7-3.4c4-1,8.1-1,12.2-0.1c5.3,1.2,9.1,4.4,11.5,9.2c1.5,3,2.4,6.2,2.5,9.6c0.1,2.2,0,2.3-2.1,2.3
			c-4.8,0-9.6,0-14.4,0C190.6,376.7,189.5,376.7,188.3,376.7C188.3,376.7,188.3,376.7,188.3,376.7z"/>
		<path class="st1" d="M226.8,438.9c-1.3-3.7-4-6-6.8-8.3c-0.9-0.8-1.7-1.7-2.6-2.4c-0.5-0.4-1-0.8-0.6-1.6c0.1-0.1,0.1-0.3,0-0.4
			c-1.5-1.4-0.8-3.2-0.9-4.8c-0.1-2.8-0.1-5.5-0.1-8.3c0-1.1-0.3-1.6-1.6-1.7c-1.7-0.2-2.9-1.6-4.2-2.7c-0.1-0.1-0.2-0.4-0.2-0.6
			c0-1.3-0.2-2.7,0.2-4.1c1.4,0.2,2.2,1.2,3.1,1.9c1.5,1.1,3.5,1.8,3.4,4.2c0,0.4,0.4,0.6,0.7,0.7c1.2,0.3,1.4,1.3,1.3,2.3
			c-0.1,3.9,0.4,7.9-0.3,11.8c-0.1,0.5,0.2,0.7,0.6,1c2.9,1.8,5.1,4.5,7.7,6.6c0.4,0.3,0.7,0.8,0.7,1.3
			C227.3,435.5,227.4,437.2,226.8,438.9z"/>
		<path class="st1" d="M194.5,378.6c-0.1,0.2-0.1,0.4-0.3,0.5c-1.7,2.3-3.4,4.6-5,6.8c-0.6,0.8-1.1,0.7-1.7-0.1
			c-1.6-2.2-3.3-4.4-4.9-6.7c-0.7-1-0.5-1.4,0.8-1.4c3.3,0,6.7,0,10,0C193.9,377.9,194.4,377.9,194.5,378.6z"/>
		<path class="st1" d="M157,356c-2.2-0.1-2.2-0.1-3.8-1.9c-1.1-1.3-2.3-2.5-3.5-3.7c-1-1-1.2-1-2,0.3c-0.2,0.4-0.4,0.9-0.8,1.2
			c-1-2.1-0.5-5.2,0.9-6.3c0.5-0.4,1-0.5,1.5,0c2.5,2.8,5,5.6,7.6,8.3C157.6,354.7,156.8,355.3,157,356L157,356z"/>
		<path class="st1" d="M230.2,352.3c-0.4-0.2-0.5-0.2-0.5-0.2c-1.7-2.9-1.7-2.9-3.9-0.5c-0.9,1-1.8,2-2.7,3c-0.3,0.4-0.7,0.7-1.1,1
			c-0.9,0.7-1.7,0.2-2.3-0.3c-0.7-0.6,0-1.2,0.4-1.6c2.3-2.6,4.6-5.2,6.9-7.7c0.9-1,1.3-0.9,2.2,0c0.7,0.6,0.9,1.4,0.9,2.3
			C230.3,349.5,230.2,350.8,230.2,352.3z"/>
		<path class="st1" d="M156.9,356c1,0.3,1.6,0.8,1.8,2c0.6,3.9,1.3,7.8,2,11.7c0.1,0.5,0.1,1,0.1,1.5c0,0.7-0.4,1.1-1,1.2
			c-0.7,0.1-1.3-0.2-1.5-0.8c-0.1-0.3-0.2-0.7-0.2-1c-0.6-3.8-1.2-7.5-2-11.3C155.7,357.8,156.5,357,156.9,356
			C157,356,156.9,356,156.9,356z"/>
		<path class="st1" d="M224.2,399.8c-0.1,0.9-0.5,1.6-1.1,2.1c-0.4,0.4-0.8-0.1-1-0.4c-0.9-1.2-1.7-2.4-2.5-3.7c-1-1.5-2-3.1-3-4.5
			c-0.3-0.4-0.5-0.8-0.7-1.3c-0.3-0.7-0.1-1.4,0.6-1.8c0.7-0.4,1.4-0.2,1.8,0.5c1.1,1.6,2.2,3.3,3.3,4.9c0.7,1.1,1.5,2.2,2.2,3.4
			C223.9,399.3,224.1,399.6,224.2,399.8z"/>
		<path class="st1" d="M220.7,359c-0.7,3.7-1.4,7.8-2.1,11.9c-0.2,0.9-0.6,1.5-1.6,1.3c-1-0.2-1.2-0.9-1.1-1.8
			c0.2-1.4,0.5-2.8,0.7-4.2c0.5-2.7,0.9-5.4,1.4-8.1c0.1-0.7-0.1-1.7,1.1-1.7C220.3,356.6,220.8,357.4,220.7,359z"/>
		<path class="st1" d="M142.4,407.5c-0.2-2.2-0.1-4.2-0.1-6.1c0-0.7,0.5-1,1.1-1c2.3,0,4.6-0.1,7,0c0.8,0,1.8,1.3,1.7,2.1
			c0,0.6-0.5,0.6-0.9,0.6c-1.5,0-3,0.1-4.4,0c-1.4-0.1-2.4,0.3-2.9,1.8C143.7,405.7,143.4,406.6,142.4,407.5z"/>
		<path class="st1" d="M154,402.1c-0.9,0-1.6-1.8-1.2-2.7c0.3-0.6,0.7-1.2,1.1-1.8c1.3-2,2.6-4,4-6c0.3-0.4,0.6-0.8,0.9-1.2
			c0.4-0.5,1-0.6,1.5-0.3c0.7,0.4,0.8,1,0.5,1.6c-0.1,0.3-0.3,0.7-0.5,1c-1.8,2.8-3.7,5.7-5.5,8.5C154.5,401.7,154.3,402,154,402.1z
			"/>
		<path class="st1" d="M160.8,418.5c0,1.8,0,3.5,0,5.3c0,0.6,0.1,1.4-0.7,1.5c-0.7,0.2-1.7-0.6-1.9-1.3c-0.1-0.3-0.1-0.7-0.1-1.1
			c0-3.2,0-6.5,0.1-9.7c0-0.4,0-0.7,0.1-1.1c0.2-0.7,0.7-1,1.4-1c0.6,0,1.1,0.4,1.1,1c0.1,1.1,0.1,2.1,0.1,3.2
			C160.9,416.3,160.9,417.4,160.8,418.5C160.9,418.5,160.9,418.5,160.8,418.5z"/>
		<path class="st1" d="M149.8,437.9c-0.3-2.4-0.7-4.7,1.8-6.6c1.8-1.3,3.4-3,5-4.6c0.7-0.7,1.4-0.9,2.3-0.5c1.1,0.4,1.3,1,0.4,1.8
			c-1.5,1.4-2.9,2.9-4.6,4.1c-1.7,1.3-3,2.8-3.8,4.7c-0.2,0.4-0.4,0.7-0.6,1.1C150.1,438,149.9,438,149.8,437.9z"/>
		<path class="st1" d="M234.1,407c-0.8-0.7-1.1-1.6-1.3-2.3c-0.4-1.1-1.2-1.6-2.4-1.6c-1.6,0.1-3.2,0-4.9,0c-0.9,0-1.1-0.4-0.7-1.2
			c0.4-0.9,0.9-1.6,2-1.5c2,0,3.9,0,5.9,0c0.7,0,1.5,0.1,1.6,1.1C234.3,403.2,234.5,405,234.1,407z"/>
		<path class="st1" d="M184.3,350.7c0.1,1.5-1.2,2.8-2.8,2.9c-1.4,0.1-2.7-1.2-2.8-2.6c-0.1-1.5,1.2-2.8,2.8-2.9
			C183,348.1,184.2,349.2,184.3,350.7z"/>
		<path class="st1" d="M195.3,348.1c1.5,0,2.7,1.2,2.6,2.7c0,1.6-1.2,2.8-2.9,2.7c-1.4,0-2.7-1.3-2.7-2.7
			C192.4,349.3,193.8,348.1,195.3,348.1z"/>
		<path class="st1" d="M212.4,387.2c0.1,0,0.7,0,1.2,0.1c1.1,0.2,1.7,0.8,1.7,1.8c0.1,1.1-0.5,2-1.6,2.2c-1,0.2-2,0.1-3,0.1
			c-0.8,0-1.1-0.5-1.1-1.2c0-0.2,0-0.4,0-0.6C209.5,387.2,209.6,387.1,212.4,387.2z"/>
		<path class="st1" d="M167.1,406.2c-0.1,0.9,0.2,2-0.6,2.7c-1.1,1-2.2,2-3.6,2.4c-0.9,0.3-1.7,0-2.1-0.9c-0.5-0.9-0.3-2.3,0.6-2.8
			c1.5-0.9,2.8-2.1,4.3-3c0.9-0.6,1.3-0.4,1.4,0.6C167.1,405.5,167.1,405.9,167.1,406.2z"/>
		<path class="st1" d="M164.5,371.8c0.1,0,0.3,0,0.4,0c2.5,0,2.6,0.2,2.2,2.7c-0.1,0.9-0.5,1.4-1.4,1.4c-1,0-2,0.1-2.9,0
			c-1.4-0.1-2.1-1-2-2.2c0.1-1.1,0.7-1.7,2.1-1.8C163.4,371.8,164,371.8,164.5,371.8C164.5,371.8,164.5,371.8,164.5,371.8z"/>
		<path class="st1" d="M212.5,371.8c0.5,0,1,0,1.5,0c1.1,0.1,1.9,0.8,2,1.8c0.1,1-0.4,1.7-1.5,2c-1.3,0.4-2.6,0.2-4,0.2
			c-0.5,0-0.7-0.4-0.8-0.8c-0.1-0.3-0.1-0.7-0.2-1c-0.2-2-0.1-2.1,2-2.2C211.8,371.8,212.2,371.8,212.5,371.8
			C212.5,371.8,212.5,371.8,212.5,371.8z"/>
		<path class="st1" d="M164,391.3c-0.1,0-0.6,0-1.1-0.1c-0.9-0.2-1.4-0.8-1.5-1.8c0-1,0.4-1.6,1.3-1.9c1-0.3,2-0.2,2.9-0.1
			c1.3,0.1,1.3,1.1,1.3,2c0,1.5-0.2,1.8-1.3,2C165.2,391.3,164.8,391.3,164,391.3z"/>
	</g>
	<rect id="HORMIGA_COLOR" x="533.6" y="198.5" class="st6" width="365" height="365"/>
	<g id="HORMIGA">
		<path class="st1" d="M714.9,431.7c0,10.7,0,21.4,0,32c0,4-0.4,4.3-4.2,3.7c-16.2-2.3-29.3-16.5-29.6-33c-0.3-18-0.1-36-0.1-54
			c0-3.7,0.2-3.9,3.9-3.9c5-0.1,10.1,0.1,15.1,0c1.9,0,3.1,0.7,4.1,2.3c3.2,5.2,6.4,10.4,9.7,15.5c1.2,1.8,1.1,3.8,1.1,5.7
			C714.9,410.6,714.9,421.1,714.9,431.7C714.9,431.7,714.9,431.7,714.9,431.7z"/>
		<path class="st1" d="M717.5,431.3c0-10.4,0.1-20.8,0-31.2c0-2.7,0.6-5,2.1-7.3c2.9-4.5,5.7-9,8.5-13.6c1.1-1.9,2.6-2.8,4.8-2.7
			c4.7,0.1,9.5,0,14.2,0c4.2,0,4.4,0.3,4.4,4.4c0,11.5,0,22.9,0,34.4c0,5.8,0.1,11.6-0.1,17.4c-0.4,13.2-6.2,23.4-17.5,30.4
			c-3.6,2.2-7.5,3.4-11.6,4.2c-4.4,0.8-4.8,0.4-4.8-3.9C717.5,452.7,717.5,442,717.5,431.3z"/>
		<path class="st1" d="M715.9,344.3c-6.7,0-13.4,0-20.1,0c-3.8,0-7.3-0.9-10.1-3.5c-2.5-2.3-4-5.1-4.1-8.4c-0.2-5.8,0-11.6-0.1-17.4
			c0-2.2,0.6-2.8,3-2.5c5.7,0.8,8.8-2.6,8.2-8.4c-0.3-2.9-0.3-3.1,2.7-3.1c13.9-0.1,27.8,0,41.6,0c3,0,3,0.2,2.6,3.5
			c-0.6,5.2,2.5,8.5,7.7,8.2c3.4-0.2,3.4-0.2,3.5,3.3c0.1,4.9,0,9.8,0,14.6c-0.1,8.1-5.2,13.4-13.4,13.8c-0.3,0-0.6,0-0.9,0
			C729.7,344.3,722.8,344.3,715.9,344.3C715.9,344.3,715.9,344.3,715.9,344.3z"/>
		<path class="st1" d="M716.1,374c-8.7,0-17.4,0-26.1,0c-6.4,0-8.5-2.1-8.5-8.5c0-3.8-0.1-7.6,0.1-11.4c0.2-4.8,2.4-7,7.2-7.1
			c18.3-0.1,36.6-0.1,54.9,0c4.7,0,7,2.4,7.1,7.1c0.1,4.1,0.1,8.2,0,12.4c-0.1,5.1-2.4,7.5-7.7,7.5C734.1,374,725.1,374,716.1,374
			C716.1,374,716.1,374,716.1,374z"/>
		<path class="st1" d="M666.5,328.7c3-0.6,5.8-0.6,8.7-0.5c3.6,0.1,3.6,0.2,3.9,3.5c0.4,5.1,0.4,5.1-4.9,5.1c-1.2,0-2.4,0.1-3.7,0
			c-3.7-0.2-4.8-1.3-5.1-5c-0.1-1.3-0.1-2.4-1.8-2.3c-2.2,0-3.2-1.5-3.5-3.5c-1.5-8.7-3-17.4-4.4-26.2c-0.4-2.3,1.7-4.5,3.9-4.4
			c0.9,0,1.3,0.7,1.5,1.5c0.3,1.3,0.5,2.7,0.8,4C663.4,310,664.9,319.2,666.5,328.7z"/>
		<path class="st1" d="M774.6,295.1c2,1.9,2.4,4,1.8,6.8c-1.5,7.5-2.6,15-3.9,22.5c-0.7,4.3-1.1,4.5-5.5,5.2c-0.5,0.9,0.1,1.8,0,2.7
			c-0.3,2.6-1.4,3.9-3.9,4.3c-1.5,0.2-3,0.1-4.6,0.2c-5.6,0-6.9-1.9-4.9-7.2c0.5-1.2,1.3-1.5,2.5-1.5c3.2,0,6.4,0,9.8,0
			c1.6-9.6,3.3-19.4,4.8-29.1C771.2,296.7,771.7,294.9,774.6,295.1L774.6,295.1z"/>
		<path class="st1" d="M633.9,476.1c-0.7-0.8-0.9-0.9-0.9-1.1c-1.2-10.1-1.1-10.2,8.2-14c4.5-1.8,9-3.8,13.5-5.7
			c4.7-2,4.7-2,8.6,1.9c-0.2,1.3-1.4,1.4-2.3,1.8c-5.3,2.3-10.6,4.7-16,6.8C640,467.8,635.2,469.6,633.9,476.1z"/>
		<path class="st1" d="M768.9,457.4c2.4-3.1,4.9-3.9,8.4-2.3c6.2,2.9,12.5,5.6,18.9,8.1c2.6,1,3.5,2.5,3.5,5.1
			c-0.1,2.4,0.3,4.8-0.2,7.7c-1.5-0.9-1.9-2.2-2.3-3.3c-0.9-2.5-2.7-3.9-5.1-4.9c-6.3-2.6-12.6-5.3-18.9-8
			C771.7,459.2,770.2,458.9,768.9,457.4z"/>
		<path class="st1" d="M774.6,295.2c1.2-0.2,1.2-1,0.5-1.5c-2.3-1.6-1.3-2.9,0.1-4.4c3.8-4.2,7.5-8.4,11.3-12.6c1-1,1.8-3.1,3.5-2.2
			c2,0.9,4,2.3,4,5.1c0,3,0,6.1,0,9.7c-2.1-1.2-2.4-3-3.1-4.3c-1-1.8-2-2.1-3.4-0.5c-2,2.3-4.1,4.6-6.1,6.8
			c-1.6,1.8-3.1,3.9-6.1,2.6C774.6,293.7,774.3,294.4,774.6,295.2C774.6,295.1,774.6,295.2,774.6,295.2z"/>
		<path class="st1" d="M648.9,408.7c-0.9,1.5-2.4,1.7-4,1.7c-2.9,0-5.8,0.2-8.7,0c-3.3-0.3-5.5,0.7-6.7,4c-0.6,1.7-1.6,3.2-2.5,5
			c-0.9-2.3-1.4-11-0.9-12.9c0.4-1.5,1.4-1.9,2.7-1.9c4.9,0,9.8,0,14.6,0c1.3,0,2.3,0.6,3.1,1.7
			C647.3,407.1,647.5,408.4,648.9,408.7L648.9,408.7z"/>
		<path class="st1" d="M638.6,288.6c-0.1-2.6-0.1-5.1-0.3-7.7c-0.3-2.6,1-4.3,2.9-5.8c1.4-1.1,2.4-1,3.5,0.2
			c4.3,4.8,8.6,9.5,12.9,14.3c0.7,0.8,2.2,1.9,0.7,3c-1.4,1.1-3,2.4-5,0.9c-1-0.7-1.8-1.7-2.6-2.6c-1.9-2.2-3.8-4.4-5.8-6.5
			c-1.8-1.9-2.3-1.8-3.6,0.5c-0.4,0.7-0.7,1.4-1,2c-0.3,0.5-0.6,1-0.9,1.6C639.2,288.6,638.9,288.6,638.6,288.6z"/>
		<path class="st1" d="M784.6,404.9c0.2,0.3-0.1,1.1,0.6,0.8c6.1-2.7,12.6-0.9,18.9-1.2c1.4-0.1,2.2,1,2.2,2.4c0,4.1,0,8.1,0,12.3
			c-1.8-0.4-1.8-1.6-2.3-2.5c-4-7.6-1.8-6.3-10.6-6.4c-2.1,0-4.3-0.2-6.4,0c-2.3,0.3-2.6-1.4-3.2-2.7l-0.1,0c1.3,0,1.7-0.9,1.9-1.9
			c0.2-0.8-0.4-0.9-1-1L784.6,404.9z"/>
		<path class="st1" d="M648.8,408.8c1.5-0.1,1.3-1.2,0.8-1.9c-2-2.8-0.8-5.1,0.9-7.5c3.1-4.5,6.1-9.1,9.1-13.7
			c0.2-0.3,0.3-0.5,0.5-0.8c2-2.8,3.5-3.5,5.1-2.3c1.5,1.1,1.6,2.7,0,5.3c-4,6.3-8.2,12.5-12.2,18.8c-1,1.5-1.9,1.5-3.4,0.7
			C648.5,407,648.5,407.9,648.8,408.8C648.9,408.7,648.8,408.8,648.8,408.8z"/>
		<path class="st1" d="M783.8,407.7c-0.1-0.2-0.2-0.5-0.3-0.7c-2.4,2-3.6,0.7-5-1.5c-3.8-6-7.9-11.9-11.9-17.9c-1-1.4-1.7-3,0.2-4.3
			c1.4-1,3.8-0.5,4.8,1c4.5,6.8,9.5,13.3,13,20.8c0,0,0-0.1,0-0.1C783.1,405.4,782.2,406.2,783.8,407.7L783.8,407.7z"/>
		<path class="st1" d="M706.1,376.6c6.5,0,12,0,17.5,0c1.8,0,2.7,0.7,1.6,2.5c-2.8,4.5-5.6,8.9-8.8,14.1
			C712.7,387.5,709.2,382.8,706.1,376.6z"/>
		<path class="st1" d="M666.1,439.1c0,4.4,0.1,8.8,0,13.2c0,2.1-0.7,2.4-2.5,1.4c-2-1.1-3.2-2.5-3.2-5c0.2-7.1,0.1-14.3,0.1-21.4
			c0-0.8,0.1-1.5,0.2-2.3c0.3-1.5,1.2-2.5,2.8-2.5c1.8,0,2.8,1.1,2.8,2.9c0,4.6,0,9.1,0,13.7C666.2,439.1,666.2,439.1,666.1,439.1z"
			/>
		<path class="st1" d="M766,438.8c0-3.8,0-7.6,0-11.4c0-1.1,0.1-2.1,0.4-3.1c0.3-1.1,1.2-1.7,2.4-1.8c1.2,0,2,0.6,2.6,1.6
			c0.5,1,0.5,2.1,0.5,3.1c0.1,7,0.1,14,0.2,21c0,0.8,0,1.5-0.1,2.3c-0.3,1.5-3.6,4.3-4.7,3.8c-1.8-0.8-1-2.7-1-4
			c-0.1-3.8,0-7.6,0-11.4C766.1,438.8,766,438.8,766,438.8z"/>
		<path class="st1" d="M678.3,418.3c-0.3,1.6,0.6,3.6-1.3,4.5c-2.4,1.1-5,2.5-7.8,1.4c-1.6-0.6-2.4-1.8-2.5-3.5
			c-0.1-1.6,0.5-3.1,1.9-3.9c2.4-1.4,5.1-2,7.7-2.6c1-0.3,1.8,0.2,1.9,1.4C678.3,416.4,678.3,417.4,678.3,418.3z"/>
		<path class="st1" d="M761.5,424.6c-2.2-0.1-4.2-0.9-6.2-1.7c-0.8-0.3-1.2-1-1.2-1.8c-0.1-1.1-0.1-2.1-0.1-3.2
			c0.1-4.1,0.3-4.4,4.1-3.2c1.7,0.5,3.5,1.1,5.2,1.8c2,0.9,2.8,3.1,2.2,5C765,423.6,763.5,424.4,761.5,424.6z"/>
		<path class="st1" d="M673.7,385c-4.5,0-6.4-1.3-6.4-4.2c0-2.8,2.1-4.5,6.2-4.4c1.6,0,3.7-0.7,4.5,1.2c0.8,1.9,0.8,4.3,0,6.2
			C677.2,385.7,675.1,384.7,673.7,385z"/>
		<path class="st1" d="M758.7,384.9c-0.9,0-1.8,0-2.7,0c-1.3,0-1.8-0.8-2-2c-0.9-5.5,0.7-7,6.4-6.5c3,0.3,4.8,2,4.7,4.5
			c0,2.3-1.7,3.8-4.6,4C759.9,385,759.3,384.9,758.7,384.9C758.7,384.9,758.7,384.9,758.7,384.9z"/>
		<path class="st1" d="M691,306c-0.1,2.9-2.4,5.1-5.4,4.9c-3.2-0.2-4.7-1.8-4.6-4.9c0.1-3.2,2.1-5.1,5.2-5
			C689.2,301.1,691.1,303.1,691,306z"/>
		<path class="st1" d="M746.3,310.9c-2.7,0-4.9-2.1-5-4.9c-0.1-2.8,1.8-4.9,4.7-5c3-0.1,5.3,2.1,5.3,5
			C751.3,308.7,749,310.8,746.3,310.9z"/>
		<path class="st6" d="M783.7,407.7c-1.4-1.5-0.5-2.3,0.9-2.8c0.6,0.1,1.1,0.2,1,1C785.3,406.8,785,407.7,783.7,407.7z"/>
	</g>
	<g>
		<g>
			<path class="st5" d="M431,321.7c1.9,0,1.9-3,0-3C429,318.7,429,321.7,431,321.7L431,321.7z"/>
		</g>
	</g>
	<rect id="BARATA_COLOR" x="297.4" y="281.8" class="st7" width="214.6" height="214.6"/>
	<g id="BARATA">
		<path class="st1" d="M404.8,381.4c0.8,0.4,1,1.3,1.4,2c3.9,7.5,9.5,13.3,16.9,17.2c1.8,0.9,2.4,2,2.2,4
			c-0.7,7.4-1.7,14.8-4.6,21.8c-1.4,3.4-3.3,6.6-6,9.1c-5.1,4.7-12.1,4.8-17.3,0.3c-2.9-2.5-4.9-5.7-6.3-9.3
			c-3.1-7.7-4.1-15.7-4.7-23.9c-0.1-1.1,0.3-1.8,1.3-2.4c2-1.2,3.9-2.6,5.7-4.1c4.1-3.4,7.5-7.5,10-12.2
			C403.7,383,403.9,382,404.8,381.4z M405.8,405.5C405.8,405.5,405.8,405.5,405.8,405.5c4.3,0,8.6,0,12.9,0c0.7,0,1.4,0,2.1-0.1
			c0.9-0.1,1.1-0.8,1.1-1.5c0-0.7-0.3-1.2-1.1-1.3c-0.6,0-1.3,0-1.9,0c-8.5,0-17,0-25.6,0c-0.6,0-1.3,0-1.9,0.1
			c-0.9,0-1.2,0.6-1.2,1.4c0,0.9,0.4,1.4,1.2,1.4c0.6,0,1.3,0,1.9,0C397.5,405.5,401.6,405.5,405.8,405.5z M405.9,414.4
			C405.9,414.4,405.9,414.4,405.9,414.4c-4.3,0-8.6,0-12.9,0c-0.7,0-1.5,0.1-1.5,1.1c0,0.8,0.2,1.6,1.3,1.8c0.5,0.1,1.1,0.1,1.6,0.1
			c1.8,0,3.6,0,5.4,0c5.7,0,11.3,0,17,0c0.7,0,1.4,0,2.2,0c1.1-0.1,1.5-0.9,1.5-1.9c0-1-0.8-1-1.6-1
			C414.5,414.4,410.2,414.4,405.9,414.4z M406,426.2C406,426.2,406,426.2,406,426.2c-0.6,0-1.3,0-1.9,0c-2.5,0-5,0-7.5,0
			c-0.5,0-1.1-0.1-1.4,0.5c-0.2,0.6,0.2,1,0.5,1.5c0.6,1,1.7,0.9,2.7,0.9c5.1,0,10.2,0,15.3,0c0.4,0,0.7,0,1.1,0
			c1.2-0.1,1.8-1,1.8-2c0-1.2-1.2-0.9-1.9-0.9C411.8,426.1,408.9,426.2,406,426.2z"/>
		<path class="st1" d="M394.8,340.1c-0.4-0.4-0.8-0.9-1.1-1.3c-0.1-0.4-0.3-0.6-0.7-0.6c-0.2-0.2-0.4-0.3-0.7-0.5
			c-0.7-0.7-1.5-1.1-2.5-1c-1-0.3-2.1-0.3-3.1,0.1c-0.8-0.1-1.5,0.2-2.1,0.8c-0.9,0.3-1.7,0.9-2.3,1.5c0,0-0.2,0-0.2,0l-0.1,0.2
			c-1.2,0.8-2.2,1.7-3,3c-0.9,0.6-1.4,1.5-1.8,2.5c-0.3,0.5-0.6,0.9-0.9,1.4c-0.4,0.3-0.7,0.7-0.7,1.3c-0.3,0.6-0.7,1.2-1,1.8
			c-0.2,0.1-0.2,0.2-0.1,0.3c-2.7,5-4.4,10.4-5.9,15.9c-0.2,0.7-0.4,1.4-0.6,2.1c-0.4,0.9-1,1.2-2,1c-0.8-0.2-1.2-0.8-1.1-1.6
			c0-0.4,0.1-0.9,0.2-1.3c2-7.2,4.3-14.3,8.1-20.8c2-3.4,4.3-6.4,7.5-8.8c6.4-4.7,13.3-3.5,17.6,3.1c1.8,2.8,2.9,6,3.7,9.2
			c0.2,0.8,0.3,1.6,0.5,2.4c0.5,2.1,0.5,2.2,2.6,2.1c1.2,0,2.3,0,3.5,0.3c0.9,0.2,1.4-0.1,1.6-1c0.1-0.7,0.3-1.4,0.4-2.1
			c0.6-3.4,1.6-6.6,3.2-9.7c3.8-7.2,11.1-9.1,18-4.8c2.9,1.9,5.2,4.4,7.1,7.2c4,6.1,6.4,12.8,8.3,19.8c0.3,1,0.5,2.1,0.8,3.1
			c0.4,1.7,0,2.7-1,2.9c-1.4,0.2-1.8-0.8-2.1-1.9c-0.4-1.4-0.8-2.8-1.1-4.2c-1.5-5.4-3.4-10.6-6.2-15.5c-1.7-3-3.7-5.7-6.4-7.9
			c-1.2-1-2.5-1.7-4-2.1c-3.3-1-6.2-0.3-8.6,2.3c-1.6,1.8-2.5,3.9-3.3,6.1c-0.9,2.5-1.4,5.2-1.8,7.9c-0.2,1.4,0.1,2.3,1.2,3.3
			c4.7,4.4,7,10.1,8.7,16.2c0.5,1.6,0.1,2-1.5,1.8c-4.3-0.5-8.6-0.9-12.9-1.1c-5.8-0.2-11.7,0.1-17.5,0.7c-3.1,0.3-3.3,0.1-2.3-2.9
			c2-6.1,4.6-11.9,9.9-16c0.5-0.4,0.9-0.9,0.7-1.6c-0.9-4.6-1.7-9.2-4.6-13.1c0,0,0-0.2,0-0.2L394.8,340.1z"/>
		<path class="st1" d="M397.5,376.4c1.3,0,2.7,0,4,0c1.4,0,1.6,0.3,1.1,1.7c-1.3,3.4-3,6.5-5.2,9.4c-7.5,9.8-17.8,14.7-29.7,16.7
			c-3.9,0.6-7.8,0.9-11.8,0.2c-5.8-1.1-7.2-4.3-4.1-9.2c1.8-2.8,4.2-4.9,6.8-6.8c7-5,14.9-7.8,23.2-9.8
			C387,377.4,392.2,376.9,397.5,376.4z"/>
		<path class="st1" d="M412,376.3c7.2,0.8,14.4,1.2,21.3,3.2c7.5,2.2,14.4,5.6,20.3,10.7c1.9,1.6,3.6,3.5,4.8,5.8
			c2,4,0.6,7.1-3.7,8.2c-1,0.3-2.1,0.5-3.2,0.4c-12.2-0.2-23.4-3.3-33.1-11c-5-4-8.6-9.2-10.9-15.1c-0.8-2.1-0.6-2.3,1.6-2.3
			C410,376.3,411,376.3,412,376.3z"/>
		<path class="st5" d="M377.3,344.7c0.4-1,0.9-1.9,1.8-2.5C379,343.4,378.6,344.4,377.3,344.7z"/>
		<path class="st5" d="M389.8,336.6c1-0.1,1.9,0.3,2.5,1C391.4,337.6,390.4,337.5,389.8,336.6z"/>
		<path class="st5" d="M384.7,337.5c0.6-0.5,1.3-0.9,2.1-0.8C386.3,337.6,385.6,337.7,384.7,337.5z"/>
		<path class="st5" d="M375.7,347.4c0-0.6,0.3-1,0.7-1.3C376.5,346.7,376.3,347.2,375.7,347.4z"/>
		<path class="st5" d="M393,338.1c0.4,0,0.6,0.3,0.7,0.6C393.3,338.7,393.1,338.5,393,338.1z"/>
		<path class="st5" d="M382,339.2l0.1-0.2c0,0,0.2,0,0.2,0C382.3,339.2,382.2,339.2,382,339.2z"/>
		<path class="st5" d="M374.6,349.5c-0.1-0.1,0-0.3,0.1-0.3C374.7,349.3,374.7,349.4,374.6,349.5z"/>
		<path class="st5" d="M394.8,340.1l0.2,0.1c0,0,0,0.2,0,0.2C394.9,340.3,394.8,340.2,394.8,340.1z"/>
	</g>
	<rect id="MOSCA_COLOR" x="921.7" y="281.8" class="st8" width="214.6" height="214.6"/>
	<g id="MOSCA">
		<path class="st1" d="M1026.5,349.6c-3.2-0.5-6.4,0.3-9.3-1.4c0.5-0.9,1.2-0.5,1.7-0.4c1.1,0.1,2.1,0.2,3.2,0.1
			c2.5-0.4,4-2,4.2-4.6c0.2-2.2-0.6-4.1-1.5-5.9c-1-2-0.8-2.4,1.4-3.2c2.1-0.7,4.1-0.7,6,0.3c1.5,0.8,1.7,1.1,0.9,2.7
			c-0.6,1.3-1.3,2.6-1.5,4c-0.7,4.3,1.7,7,6.1,6.7c1.4-0.1,2.6-0.7,3.9-1c-0.8,1.6-1.7,2.1-4.6,2.3c-1.8,0.1-3.7,0-5.8,0
			c0.6,1.1,1.3,0.9,1.9,1c2.3,0.4,4.6,1,6.5,2.5c0.8,0.6,1.4,0.6,2.2,0c1.7-1.2,2.9-2.5,3.3-4.6c0.9-4.8,2.3-9.4,3.3-14.2
			c0.3-1.6,1-2.8,2.2-3.9c3.1-3,6.2-6,9.3-9c0.4-0.4,0.8-0.7,1.2-1c0.2-0.1,0.5,0,0.7,0.1c0.3,0.2,0.5,0.6,0.3,0.9
			c-0.3,0.5-0.8,1-1.2,1.4c-2.7,2.6-5.4,5.3-8.1,7.9c-1.4,1.3-2.2,2.7-2.7,4.5c-1.1,4.7-2.4,9.4-3.4,14.1c-0.4,2-1.2,3.5-3,4.5
			c-1.7,1-2.2,2.3-1.8,4.2c0.6,3.5,0.6,7,0.3,10.5c-0.2,1.8-0.1,2.1,1.6,1.9c2.5-0.3,3.7,0.9,4.8,2.9c3,5.3,6.2,10.5,9.2,15.8
			c0.9,1.5,2,2.7,3.5,3.5c5.6,3.2,11.1,6.6,16.7,9.9c0.4,0.2,0.8,0.5,1.2,0.7c0.7,0.4,1.5,0.8,0.9,1.8c-0.6,0.9-1.3,0.3-1.9,0
			c-2-1.2-4-2.4-6-3.6c-4.2-2.5-8.5-5.1-12.7-7.6c-1.2-0.7-2.1-1.6-2.8-2.8c-3.3-5.7-6.7-11.3-9.9-17c-0.7-1.3-1.6-2-3.2-1.9
			c-2.2,0.1-2.3,0.1-3.1,2.2c-1.2,3-2.7,5.9-4.7,8.5c-1.1,1.4-2.3,2.8-3.8,3.8c-2.2,1.5-3.8,1.5-6,0c-1.7-1.1-3-2.6-4.1-4.2
			c-1.9-2.6-3.4-5.5-4.5-8.5c-0.8-2-4.1-2.5-5.5-0.8c-0.4,0.5-0.7,1.1-1,1.6c-3.2,5.4-6.4,10.8-9.6,16.3c-0.7,1.2-1.6,2.1-2.8,2.8
			c-6.1,3.5-12.1,7.1-18.1,10.7c-0.5,0.3-0.9,0.6-1.4,0.8c-0.6,0.3-1,0-1.3-0.6c-0.3-0.5-0.1-0.9,0.3-1.2c0.5-0.4,1.1-0.7,1.6-1
			c5.7-3.4,11.4-6.8,17.2-10.2c1.4-0.8,2.4-1.8,3.2-3.2c3.2-5.6,6.6-11.1,9.8-16.7c0.9-1.6,1.9-2.3,3.8-2.2c2.2,0.1,2.2-0.1,2.1-2.3
			c-0.2-3.5-0.3-7,0.3-10.5c0.3-1.6,0-2.8-1.5-3.6c-2.1-1.2-3-3-3.5-5.4c-1-4.7-2.3-9.2-3.4-13.9c-0.4-1.6-1.1-2.8-2.2-3.9
			c-2.8-2.6-5.6-5.4-8.3-8.1c-0.4-0.4-0.9-0.9-1.3-1.4c-0.2-0.3-0.1-0.7,0.1-1c0.3-0.4,0.8-0.4,1.2-0.1c0.3,0.2,0.5,0.5,0.8,0.7
			c3.2,3.1,6.4,6.3,9.7,9.4c1,1,1.6,2.1,1.9,3.5c1.1,5,2.4,10,3.6,14.9c0.3,1.3,0.8,2.3,1.9,3.1c2.1,1.6,2,1.6,4.3,0.2
			c1.5-0.9,3.1-1.4,4.8-1.7C1024.8,350.3,1025.7,350.4,1026.5,349.6z"/>
		<path class="st1" d="M1034.6,387.5c-4.7,10.4-5.8,20.7,0.3,30.9c1,1.7,1.2,3-0.1,4.5c-1,1.2-1.9,2.6-3.1,3.7
			c-1.9,1.7-3.3,1.7-5.2,0.1c-1.6-1.4-2.8-3.2-4-5c-0.4-0.7-0.5-1.3,0-2c0.2-0.3,0.4-0.6,0.6-0.9c4.5-7.5,5.4-15.5,3.1-23.9
			c-0.6-2.2-1.3-4.3-2-6.4c0.2-0.2,0.3-0.4,0.5-0.6c3.5,2,6.7,1.8,9.8-0.9C1034.4,387.2,1034.5,387.3,1034.6,387.5z"/>
		<path class="st1" d="M1037.4,347.1c-3.2,0-4.8-1.6-4.7-4.8c0.1-2.9,1.4-5.2,3.3-5.6c1.6-0.4,4.1,1.2,5.4,3.4
			C1043.5,343.7,1041.6,347.1,1037.4,347.1z"/>
		<path class="st1" d="M1020.7,347.1c-1.8-0.1-3.4-0.4-4.4-2.1c-1-1.8-0.6-3.5,0.4-5.1c1-1.5,2-2.9,4-3.2c1.5-0.3,2.6,0.2,3.4,1.5
			c1.1,1.8,1.5,3.8,1,5.9C1024.8,346.1,1023.1,347.1,1020.7,347.1z"/>
		<path class="st5" d="M1034.6,387.5c-0.1-0.2-0.2-0.3-0.3-0.5c0.1-0.1,0.3-0.2,0.3-0.2C1035,387,1034.8,387.3,1034.6,387.5z"/>
		<path class="st1" d="M1024,388.5c-0.2-0.2-0.3-0.5-0.1-0.7c0.2-0.3,0.4-0.1,0.6,0.1C1024.4,388.1,1024.2,388.3,1024,388.5z"/>
		<path class="st1" d="M1032.2,403.3c0-4.8,1.4-10,3.5-15c1.5-3.6,3.4-7.1,5.3-10.6c1.4-2.5,2.1-2.6,3.7-0.3
			c4.2,5.9,7.7,12.1,11,18.5c4,7.7,7.5,15.7,9.8,24.2c0.9,3.4,1.6,6.8,1.9,10.3c0.2,2.2,0,4.3-0.8,6.3c-1.2,2.7-3.3,4.2-6.3,4.2
			c-2.4,0-4.6-0.7-6.5-2.3c-8-6.8-14.9-14.6-19.3-24.2C1032.9,411.1,1032.1,407.6,1032.2,403.3z"/>
		<path class="st1" d="M1025.8,403.5c0.1,4.2-0.9,7.8-2.5,11.3c-4.4,9.3-11.1,16.9-18.9,23.6c-2,1.7-4.3,2.6-6.9,2.5
			c-2.8-0.1-4.8-1.4-6-3.9c-1-2.1-1.1-4.3-0.9-6.6c0.5-6.3,2.2-12.4,4.4-18.3c4.5-12.1,10.6-23.3,17.8-34c2.2-3.3,2.8-3.2,4.6,0.3
			c2.5,4.8,5,9.5,6.6,14.7C1025.1,396.6,1025.8,400.2,1025.8,403.5z"/>
	</g>
	<rect id="GARRAPATA_COLOR" x="1156.9" y="307.9" class="st9" width="168" height="168"/>
	<g id="GARRAPATA">
		<path class="st1" d="M1230.2,363.2c0.4,0.5,0.6,0.1,0.8-0.2c1.1-1.5,2.7-2,4.5-1.9c0.5,0,1,0,1.5-0.5c-1.6-0.6-1.3-1.9-1-3.1
			c0.2-0.8,0.4-1.6,0.7-2.4c0.3-0.9,0.6-1.8,0-2.8c-0.4-0.6-0.2-1.2,0.4-1.7c0.4-0.3,0.8-0.3,1.2-0.1c0.6,0.4,1,0.9,0.7,1.6
			c-0.6,1.7,0.9,2.2,1.6,3.1c0.1,0.1,0.4,0.1,0.6,0.1c0.6-0.1,2.1-2.1,2.1-2.7c0-0.3-0.2-0.7-0.1-1c0.1-0.8,0.8-1.3,1.5-1.2
			c0.8,0.2,1.4,1,0.9,1.6c-1,1.5-0.2,2.8,0.1,4.2c0.3,1.4,1,2.6,0.5,4.1c-0.2,0.6,0.4,0.9,0.9,0.8c1.9-0.1,3.1,1,4.2,2.4
			c0.3,0.4,0.5,1,1.1,0.7c0.6-0.2,0.4-0.8,0.2-1.2c-0.3-0.7,0-1,0.7-1.1c0.7-0.1,1.4-0.2,2.1-0.3c3.8-0.4,7.6-0.8,11.3-1.2
			c2.8-0.3,4.2-2.3,5.4-4.5c1.1-2.1,0.2-4-1.2-5.6c-0.7-0.8-1.4-1.5-2.2-2.3c-0.7-0.8-1.4-1.5-1.5-2.8c2,1.4,4.3,2.3,6.3,3.5
			c2.4,1.4,3.4,4.8,2.5,7.9c-1.1,3.8-3.7,6.3-7.5,7.3c-4.4,1.1-8.9,1-13.4,1.2c-0.7,0-1.2-0.2-1.6-0.8c-0.2-0.3-0.6-0.5-0.9-0.3
			c-0.5,0.3-0.2,0.7,0,1.1c0.3,0.6,0.6,1.1,0.9,1.7c5.9,11,9.5,22.7,9.7,35.2c0.1,6.2-0.7,12.2-3.6,17.8
			c-4.4,8.5-13.8,12.3-21.9,10.9c-9.6-1.7-15.2-7.8-17.5-16.9c-2.1-8.1-1.7-16.3,0.1-24.5c1.6-7.4,4.1-14.5,7.5-21.2
			c0.6-1.2,1.8-2.2,1.7-3.7l0,0C1230.2,364.5,1230.5,364.1,1230.2,363.2L1230.2,363.2z M1237.2,360.6c0,0.5,0.4,0.5,0.7,0.5
			c2,0,3.9,0,5.9,0c0.4,0,0.9,0.1,0.9-0.5c0-0.4-0.5-0.4-0.8-0.4c-2,0-4.1,0-6.1,0C1237.6,360.2,1237.3,360.3,1237.2,360.6z
			 M1245.7,360.5c0-0.1-0.1-0.1-0.1-0.1c0,0.1-0.1,0.2-0.1,0.2c0,0,0.1,0.1,0.1,0.1C1245.6,360.6,1245.7,360.6,1245.7,360.5z"/>
		<path class="st1" d="M1229.4,364.5c0.1-0.6-0.3-0.7-0.6-0.4c-0.9,1.2-2.2,1.1-3.5,1c-3.7-0.2-7.5-0.2-11.1-1
			c-3.6-0.7-6.3-2.7-7.8-6.1c-2-4.4-0.4-8.5,4-10.3c1.6-0.6,2.8-1.8,4.5-2.7c-0.3,1.2-0.9,1.9-1.5,2.6c-1,1.1-2,2.1-2.9,3.3
			c-1.6,2.2-1.6,4.2,0.1,6.4c1.4,1.8,3,3.1,5.6,3.2c3.8,0.2,7.6,0.7,11.3,1.1c1,0.1,2.1,0.1,2.2,1.6c0,0.3,0.3,0,0.5-0.1
			c0,0,0,0,0,0c-0.3-0.6-0.6-0.4-0.9,0C1229.1,363.6,1228.5,364.1,1229.4,364.5L1229.4,364.5z"/>
		<path class="st1" d="M1264.8,399.3c1.3,0.6,2.2,1.4,3.1,2.2c8.9,7.9,10.8,17.9,5.5,28.6c-0.9,1.8-1.9,3.4-3,5.1
			c-0.3,0.4-0.5,0.9-1.2,1.1c-0.4-1-0.2-2,0.1-3c0.5-1.8,1.1-3.6,1.7-5.4c0.6-1.7,1.1-3.5,1.5-5.3c1.1-4.9-0.2-9.2-3.1-13.1
			c-1.1-1.4-2.2-2.7-3.6-3.9c-0.8-0.7-1.2-1.5-1.1-2.6C1264.7,401.9,1264.5,400.7,1264.8,399.3z"/>
		<path class="st1" d="M1212.8,436.3c-0.4-0.3-0.6-0.3-0.7-0.5c-3.7-5-6.4-10.4-6.5-16.8c-0.1-8.3,4-14.4,10.5-19.1
			c0.8-0.6,1.2-0.4,1.2,0.6c0,1.1,0,2.2,0,3.4c0,0.7-0.5,1.1-1,1.5c-1.6,1.5-3.1,3.1-4.3,4.9c-2.9,4.1-3.7,8.6-2.3,13.4
			c0.7,2.4,1.6,4.8,2.3,7.2C1212.5,432.6,1213,434.3,1212.8,436.3z"/>
		<path class="st1" d="M1282,416.5c-0.8-0.6-0.9-1.5-1.2-2.4c-0.6-2.2-1.2-4.5-1.8-6.7c-1.3-4.7-3.5-9-7.1-12.4
			c-2-1.9-4.4-3.2-6.9-4.4c-0.6-0.3-1.5-0.4-1.7-1.2c-0.3-1.1-0.4-2.2-0.6-3.3c-0.1-0.5,0.4-0.5,0.8-0.4c0.5,0.1,1.1,0.3,1.6,0.5
			c8.2,3.5,13.6,9.4,16.1,18.1c1,3.7,1.3,7.5,1.1,11.3c0,0.2,0,0.4-0.1,0.6C1282.3,416.2,1282.1,416.3,1282,416.5z"/>
		<path class="st1" d="M1200.1,416.5c-0.6-0.3-0.6-0.7-0.6-1c-0.4-8.1,1.2-15.5,6.6-21.8c3-3.5,6.8-6,11.2-7.7
			c1.7-0.7,1.8-0.4,1.7,1.3c-0.2,1.8-0.9,3-2.7,3.7c-6.2,2.6-10.2,7.3-12.5,13.6c-1,2.8-1.6,5.7-2.4,8.5
			C1201,414.2,1200.7,415.4,1200.1,416.5z"/>
		<path class="st1" d="M1201.3,385.7c0.6-5.3,3.5-8.6,8.1-10.6c4.2-1.8,8.5-2.8,13.1-3c1.8-0.1,1.9,0.1,1.2,1.7
			c-0.1,0.3-0.3,0.6-0.4,1c-0.3,1.1-1,1.5-2.2,1.6c-2.4,0-4.7,0.4-7.1,0.9c-4.2,0.9-7.7,2.8-10.4,6.3
			C1203,384.3,1202.4,385.1,1201.3,385.7z"/>
		<path class="st1" d="M1280.6,385.6c-1.1-0.4-1.7-1.2-2.2-1.9c-2.7-3.7-6.3-5.6-10.7-6.5c-2.3-0.5-4.7-0.8-7.1-0.9
			c-0.6,0-1.3,0-1.6-0.8c-0.4-1-1.1-1.9-1.1-2.9c0-0.7,0.9-0.5,1.4-0.5c4.5,0.2,8.9,1.1,13.1,3c1.5,0.7,2.8,1.5,4.1,2.5
			C1279.1,379.6,1279.9,382.4,1280.6,385.6z"/>
		<path class="st1" d="M1237.2,360.6c0-0.4,0.4-0.4,0.6-0.4c2,0,4.1,0,6.1,0c0.3,0,0.8,0,0.8,0.4c0.1,0.6-0.5,0.5-0.9,0.5
			c-2,0-3.9,0-5.9,0C1237.7,361.1,1237.3,361.1,1237.2,360.6z"/>
		<path class="st1" d="M1229.4,364.5c-0.8-0.4-0.3-0.9,0-1.3c0.2-0.4,0.6-0.6,0.9,0C1230.5,364.1,1230.2,364.5,1229.4,364.5z"/>
		<path class="st1" d="M1245.7,360.5c0,0.1-0.1,0.2-0.1,0.2c0,0-0.1-0.1-0.1-0.1c0-0.1,0.1-0.2,0.1-0.2
			C1245.7,360.4,1245.7,360.4,1245.7,360.5z"/>
	</g>
	<path id="RECTANGULO_NOMBRE_INSECTO" d="M871.5,636h-306c-14.6,0-26.5-11.9-26.5-26.5l0,0c0-14.6,11.9-26.5,26.5-26.5h306
		c14.6,0,26.5,11.9,26.5,26.5l0,0C898,624.1,886.1,636,871.5,636z"/>
	<text id="NOMBRE_INSECTO" transform="matrix(1 0 0 1 679.6348 617.2051)" class="st2 st10 st11">HORMIGAS</text>
</g>
<g id="SECCIÓN_2">
	<line x1="11.8" y1="736.4" x2="1432.4" y2="736.4"/>
	<rect x="820" y="764.7" class="st12" width="593" height="114.7"/>
	<text id="TEXTO_INFORMATIVO" transform="matrix(1 0 0 1 820.0459 777.2881)"><tspan x="0" y="0" class="st13 st11">Lorem ipsum dolor sit amet, consectetuer adipiscing elit, sed diam </tspan><tspan x="0" y="20.4" class="st13 st11">nonummy nibh euismod tincidunt ut laoreet dolore magna aliquam </tspan><tspan x="0" y="40.8" class="st13 st11">erat volutpat. Ut wisi enim ad minim veniam, quis nostrud exerci </tspan><tspan x="0" y="61.2" class="st13 st11">tation ullamcorper suscipit lobortis nisl ut aliquip ex ea commodo </tspan><tspan x="0" y="81.6" class="st13 st11">consequat. Duis autem vel eum iriure dolor in hendrerit in vulputate </tspan><tspan x="0" y="102" class="st13 st11">velit esse molestie consequat, vel illum dolore eu feu</tspan></text>
	<text transform="matrix(1 0 0 1 93.5698 798.2094)"><tspan x="0" y="0" class="st10 st11">PROTECCIÓN</tspan><tspan x="0" y="20.4" class="st10 st11">ABSOLUTA</tspan><tspan x="0" y="40.8" class="st14 st11">Soluciones profesionales para espacios libres de plagas</tspan></text>
</g>
</svg>
