<?xml version="1.0" encoding="utf-8"?>
<!-- Generator: Adobe Illustrator 25.4.1, SVG Export Plug-In . SVG Version: 6.00 Build 0)  -->
<svg version="1.1" xmlns="http://www.w3.org/2000/svg" xmlns:xlink="http://www.w3.org/1999/xlink" x="0px" y="0px"
	 viewBox="0 0 364 364" style="enable-background:new 0 0 364 364;" xml:space="preserve">
<style type="text/css">
	.st0{fill:#344E41;}
	.st1{fill:#FFFFFF;}
</style>
<g id="Boton">
</g>
<g id="Texto_boton">
</g>
<g id="Icono_sanitización">
</g>
<g id="Icono_Desinfección">
</g>
<g id="Icono_desinsectación">
	<g>
		<g>
			<rect id="HORMIGA_COLOR" x="-0.8" y="-0.3" class="st0" width="365" height="365"/>
		</g>
	</g>
	<g id="BARATA">
		<path class="st1" d="M86.9,123.7c0.8,0.4,1,1.3,1.4,1.9c3.8,7.3,9.3,13,16.5,16.8c1.8,0.9,2.3,1.9,2.1,3.9
			c-0.7,7.2-1.7,14.4-4.5,21.2c-1.4,3.3-3.2,6.4-5.8,8.9c-5,4.6-11.8,4.7-16.9,0.3c-2.8-2.4-4.8-5.6-6.1-9.1c-3-7.5-4-15.3-4.6-23.3
			c-0.1-1.1,0.3-1.8,1.3-2.3c1.9-1.2,3.8-2.5,5.6-4c4-3.3,7.3-7.3,9.7-11.9C85.9,125.2,86.1,124.2,86.9,123.7z M87.9,147.1
			L87.9,147.1c4.2,0,8.4,0,12.6,0c0.7,0,1.4,0,2-0.1c0.9-0.1,1.1-0.8,1.1-1.5c0-0.7-0.3-1.2-1.1-1.3c-0.6,0-1.3,0-1.9,0
			c-8.3,0-16.6,0-25,0c-0.6,0-1.3,0-1.9,0.1c-0.9,0-1.2,0.6-1.2,1.4c0,0.9,0.4,1.4,1.2,1.4c0.6,0,1.3,0,1.9,0
			C79.8,147.1,83.8,147.1,87.9,147.1z M88,155.8L88,155.8c-4.2,0-8.4,0-12.6,0c-0.7,0-1.5,0.1-1.5,1.1c0,0.8,0.2,1.6,1.3,1.8
			c0.5,0.1,1.1,0.1,1.6,0.1c1.8,0,3.5,0,5.3,0c5.6,0,11,0,16.6,0c0.7,0,1.4,0,2.1,0c1.1-0.1,1.5-0.9,1.5-1.9c0-1-0.8-1-1.6-1
			C96.4,155.8,92.2,155.8,88,155.8z M88.1,167.3L88.1,167.3c-0.6,0-1.3,0-1.9,0c-2.4,0-4.9,0-7.3,0c-0.5,0-1.1-0.1-1.4,0.5
			c-0.2,0.6,0.2,1,0.5,1.5c0.6,1,1.7,0.9,2.6,0.9c5,0,9.9,0,14.9,0c0.4,0,0.7,0,1.1,0c1.2-0.1,1.8-1,1.8-1.9c0-1.2-1.2-0.9-1.9-0.9
			C93.8,167.2,90.9,167.3,88.1,167.3z"/>
		<path class="st1" d="M77.2,83.4c-0.4-0.4-0.8-0.9-1.1-1.3c-0.1-0.4-0.3-0.6-0.7-0.6c-0.2-0.2-0.4-0.3-0.7-0.5
			c-0.7-0.7-1.5-1.1-2.4-1c-1-0.3-2-0.3-3,0.1c-0.8-0.1-1.5,0.2-2,0.8c-0.9,0.3-1.7,0.9-2.2,1.5h-0.2l-0.1,0.2
			c-1.2,0.8-2.1,1.7-2.9,2.9C60.9,86.1,60.4,87,60,88c-0.3,0.5-0.6,0.9-0.9,1.4c-0.4,0.3-0.7,0.7-0.7,1.3c-0.3,0.6-0.7,1.2-1,1.8
			c-0.2,0.1-0.2,0.2-0.1,0.3c-2.6,4.9-4.3,10.1-5.8,15.5c-0.2,0.7-0.4,1.4-0.6,2c-0.4,0.9-1,1.2-1.9,1c-0.8-0.2-1.2-0.8-1.1-1.6
			c0-0.4,0.1-0.9,0.2-1.3c1.9-7,4.2-13.9,7.9-20.3c1.9-3.3,4.2-6.2,7.3-8.6c6.2-4.6,13-3.4,17.2,3c1.8,2.7,2.8,5.8,3.6,9
			c0.2,0.8,0.3,1.6,0.5,2.3c0.5,2,0.5,2.1,2.5,2c1.2,0,2.2,0,3.4,0.3c0.9,0.2,1.4-0.1,1.6-1c0.1-0.7,0.3-1.4,0.4-2
			c0.6-3.3,1.6-6.4,3.1-9.5c3.7-7,10.8-8.9,17.5-4.7c2.8,1.9,5.1,4.3,6.9,7c3.9,5.9,6.2,12.5,8.1,19.3c0.3,1,0.5,2,0.8,3
			c0.4,1.7,0,2.6-1,2.8c-1.4,0.2-1.8-0.8-2-1.9c-0.4-1.4-0.8-2.7-1.1-4.1c-1.5-5.3-3.3-10.3-6-15.1c-1.7-2.9-3.6-5.6-6.2-7.7
			c-1.2-1-2.4-1.7-3.9-2c-3.2-1-6-0.3-8.4,2.2c-1.6,1.8-2.4,3.8-3.2,5.9c-0.9,2.4-1.4,5.1-1.8,7.7c-0.2,1.4,0.1,2.2,1.2,3.2
			c4.6,4.3,6.8,9.8,8.5,15.8c0.5,1.6,0.1,1.9-1.5,1.8c-4.2-0.5-8.4-0.9-12.6-1.1c-5.7-0.2-11.4,0.1-17.1,0.7c-3,0.3-3.2,0.1-2.2-2.8
			c1.9-5.9,4.5-11.6,9.6-15.6c0.5-0.4,0.9-0.9,0.7-1.6c-0.9-4.5-1.7-9-4.5-12.8v-0.2L77.2,83.4z"/>
		<path class="st1" d="M79.8,118.8c1.3,0,2.6,0,3.9,0c1.4,0,1.6,0.3,1.1,1.7c-1.3,3.3-2.9,6.3-5.1,9.2c-7.3,9.6-17.3,14.3-28.9,16.3
			c-3.8,0.6-7.6,0.9-11.5,0.2c-5.7-1.1-7-4.2-4-9c1.8-2.7,4.1-4.8,6.6-6.6c6.8-4.9,14.5-7.6,22.6-9.6
			C69.6,119.8,74.7,119.3,79.8,118.8z"/>
		<path class="st1" d="M94,118.7c7,0.8,14,1.2,20.8,3.1c7.3,2.1,14,5.5,19.8,10.4c1.9,1.6,3.5,3.4,4.7,5.7c1.9,3.9,0.6,6.9-3.6,8
			c-1,0.3-2,0.5-3.1,0.4c-11.9-0.2-22.8-3.2-32.3-10.7c-4.9-3.9-8.4-9-10.6-14.7c-0.8-2-0.6-2.2,1.6-2.2C92,118.7,93,118.7,94,118.7
			z"/>
		<path class="st1" d="M60.1,87.9c0.4-1,0.9-1.9,1.8-2.4C61.8,86.6,61.4,87.6,60.1,87.9z"/>
		<path class="st1" d="M72.3,80c1-0.1,1.9,0.3,2.4,1C73.9,81,72.9,80.9,72.3,80z"/>
		<path class="st1" d="M67.4,80.9c0.6-0.5,1.3-0.9,2-0.8C68.9,81,68.2,81.1,67.4,80.9z"/>
		<path class="st1" d="M58.6,90.5c0-0.6,0.3-1,0.7-1.3C59.4,89.8,59.2,90.3,58.6,90.5z"/>
		<path class="st1" d="M75.4,81.5c0.4,0,0.6,0.3,0.7,0.6C75.7,82,75.5,81.8,75.4,81.5z"/>
		<path class="st1" d="M64.7,82.5l0.1-0.2H65C65,82.5,64.9,82.5,64.7,82.5z"/>
		<path class="st1" d="M57.5,92.6c-0.1-0.1,0-0.3,0.1-0.3C57.6,92.4,57.6,92.5,57.5,92.6z"/>
		<path class="st1" d="M77.2,83.4l0.2,0.1v0.2C77.3,83.6,77.2,83.5,77.2,83.4z"/>
	</g>
	<g id="ESCARABAJO">
		<path class="st1" d="M212.5,233.3c0-12.1,0-24,0-36.2c0-3.4,0.9-6.2,3-8.7c3.8-4.9,7.7-10.2,11.3-15.3c1.5-2.1,3.2-3.2,6-3
			c5.5,0.2,11.1,0,16.8,0.2c4.3,0,4.5,0.4,4.5,4.3c0,20.4,0.4,40.8-0.2,61.5c-0.6,15.7-8.7,27.4-22.6,35.1c-4,2.1-8.5,3.8-13.2,4.5
			c-4.7,0.6-5.3,0.2-5.3-4.7c0-7.9,0-16,0-23.8C212.5,242.5,212.5,238,212.5,233.3L212.5,233.3z"/>
		<path class="st1" d="M210,233.5c0,11.9,0,23.8,0,35.7c0,0.9,0,1.5,0,2.3c-0.2,4-0.6,4.5-4.5,4c-6-0.6-11.5-2.6-16.4-5.7
			c-13-8.3-20.2-20-20.4-35.5c-0.2-19.8-0.2-39.8-0.2-59.6c0-4,0.4-4.3,4.5-4.5c6,0,11.7,0,17.7,0c1.9,0,3.4,0.6,4.7,2.3
			c4.5,6.2,8.9,12.1,13.4,18.1c1.5,1.9,1.5,4.3,1.5,6.4C210,209.3,210,221.4,210,233.5L210,233.5z"/>
		<path class="st1" d="M211,167.8c-12.1,0-24,0-36.2,0c-1.3,0-2.3,0-3.6,0c-2.1,0-3-1.1-2.8-3.2c0.6-13.2,4.7-25.1,14.9-34.3
			c4-3.6,9.1-6,14.3-7.2c8.5-2.1,17.2-2.1,26-0.2c11.3,2.6,19.4,9.4,24.5,19.6c3.2,6.4,5.1,13.2,5.3,20.4c0.2,4.7,0,4.9-4.5,4.9
			c-10.2,0-20.4,0-30.6,0C215.9,167.8,213.6,167.8,211,167.8L211,167.8z"/>
		<path class="st1" d="M292.9,300.1c-2.8-7.9-8.5-12.8-14.5-17.7c-1.9-1.7-3.6-3.6-5.5-5.1c-1.1-0.9-2.1-1.7-1.3-3.4
			c0.2-0.2,0.2-0.6,0-0.9c-3.2-3-1.7-6.8-1.9-10.2c-0.2-6-0.2-11.7-0.2-17.7c0-2.3-0.6-3.4-3.4-3.6c-3.6-0.4-6.2-3.4-8.9-5.7
			c-0.2-0.2-0.4-0.9-0.4-1.3c0-2.8-0.4-5.7,0.4-8.7c3,0.4,4.7,2.6,6.6,4c3.2,2.3,7.4,3.8,7.2,8.9c0,0.9,0.9,1.3,1.5,1.5
			c2.6,0.6,3,2.8,2.8,4.9c-0.2,8.3,0.9,16.8-0.6,25.1c-0.2,1.1,0.4,1.5,1.3,2.1c6.2,3.8,10.9,9.6,16.4,14c0.9,0.6,1.5,1.7,1.5,2.8
			C294,292.9,294.2,296.5,292.9,300.1z"/>
		<path class="st1" d="M224.2,171.8c-0.2,0.4-0.2,0.9-0.6,1.1c-3.6,4.9-7.2,9.8-10.6,14.5c-1.3,1.7-2.3,1.5-3.6-0.2
			c-3.4-4.7-7-9.4-10.4-14.3c-1.5-2.1-1.1-3,1.7-3c7,0,14.3,0,21.3,0C222.9,170.3,224,170.3,224.2,171.8z"/>
		<path class="st1" d="M144.4,123.7c-4.7-0.2-4.7-0.2-8.1-4c-2.3-2.8-4.9-5.3-7.4-7.9c-2.1-2.1-2.6-2.1-4.3,0.6
			c-0.4,0.9-0.9,1.9-1.7,2.6c-2.1-4.5-1.1-11.1,1.9-13.4c1.1-0.9,2.1-1.1,3.2,0c5.3,6,10.6,11.9,16.2,17.7
			C145.7,121,144,122.3,144.4,123.7L144.4,123.7z"/>
		<path class="st1" d="M300.2,115.9c-0.9-0.4-1.1-0.4-1.1-0.4c-3.6-6.2-3.6-6.2-8.3-1.1c-1.9,2.1-3.8,4.3-5.7,6.4
			c-0.6,0.9-1.5,1.5-2.3,2.1c-1.9,1.5-3.6,0.4-4.9-0.6c-1.5-1.3,0-2.6,0.9-3.4c4.9-5.5,9.8-11.1,14.7-16.4c1.9-2.1,2.8-1.9,4.7,0
			c1.5,1.3,1.9,3,1.9,4.9C300.4,109.9,300.2,112.7,300.2,115.9z"/>
		<path class="st1" d="M144.2,123.7c2.1,0.6,3.4,1.7,3.8,4.3c1.3,8.3,2.8,16.6,4.3,24.9c0.2,1.1,0.2,2.1,0.2,3.2
			c0,1.5-0.9,2.3-2.1,2.6c-1.5,0.2-2.8-0.4-3.2-1.7c-0.2-0.6-0.4-1.5-0.4-2.1c-1.3-8.1-2.6-16-4.3-24
			C141.7,127.6,143.4,125.9,144.2,123.7C144.4,123.7,144.2,123.7,144.2,123.7z"/>
		<path class="st1" d="M287.4,216.9c-0.2,1.9-1.1,3.4-2.3,4.5c-0.9,0.9-1.7-0.2-2.1-0.9c-1.9-2.6-3.6-5.1-5.3-7.9
			c-2.1-3.2-4.3-6.6-6.4-9.6c-0.6-0.9-1.1-1.7-1.5-2.8c-0.6-1.5-0.2-3,1.3-3.8c1.5-0.9,3-0.4,3.8,1.1c2.3,3.4,4.7,7,7,10.4
			c1.5,2.3,3.2,4.7,4.7,7.2C286.8,215.9,287.2,216.5,287.4,216.9z"/>
		<path class="st1" d="M280,130.1c-1.5,7.9-3,16.6-4.5,25.3c-0.4,1.9-1.3,3.2-3.4,2.8c-2.1-0.4-2.6-1.9-2.3-3.8c0.4-3,1.1-6,1.5-8.9
			c1.1-5.7,1.9-11.5,3-17.2c0.2-1.5-0.2-3.6,2.3-3.6C279.1,125,280.2,126.7,280,130.1z"/>
		<path class="st1" d="M113.4,233.3c-0.4-4.7-0.2-8.9-0.2-13c0-1.5,1.1-2.1,2.3-2.1c4.9,0,9.8-0.2,14.9,0c1.7,0,3.8,2.8,3.6,4.5
			c0,1.3-1.1,1.3-1.9,1.3c-3.2,0-6.4,0.2-9.4,0s-5.1,0.6-6.2,3.8C116.1,229.5,115.5,231.4,113.4,233.3z"/>
		<path class="st1" d="M138.1,221.8c-1.9,0-3.4-3.8-2.6-5.7c0.6-1.3,1.5-2.6,2.3-3.8c2.8-4.3,5.5-8.5,8.5-12.8
			c0.6-0.9,1.3-1.7,1.9-2.6c0.9-1.1,2.1-1.3,3.2-0.6c1.5,0.9,1.7,2.1,1.1,3.4c-0.2,0.6-0.6,1.5-1.1,2.1c-3.8,6-7.9,12.1-11.7,18.1
			C139.1,221,138.7,221.6,138.1,221.8z"/>
		<path class="st1" d="M152.5,256.7c0,3.8,0,7.4,0,11.3c0,1.3,0.2,3-1.5,3.2c-1.5,0.4-3.6-1.3-4-2.8c-0.2-0.6-0.2-1.5-0.2-2.3
			c0-6.8,0-13.8,0.2-20.6c0-0.9,0-1.5,0.2-2.3c0.4-1.5,1.5-2.1,3-2.1c1.3,0,2.3,0.9,2.3,2.1c0.2,2.3,0.2,4.5,0.2,6.8
			C152.7,252,152.7,254.4,152.5,256.7C152.7,256.7,152.7,256.7,152.5,256.7z"/>
		<path class="st1" d="M129.1,298c-0.6-5.1-1.5-10,3.8-14c3.8-2.8,7.2-6.4,10.6-9.8c1.5-1.5,3-1.9,4.9-1.1c2.3,0.9,2.8,2.1,0.9,3.8
			c-3.2,3-6.2,6.2-9.8,8.7c-3.6,2.8-6.4,6-8.1,10c-0.4,0.9-0.9,1.5-1.3,2.3C129.8,298.2,129.3,298.2,129.1,298z"/>
		<path class="st1" d="M308.5,232.2c-1.7-1.5-2.3-3.4-2.8-4.9c-0.9-2.3-2.6-3.4-5.1-3.4c-3.4,0.2-6.8,0-10.4,0
			c-1.9,0-2.3-0.9-1.5-2.6c0.9-1.9,1.9-3.4,4.3-3.2c4.3,0,8.3,0,12.6,0c1.5,0,3.2,0.2,3.4,2.3C308.9,224.2,309.3,228,308.5,232.2z"
			/>
		<path class="st1" d="M202.5,112.5c0.2,3.2-2.6,6-6,6.2c-3,0.2-5.7-2.6-6-5.5c-0.2-3.2,2.6-6,6-6.2
			C199.8,106.9,202.3,109.3,202.5,112.5z"/>
		<path class="st1" d="M225.9,106.9c3.2,0,5.7,2.6,5.5,5.7c0,3.4-2.6,6-6.2,5.7c-3,0-5.7-2.8-5.7-5.7
			C219.8,109.5,222.7,106.9,225.9,106.9z"/>
		<path class="st1" d="M262.3,190.1c0.2,0,1.5,0,2.6,0.2c2.3,0.4,3.6,1.7,3.6,3.8c0.2,2.3-1.1,4.3-3.4,4.7c-2.1,0.4-4.3,0.2-6.4,0.2
			c-1.7,0-2.3-1.1-2.3-2.6c0-0.4,0-0.9,0-1.3C256.1,190.1,256.3,189.9,262.3,190.1z"/>
		<path class="st1" d="M165.9,230.5c-0.2,1.9,0.4,4.3-1.3,5.7c-2.3,2.1-4.7,4.3-7.7,5.1c-1.9,0.6-3.6,0-4.5-1.9
			c-1.1-1.9-0.6-4.9,1.3-6c3.2-1.9,6-4.5,9.1-6.4c1.9-1.3,2.8-0.9,3,1.3C165.9,229.1,165.9,229.9,165.9,230.5z"/>
		<path class="st1" d="M160.4,157.4c0.2,0,0.6,0,0.9,0c5.3,0,5.5,0.4,4.7,5.7c-0.2,1.9-1.1,3-3,3c-2.1,0-4.3,0.2-6.2,0
			c-3-0.2-4.5-2.1-4.3-4.7c0.2-2.3,1.5-3.6,4.5-3.8C158.1,157.4,159.3,157.4,160.4,157.4L160.4,157.4z"/>
		<path class="st1" d="M262.5,157.4c1.1,0,2.1,0,3.2,0c2.3,0.2,4,1.7,4.3,3.8c0.2,2.1-0.9,3.6-3.2,4.3c-2.8,0.9-5.5,0.4-8.5,0.4
			c-1.1,0-1.5-0.9-1.7-1.7c-0.2-0.6-0.2-1.5-0.4-2.1c-0.4-4.3-0.2-4.5,4.3-4.7C261,157.4,261.9,157.4,262.5,157.4L262.5,157.4z"/>
		<path class="st1" d="M159.3,198.8c-0.2,0-1.3,0-2.3-0.2c-1.9-0.4-3-1.7-3.2-3.8c0-2.1,0.9-3.4,2.8-4c2.1-0.6,4.3-0.4,6.2-0.2
			c2.8,0.2,2.8,2.3,2.8,4.3c0,3.2-0.4,3.8-2.8,4.3C161.9,198.8,161,198.8,159.3,198.8z"/>
	</g>
</g>
<g id="Icono_Ratas">
</g>
</svg>
