<?xml version="1.0" encoding="utf-8"?>
<!-- Generator: Adobe Illustrator 25.4.1, SVG Export Plug-In . SVG Version: 6.00 Build 0)  -->
<svg version="1.1" xmlns="http://www.w3.org/2000/svg" xmlns:xlink="http://www.w3.org/1999/xlink" x="0px" y="0px"
	 viewBox="0 0 364 364" style="enable-background:new 0 0 364 364;" xml:space="preserve">
<style type="text/css">
	.st0{fill:#DB6348;}
	.st1{fill:#344E41;}
	.st2{fill:#FFFFFF;}
</style>
<g id="Boton">
</g>
<g id="Texto_boton">
</g>
<g id="Icono_sanitización">
</g>
<g id="Icono_Desinfección">
</g>
<g id="Icono_desinsectación">
	<g>
		<g>
			<path class="st0" d="M227.5,68.1c3.2,0,3.2-5.1,0-5.1C224.1,62.9,224.1,68.1,227.5,68.1L227.5,68.1z"/>
		</g>
	</g>
	<rect id="BARATA_COLOR" x="-1.6" y="0" class="st1" width="366" height="366"/>
	<path class="st2" d="M258.6,270.4c-12.1,0-23.7,0-35.3,0c-46.8,0.1-93.5,0.2-140.3,0.1c-21.7,0-40.6-13.8-48.7-35.1
		c-7.6-19.9-2.4-42.9,13.1-57.2c17.7-16.5,46.6-15.2,62.6,2.9c16.6,18.7,6.1,49.8-18.6,57.6c-2.8,0.9-7.1-0.2-9.7-1.9
		c-4.7-3.2-3.5-9.3,1.8-11.5c0.7-0.3,1.5-0.4,2.2-0.6c11.5-3.4,16.8-9.8,16.6-19.9c-0.2-10-7.8-19-18.1-21.6
		c-16.8-4.2-33,6.7-36.5,24.5c-4.7,24,11.9,45.9,36.4,47.6c7.3,0.5,14.7,0.1,21.9,0.1c3-9.5,5.2-18.9,8.8-27.7
		c14.3-35.6,40-59.7,75.6-73.4c4.9-1.9,8.9-2.2,13.1,2.1c3.2,3.3,7.8,5.2,11.8,7.8c0.4-0.5,0.8-0.9,1.2-1.4c-1.7-1.9-3.3-3.8-5-5.7
		c-6.3-7.3-11.3-15.4-12.5-25.1c-1.3-11.2,2.8-20.3,12.2-26.5c10.4-6.9,21.5-6.8,31.8-0.4c5.6,3.5,10.2,3.8,16.2,1.3
		c18-7.3,36.9-8.6,56-6.7c6.3,0.6,13.5,1.8,16.1,8.6c2.8,7.4-1.6,13.5-6.8,18.6c-22.9,22.1-41,47.5-52.6,77.3
		c-7.4,19.1-12,38.8-12.7,59.3C259.1,265.3,258.8,267.2,258.6,270.4z M283.6,113c-0.8,0-1.6-0.1-2.4-0.1c-1.4,2.1-3.9,4.2-3.9,6.3
		c0,1.8,2.9,3.7,4.5,5.5c1.9-1.7,5-3.3,5.3-5.2C287.4,117.6,284.8,115.2,283.6,113z"/>
</g>
<g id="Icono_Ratas">
</g>
</svg>
