<?xml version="1.0" encoding="utf-8"?>
<!-- Generator: Adobe Illustrator 25.4.1, SVG Export Plug-In . SVG Version: 6.00 Build 0)  -->
<svg version="1.1" xmlns="http://www.w3.org/2000/svg" xmlns:xlink="http://www.w3.org/1999/xlink" x="0px" y="0px"
	 viewBox="0 0 364 364" style="enable-background:new 0 0 364 364;" xml:space="preserve">
<style type="text/css">
	.st0{fill:#344E41;}
	.st1{fill:#FFFFFF;}
</style>
<g id="Boton">
</g>
<g id="Texto_boton">
</g>
<g id="Icono_sanitización">
</g>
<g id="Icono_Desinfección">
</g>
<g id="Icono_desinsectación">
	
		<rect id="MOSCA_COLOR_00000181790452875301928900000000886302635131043491_" x="-0.1" y="-0.7" class="st0" width="364.7" height="364.7"/>
	<g>
		<path class="st1" d="M286,157c7.1,2,13.4,4,19.8,5.6c10.5,2.8,14.5,7.5,15.4,18.5c1.6,20.2-2.7,39.4-10.1,58
			c-3.6,9-8.1,17.7-12.7,26.2c-2.8,5.3-7.1,9.8-13.5,10.4c-3.3,0.3-6.9-0.9-10.2-1.7c-5.9-1.4-11.8-3.1-17.7-4.6
			c-0.8-0.2-1.7-0.3-2.5-0.2c-7.1,1.6-12.1-0.8-14.9-7.5c-0.8-1.9-1.4-4-2.1-6.2c-3.8,4.2-7.3,8.4-11.2,12.2
			c-3.8,3.7-7.8,7.3-12.2,10.4c-1.9,1.4-4.9,1.7-7.4,1.8c-8.7,0.2-17.3,0.4-26,0c-3.1-0.2-6.5-1.7-9-3.7
			c-7.9-6.2-15.3-12.9-22.9-19.3c-0.8,1.9-1.6,4.6-3,6.9c-3,5.5-7.9,7.3-13.8,5.7c-1-0.3-2.1-0.3-3.1,0c-7.7,2.1-15.4,4.5-23.1,6.5
			c-5,1.3-9.4-1-12.8-4.4c-2.8-2.9-5.3-6.2-7.2-9.8c-9.5-17.6-16.8-36.1-19.6-56c-1.4-9.7-2.6-19.5-0.5-29.4
			c1.4-6.5,5.3-10.7,11.5-12.6c7.8-2.4,15.6-4.5,22.7-6.6c-1.5-3.1-4.2-6.4-4.6-10c-0.8-7-0.8-14.1-0.4-21.1
			c0.4-7.6,5-12.7,11.3-16.6c8.8-5.4,18.6-8.4,28.6-9.9c14.9-2.2,29.9-3.6,44.9-5.4c1.7-0.2,3.3-0.7,4.8-1.4
			c5.2-2.4,10.3-2.4,15.5-0.3c1.4,0.6,3,0.9,4.6,1c24,0.7,47.6,3.7,70.1,12.5c3.4,1.3,6.6,3.1,9.5,5.2c5.3,3.7,8.4,8.5,7.9,15.5
			c-0.3,4.3,0.1,8.8,0.5,13.1C293.4,146.5,292.3,152.5,286,157z M226.8,221.7c1.4-0.5,3-1.2,4.6-1.7c5.4-1.7,9.1-4.7,9.2-10.9
			c0-1.8,0.7-3.6,1.2-5.3c4.1-15.3,9.3-30,19.4-42.6c0.5-0.6,0.4-2.4-0.1-3c-2.9-3.4-5.9-6.8-9.3-9.7c-4.6-3.9-10.1-6.7-14.2-11
			c-7.5-7.7-14.4-16.1-21.5-24.1c-4.3-4.9-8.3-10.2-13-14.6c-6.2-5.7-13.8-5.9-20.1-0.4c-4.3,3.8-7.5,8.7-11.1,13.2
			c-4.2,5.2-7.8,11.1-12.7,15.6c-6.6,6.1-14.2,11-21.2,16.6c-5,4-9.8,8.3-12.6,14.3c-0.4,0.9-0.6,2.7,0,3.4
			c11.5,14.5,17.2,31.4,20.7,49.2c1.1,5.6,3.7,8.2,8.5,9.7c1.4,0.4,2.8,0.8,4.4,1.3c0.6-1.5,1-2.8,1.5-4.1
			c4.1-11.3,8.6-22.4,15.8-32.1c1.7-2.2,4.3-4.5,6.9-5.2c4.3-1.2,9.1-1.9,13.6-1.6c7.2,0.5,12.9,3.4,15.9,10.9
			C216.9,200.3,221.9,210.7,226.8,221.7z M134,219c-2.8-14.9-6.6-29.1-13.5-42.3c-2.8-5.3-6.4-10.1-10.1-14.8
			c-1.1-1.4-3.9-2.7-5.6-2.4c-7.3,1.4-14.6,3.5-21.3,5.1c3.3,4.5,6.6,8.6,9.3,13c6.6,11,10.5,23.1,14.3,35.3
			c0.4,1.2,1.5,2.8,2.6,3.1C117.6,218.3,125.5,219.6,134,219z M252.3,219c9,0.3,17.2-0.7,25-3.8c1-0.4,1.7-1.8,2.1-2.9
			c2.2-6.2,4-12.6,6.5-18.8c4.2-10.4,8.7-20.7,17.7-28.5c-5.9-1.6-11.7-3.1-17.4-4.9c-5.8-1.8-9.7,0-13.2,4.8
			C261.4,180.9,256.6,199.4,252.3,219z M226.2,250.2c2.7-8,2.4-15.3-1.3-22.4c-0.9-1.8-1.4-3.8-2.1-5.7c-4.3-10.8-8.7-21.6-13-32.4
			c-2.3-5.7-7-8.1-12.6-8.4c-4.4-0.2-9,0.2-13.2,1.3c-2.4,0.6-5.1,2.7-6.4,4.9c-8.2,14.3-14.9,29.3-18.5,45.5
			c-0.5,2.1-0.8,4.6-0.3,6.6c1.2,5.4,2.9,10.6,4.4,15.9c-2.2-15.7,8.9-24.6,21.2-26.9c5-0.9,10.2-1.5,15.3-1.1
			c11.7,1.1,21.1,6,25.3,18C225.4,247,225.7,248.5,226.2,250.2z M284.5,132.6c5.5-4.3,6.5-10.4,1.6-15c-3.6-3.4-7.9-6.4-12.4-8.3
			c-18.8-7.8-38.6-10.6-58.8-11.8c-2.3-0.1-4.5,0-7,0c4.7,5.9,9.1,11.5,13.6,16.9c0.7,0.9,2,1.6,3.1,1.7c9.8,1.6,19.7,2.7,29.4,4.6
			C264.8,122.8,275.2,126.2,284.5,132.6z M103.3,132.9c1.8-1.2,3.4-2.7,5.3-3.5c6.8-2.8,13.5-6.2,20.6-7.9
			c10.1-2.4,20.6-3.6,30.9-5.4c2-0.3,4.5-0.7,5.6-2.1c4.2-5.5,7.9-11.3,11.8-17c-5.2,0.6-10.7,1-16.2,1.9
			c-12.9,2.2-25.9,4.3-38.7,7.1c-7.8,1.7-14.8,5.5-20.4,11.6C97.2,123.2,97.6,128.5,103.3,132.9z M252.2,221.2
			c-0.2,1.2-0.7,3-0.7,4.8c-0.4,10.1-1,20.3-0.8,30.4c0,2.6,1.7,6.6,3.7,7.6c6.7,3.1,13.9,5.1,21.4,7.7c-5.2-19-2.5-36.7,2.1-53.9
			C269.4,218.9,261,220.1,252.2,221.2z M110.7,271.7c6.7-2.2,12.6-4.2,18.6-6c4.8-1.4,6.8-5,6.7-9.4c-0.2-11.1-0.8-22.2-1.4-33.3
			c0-0.7-1.4-1.7-2.3-1.8c-7.8-0.9-15.6-1.6-23.5-2.4C113.3,235.5,116.2,253,110.7,271.7z M279.6,155.9c-3.2-1.3-6.5-0.6-9.6,1.3
			c-4.7,2.8-7.7,7-10.4,11.6c-14.5,24.6-20.1,51.4-19.2,79.6c0.2,4.9,0.8,9.8,3.7,14.1c1.8,2.6,4,4.5,7.8,4.7
			c-4.6-4.5-5.2-10-5.3-15.7c-0.4-19.5,2.5-38.6,8.6-57.1c3.9-11.8,8.6-23.3,17.2-32.6C274.4,159.5,277.1,157.9,279.6,155.9z
			 M106.8,156.1c2.4,1.7,5,3.1,6.8,5.1c3.2,3.8,6.4,7.8,8.7,12.2c13.2,25.2,18.2,52.3,17.5,80.6c-0.1,4.8-1.2,9.3-4.6,13.3
			c1.9-0.6,3.8-1.3,5.2-2.6c3.6-3.2,5.1-7.6,5.1-12.1c0.1-10,0.4-20.1-0.7-30.1c-2.2-19.9-8.3-38.6-19.1-55.7
			c-2.7-4.3-5.8-8.2-10.6-10.4C112.3,155.3,109.5,154.7,106.8,156.1z M275.6,253.1c0.6,3.7,1.2,9.2,2.5,14.6c1.5,6,5.8,7.6,10.5,3.6
			c3.3-2.7,6.4-6.2,8.5-9.9c7.7-13.7,13.7-28.3,17.5-43.6c3-12.3,4.8-24.8,3.4-37.5c-0.6-5.4-2.7-9.8-7.4-12.8
			c-1.9-1.3-3.7-1.4-5.2,0.2c-3.2,3.7-6.6,7.3-9.1,11.5c-8,13.2-12.2,28-16.3,42.7C277.3,231.4,275.8,241.2,275.6,253.1z
			 M67.6,190.9c1,7.1,1.8,15.4,3.5,23.5c3.6,17.3,10.3,33.5,19.2,48.7c2.1,3.5,5.4,6.7,8.8,9c4,2.8,7.5,1.2,8.8-3.5
			c1.1-3.8,1.9-7.7,2.3-11.6c1.3-12.8-0.9-25.2-4.4-37.4c-4.3-15-8.7-30-17.4-43.3c-2.1-3.2-4.8-5.9-7.5-8.7
			c-1.5-1.6-3.2-1.5-5.2-0.2c-3.5,2.3-5.9,5.3-6.6,9.4C68.5,181.1,68.2,185.4,67.6,190.9z M281.7,134.6c-17.5-9.7-35.8-13-54.8-13.6
			c2.5,3.4,5,6.7,8,9.4c4,3.7,8.6,6.7,12.6,10.4c3.9,3.6,7.9,3.9,12.7,2.4C267.3,140.9,274.4,138.7,281.7,134.6z M106,134.9
			c5,3.8,18.9,8.9,25.2,9.3c0.6,0,1.4-0.4,1.9-0.8c6.4-5,12.9-9.9,19.2-15.1c3.2-2.6,6.1-5.5,9.6-8.7
			C145.9,118.5,113.8,127.4,106,134.9z M193.5,271.8c8.6,0,15.5-1.9,21.7-6c3.7-2.4,6.5-5.5,7.7-9.9c2-7.4-1.4-15.5-8.9-20.8
			c-10.8-7.5-31.3-6.7-41.5,1.6c-8.3,6.8-9.2,18.3-1.9,26.1C176.8,269.7,184.8,271.8,193.5,271.8z M148.4,219.1
			c0.5,9.8,0.9,19.8,1.4,29.8c0,0.5,0.1,1.1,0.4,1.4c3.8,4.3,7.6,8.6,11.4,12.8c-0.9-5.6-2.5-10.8-4-15.9
			c-1.7-5.5-3.1-10.9-1.1-16.6c0.8-2.4,1.3-4.9,1.8-7C154.7,222,151.3,220.4,148.4,219.1z M228.1,259.9c4-4.7,10.1-8.2,8.7-15.9
			c-0.4-1.9,0-4.1,0.1-6.1c0.5-6.4,1.2-12.9,1.8-19.3c-3.9,1.6-7.8,3.1-11.7,4.7c1,2.6,1.8,5.2,2.9,7.8c1.9,4.2,2.1,8.4,1.2,12.8
			C230,249.2,229,254.6,228.1,259.9z M98,134c0.2,4.7,0,10.2,1,15.4c0.3,1.7,3.5,4,5.5,4.1c2.8,0.3,5.8-1.2,9.1-2
			c1.2-2,2.8-4.5,4-6.6C111,141.3,104.5,137.6,98,134z M289.1,134.4c-6.4,3.4-12.7,6.8-18.9,10.1c0.8,1.8,1.7,4,2.8,6.1
			c0.4,0.7,1.2,1.4,1.9,1.6c3,0.7,6,1.2,9.5,1.9C290.7,148.9,288.9,141.2,289.1,134.4z M164.3,259c0.9,2.3,1.5,4.7,2.8,6.7
			c3.3,5.3,7.6,9.7,14.2,10.1c7.9,0.5,15.8,0.5,23.7,0.3c2.9-0.1,6.1-0.6,8.5-2.1c3.1-1.9,5.7-4.8,8.3-7.4c1-1,1.3-2.7,2-4
			C209.6,278,175.4,280.5,164.3,259z M257.5,147.8c2.7,3.2,5.2,6.3,7.7,9.3c2.2-1.5,4.4-2.9,6.8-4.6c-1.3-2.7-2.5-5.4-3.7-7.9
			C264.4,145.7,261,146.7,257.5,147.8z M114.8,152.7c2.9,2,5.2,3.6,7.2,5c2.3-3.6,4.4-7,6.6-10.5c-3-0.7-6.4-2.5-8.6-1.6
			C117.7,146.5,116.5,150.2,114.8,152.7z"/>
		<path class="st1" d="M195.2,166.4c-4.4,0-7.9-1.7-9.5-5.8c-2.7-7-4.9-14.1-7.2-21.2c-1-3.1-1.9-6.3-2.8-9.5
			c-0.9-3-0.5-5.9,1.5-8.2c3.7-4.2,7.6-8.4,11.7-12.2c3-2.7,7.9-2.7,11,0.1c4.1,3.7,8,7.7,11.5,12c2.7,3.3,1.9,7.6,1,11.4
			c-2.1,8.6-4.3,17.2-6.5,25.8C204.4,164.3,201.3,166.4,195.2,166.4z M195.9,163.6c2.6-0.2,5.9-0.6,6.8-4.3
			c2.6-10.3,5.2-20.7,7.5-31.1c0.3-1.5,0-3.7-1-4.8c-3.2-3.9-6.5-7.6-10.2-11c-2.9-2.7-6.3-2.7-9-0.2c-3.7,3.5-7.2,7.2-10.4,11.2
			c-1.1,1.4-1.6,4-1.1,5.7c3,10.1,6.3,20.2,9.7,30.2C189.3,162.4,192,163.8,195.9,163.6z"/>
		<path class="st1" d="M214.8,172.8c0.2-1.3,0.5-3.4,1-5.3c2.1-8.3,4.3-16.6,6.5-24.8c0.3-1.2,0.8-2.5,1.3-3.6
			c2.5-5.8,5.8-6.6,10.5-2.5c4,3.5,8.2,6.9,12.1,10.5c4.5,4.3,4.5,6.7,0.2,11.4c-7,7.8-15.3,14-24.2,19.4
			C217.7,180.7,214.8,178.9,214.8,172.8z M217.4,173.1c0.3,0.6,0.6,1.9,1.3,2.2c0.9,0.4,2.4,0.3,3.1-0.3c8-6.7,16-13.4,23.9-20.2
			c1.4-1.2,1.3-2.8-0.3-4.1c-4.5-3.9-9-7.8-13.6-11.7c-2.8-2.3-4-2-5.5,1.3c-0.6,1.2-1,2.6-1.4,3.9c-2,7.2-4,14.4-5.9,21.6
			C218.4,168,218,170.3,217.4,173.1z"/>
		<path class="st1" d="M173.3,173.4c0,5.5-3.1,7.6-7.3,4.9c-9.7-6.2-18.5-13.4-26.2-22c-2.2-2.5-1.7-5.3,0.4-7.2
			c5.4-5,11.1-9.8,16.8-14.4c2-1.6,4.2-0.9,5.5,1.2c1.4,2.2,2.8,4.6,3.4,7.2c2.5,9.3,4.7,18.6,7,28
			C173.2,171.9,173.2,172.9,173.3,173.4z M170.6,172.9c-0.1-0.4-0.1-1.1-0.3-1.7c-2.6-9.7-5.1-19.4-7.7-29.1
			c-0.3-1.1-0.9-2.2-1.5-3.2c-0.9-1.5-2.2-2-3.7-0.7c-4.7,4-9.5,8-14.2,12c-2.3,1.9-1.8,3.8,0.2,5.7c1.9,1.8,3.7,3.9,5.8,5.6
			c5.8,4.7,11.7,9.3,17.7,13.7C169.1,176.8,170.6,175.7,170.6,172.9z"/>
		<path class="st1" d="M215.9,224.3c-15.7-4.8-30.6-4.6-46.1,1.4c2.4-6.5,4.6-12.2,6.8-17.9c1.9-4.9,3.7-9.8,5.8-14.6
			c0.6-1.3,2.2-2.9,3.5-3c4.7-0.5,9.5-0.5,14.3-0.4c2.6,0.1,4.1,1.5,5,4.3c2.9,8.9,6.4,17.7,9.6,26.5
			C215.2,221.6,215.4,222.7,215.9,224.3z M213,221.6c-3.6-9.8-6.8-18.7-10.1-27.6c-0.3-0.8-1.7-1.8-2.6-1.8
			c-4.4-0.2-8.9-0.1-13.3-0.1c-1.9,0-2.7,1-3.3,2.8c-2.7,7.6-5.6,15.2-8.4,22.8c-0.5,1.2-0.9,2.5-1.5,4
			C186.9,217.7,199.6,217.3,213,221.6z"/>
		<path class="st1" d="M316.1,190.3c-0.6,21.2-6,41.1-15.6,60c-1.7,3.4-3.6,6.8-5.7,10.1c-2,3.1-4.4,6.1-8.7,5.4
			c-4.5-0.8-5.6-4.6-6.4-8.3c-1.5-6.8-0.7-13.6,0.4-20.4c3-18.5,8.6-36.1,16.9-53c0.9-1.9,2.1-3.7,3.4-5.4c2.8-3.7,6.2-5,9.4-3.9
			c3.5,1.2,6,4.7,6.3,8.9C316.2,185.8,316.1,188,316.1,190.3z M281.6,250.1c0.4,2.1,0.7,5.8,1.8,9.2c1.3,4,4.5,4.4,7.3,1.2
			c1.2-1.5,2.2-3.1,3.2-4.8c11.5-19.9,18-41.3,19.3-64.2c0.2-3.5-0.6-7.2-1.7-10.6c-1.2-3.8-4.7-4.5-7.6-1.7
			c-1.9,1.9-3.5,4.1-4.5,6.5c-3.1,6.9-6.2,13.9-8.7,21C285.9,220.3,282.6,234.2,281.6,250.1z"/>
		<path class="st1" d="M108,249.2c-0.5,3.4-0.8,6.8-1.6,10.1c-0.8,3.3-2.7,6-6.3,6.6c-3.4,0.5-5.9-1.5-7.4-4.2
			c-3.8-6.7-7.7-13.4-10.7-20.4c-7.7-17.8-12.2-36.5-11.5-56.1c0-1.3,0.2-2.6,0.5-3.8c0.8-3.3,2.7-5.9,6.1-6.8
			c3.5-0.9,6.5,0.6,8.5,3.3c2.2,3,4.1,6.2,5.7,9.6c8.5,18.4,14.2,37.6,16.3,57.8c0.1,1.3,0.2,2.6,0.2,3.8
			C107.8,249.2,107.9,249.2,108,249.2z M105,248.6c-0.2,0-0.4,0-0.5-0.1c0-1.5,0.2-3,0-4.5c-2.7-21.1-8.6-41.2-18.3-60.1
			c-0.9-1.8-2.2-3.5-3.7-4.8c-2.8-2.6-6.2-2-7.5,1.6c-1.1,3.2-1.9,6.7-1.8,10c0.7,14.9,3.4,29.6,9.2,43.4
			c3.6,8.7,8.2,17.1,12.7,25.5c0.8,1.4,3.2,3.1,4.4,2.9c1.5-0.3,3.2-2.5,3.7-4.1C104.3,255.3,104.5,251.9,105,248.6z"/>
		<path class="st1" d="M194.9,269.7c-6.3-0.2-13-0.9-19-4.7c-10.3-6.4-10.3-18,0.2-23.9c13.3-7.3,26.8-6.7,39.6,1.2
			c8.7,5.4,8.9,14.7,0.8,21.1c-4.5,3.6-9.9,5-15.4,5.7C199.2,269.4,197.4,269.5,194.9,269.7z M193,267.7c8.8-0.3,14.7-1.2,20-4.4
			c9.3-5.5,9.4-14.5,0.1-19.7c-12.2-6.8-24.5-6.7-36.7-0.1c-7.6,4.1-8.3,12.5-1.6,18C180.8,266.6,188.2,267.7,193,267.7z"/>
		<path class="st1" d="M193,266.8c-5.1,0-10.8-1.9-16-5.2c-6.2-3.9-6.6-10.6-1.3-15.7c4.3-4.1,10-5.2,15.6-5.9
			c7.7-0.9,14.9,0.5,21.5,4.7c6.7,4.3,7.1,10.7,1.2,15.9C209.2,264.8,203.9,266.5,193,266.8z M194.5,264.8c7-0.3,13.9-0.9,19.1-6.5
			c3.4-3.7,3.2-7.7-0.7-10.8c-8.6-7.1-26.1-7.5-35.1-1c-5.4,4-5.3,10.3,0.5,13.6C183.3,262.9,188.6,265.1,194.5,264.8z"/>
	</g>
</g>
<g id="Icono_Ratas">
</g>
</svg>
