<?xml version="1.0" encoding="utf-8"?>
<!-- Generator: Adobe Illustrator 25.4.1, SVG Export Plug-In . SVG Version: 6.00 Build 0)  -->
<svg version="1.1" xmlns="http://www.w3.org/2000/svg" xmlns:xlink="http://www.w3.org/1999/xlink" x="0px" y="0px"
	 viewBox="0 0 364 364" style="enable-background:new 0 0 364 364;" xml:space="preserve">
<style type="text/css">
	.st0{fill:#344E41;}
	.st1{fill:#FFFFFF;}
</style>
<g id="Boton">
</g>
<g id="Texto_boton">
</g>
<g id="Icono_sanitización">
</g>
<g id="Icono_Desinfección">
</g>
<g id="Icono_desinsectación">
	<rect id="MOSCA_COLOR" x="-2.1" y="-0.7" class="st0" width="365.7" height="365.7"/>
	<path class="st1" d="M122,156.1c20.9-8.8,39.5-16.9,58.4-24.2c3.2-1.2,8.1,0.8,11.8,2.2c39.2,14.7,78.4,29.5,117.6,44.4
		c21.4,8.2,26.7,17,20.7,33.1c-5.9,15.6-15.4,17.9-37.2,9.7c-53.6-20.2-107.2-40.1-160.8-60.2C129.7,160.1,127.1,158.6,122,156.1z"
		/>
	<path class="st1" d="M105,100.8c24.1,9.1,46.4,17.6,72.6,27.5c-22,9.2-40.1,18.6-59.3,24c-8.1,2.3-18.5-3.9-29.8-6.7
		C94.2,130,99.2,116.5,105,100.8z"/>
	<path class="st1" d="M62.5,212.8c6.9,14.9,12.5,26.6,17.8,38.5c4.5,10.1,4.2,21.1-5.5,26.3c-6.5,3.5-17.6,3.6-24.1,0.3
		c-10-5.1-10-16.4-5.9-26.3C49.7,239.6,55.5,228,62.5,212.8z"/>
	<path class="st1" d="M101.9,93c-7,18.3-13.5,36-20.7,53.3c-0.9,2.1-6.5,4-8.7,3.1c-2.2-0.9-4.6-6.2-3.8-8.4
		c6-17.3,12.6-34.4,19.6-51.2c0.9-2.2,5.8-3.8,8.7-3.6C98.8,86.4,100.2,90.6,101.9,93z"/>
</g>
<g id="Icono_Ratas">
</g>
</svg>
