<?xml version="1.0" encoding="utf-8"?>
<svg version="1.1" xmlns="http://www.w3.org/2000/svg" x="0px" y="0px"
	 viewBox="0 0 214.6 214.6" xml:space="preserve">
<rect fill="#3A5A40" width="214.6" height="214.6"/>
<path fill="#DAD7CD" d="M87.3,46.4c-0.6-3.5-0.6-3.5,2.8-4.3c1.2-0.3,2.5-0.6,3.7-1c3.2-1.1,2.8-1.3,4.1,1.5c6.9,0,13.8,0,20.8,0
	c0.2-2.8,2-2.4,4.1-1.5c1.3,0.5,2.6,0.7,3.9,1.1c3.1,0.8,3.1,0.9,2.5,4.2c0.7,0.4,1.4,0.9,2.2,1.3c9.1,5,14.4,12.8,16.8,22.7
	c0.4,1.6,0.9,2.3,2.5,1.8c2-0.5,2.8,0.4,2.8,2.3c0.1,2.1,0.1,4.2,0.3,6.3c0.1,1.5-0.4,2.4-2,2.2c-2.2-0.2-2.6,0.8-2.9,2.9
	c-0.8,8.1-2.5,15.9-6.3,23.2c-1,1.9-1.2,3.6-0.1,5.7c0.6,1.1,0.3,3.1-0.3,4.4c-4.2,9.7-8.6,19.3-12.9,28.9
	c-1.5,3.4-3.1,6.7-4.5,10.1c-0.7,1.6-1.7,2.6-3.4,2.9c-5.7,1.1-11.3,3.4-17.4,2c-3.1-0.7-6.2-1.2-9.2-2.2
	c-1.3-0.4-2.7-1.5-3.2-2.7c-5.2-11.1-10.1-22.4-15.2-33.6c-0.9-2.1-2-4.1-2.7-6.2c-0.4-1.3-0.3-3,0.2-4.2c0.7-1.7,0.7-3.1-0.1-4.7
	c-4-7.7-5.8-16-6.5-24.5c-0.1-1.5-0.6-2.2-2.1-2.1c-2.3,0.3-2.9-0.8-2.6-2.9c0.3-1.9,0.3-3.9,0.3-5.9c0-1.6,0.7-2.5,2.4-2.1
	c2.1,0.5,2.6-0.5,3-2.4c2.5-9.8,7.8-17.5,16.9-22.3C86,47.1,86.6,46.8,87.3,46.4z M127.2,126.5c0.5-4-1-7.3-4-9.7
	c-2.9-2.4-6.2-4.5-9.5-6.3c-3.4-1.9-7.1-1.7-10.7-0.2c-4.6,1.9-8.7,4.5-11.6,8.7c-1.1,1.5-1.9,3.5-2,5.4c-0.4,8,2,15.3,7.1,21.6
	c6.4,7.9,17,7.8,23.5,0C124.7,140.3,126.7,133.7,127.2,126.5z M140.9,89.9c0.1-5.9-2-10.2-6.2-12c-6.9-3-13.6-2.1-19.9,1.6
	c-2.2,1.3-3,3.6-2.4,6.1c0.4,1.5,1,3,1.9,4.3c4,5.5,9.2,9.4,15.8,11.5c3.3,1,5.8,0.1,7.9-2.7C140.1,95.9,141,92.8,140.9,89.9z
	 M89.7,75.7c-2.9,0.8-5.8,1.2-8.3,2.4c-8.2,4-7,17.4-1.8,21.8c1.6,1.4,3.3,2.3,5.3,1.8c8-2,14.2-6.5,18.3-13.7
	c2.3-4,1.1-7.7-3.2-9.5C96.7,77.2,93.2,76.7,89.7,75.7z"/>
<path fill="#DAD7CD" d="M84.1,158.4c-0.8,0.9-1.6,2.5-2.9,3.1c-5.2,2.5-10.5,4.8-15.8,7.2c-2.2,0.9-4.3,0.1-5.3-2.1
	c-4.5-10-9-20-13.4-30.1c-1.1-2.4-0.3-4.3,2.1-5.4c5.2-2.4,10.4-4.7,15.6-7c2.4-1.1,4.5-0.3,5.6,2.2c4.5,9.9,8.9,19.9,13.4,29.9
	C83.6,156.6,83.7,157.2,84.1,158.4z"/>
<path fill="#DAD7CD" d="M170.6,134.2c-0.5,1.5-0.8,2.6-1.3,3.5c-4,9.1-8.1,18.1-12.2,27.2c-2,4.4-3.3,5-7.7,3
	c-4.7-2.1-9.3-4.2-14-6.3c-2.7-1.2-3.4-3.2-2.2-5.9c4.3-9.7,8.7-19.4,13-29c1.4-3,3.3-3.8,6.4-2.4c5,2.2,10.1,4.4,15,6.8
	C168.9,131.6,169.7,133.2,170.6,134.2z"/>
<path fill="#DAD7CD" d="M94.9,126.8c-0.9-2.9-0.4-4.1,2.6-4.2c7.3-0.3,14.6-0.3,21.9-0.3c2.3,0,2.9,1.4,2.1,4.5
	C112.7,126.8,103.9,126.8,94.9,126.8z"/>
<path fill="#DAD7CD" d="M121.3,129.4c0.1,0.5,0.1,0.7,0.1,0.8c-0.9,3.8-0.1,3.5-4.2,3.3c-5.9-0.2-11.7-0.1-17.6,0.2
	c-3.8,0.2-4.1,0.1-4.3-4.1C103.9,128.2,112.5,128.1,121.3,129.4z"/>
<path fill="#DAD7CD" d="M119.4,135.9c-0.9,3.9-1.4,4.2-4.8,4.2c-4.2-0.1-8.4-0.1-12.7,0c-3.6,0.1-3.7,0-4.9-4
	C104.5,135.1,111.9,135,119.4,135.9z"/>
<path fill="#DAD7CD" d="M98.4,119.7c4.6-6.2,14.4-6.4,19.7,0C111.3,119.7,104.8,119.7,98.4,119.7z"/>
<path fill="#DAD7CD" d="M100.9,142.4c5.1,0,9.7,0,14.6,0C112.2,147.7,104.8,147.7,100.9,142.4z"/>
</svg>
