<?xml version="1.0" encoding="utf-8"?>
<svg version="1.1" xmlns="http://www.w3.org/2000/svg" x="0px" y="0px"
	 viewBox="0 0 214.6 214.6" xml:space="preserve">
<rect fill="#344E41" width="214.6" height="214.6"/>
<g>
	<path fill="#FFFFFF" d="M168.4,92.8c4.2,1.2,7.9,2.3,11.7,3.3c6.2,1.6,8.6,4.4,9.1,10.9c0.9,11.9-1.6,23.2-6,34.1
		c-2.1,5.3-4.8,10.4-7.5,15.4c-1.7,3.1-4.2,5.8-7.9,6.1c-2,0.2-4-0.5-6-1c-3.5-0.8-6.9-1.8-10.4-2.7c-0.5-0.1-1-0.2-1.5-0.1
		c-4.2,1-7.1-0.5-8.8-4.4c-0.5-1.1-0.8-2.3-1.2-3.7c-2.3,2.5-4.3,4.9-6.6,7.2c-2.2,2.2-4.6,4.3-7.2,6.1c-1.1,0.8-2.9,1-4.3,1
		c-5.1,0.1-10.2,0.3-15.3,0c-1.8-0.1-3.8-1-5.3-2.2c-4.6-3.7-9-7.6-13.4-11.4c-0.5,1.1-1,2.7-1.7,4.1c-1.8,3.2-4.6,4.3-8.1,3.3
		c-0.6-0.2-1.2-0.2-1.8,0c-4.5,1.2-9,2.6-13.6,3.8c-3,0.8-5.5-0.6-7.5-2.6c-1.7-1.7-3.1-3.7-4.2-5.7c-5.6-10.4-9.9-21.2-11.5-33
		c-0.8-5.7-1.6-11.5-0.3-17.3c0.8-3.8,3.1-6.3,6.8-7.4c4.6-1.4,9.2-2.7,13.4-3.9c-0.9-1.9-2.5-3.8-2.7-5.9
		c-0.5-4.1-0.5-8.3-0.2-12.4c0.2-4.5,3-7.5,6.6-9.8c5.2-3.2,10.9-4.9,16.8-5.8c8.8-1.3,17.6-2.1,26.4-3.2c1-0.1,2-0.4,2.9-0.8
		c3-1.4,6.1-1.4,9.1-0.2c0.8,0.3,1.8,0.5,2.7,0.6c14.1,0.4,28,2.2,41.3,7.3c2,0.8,3.9,1.8,5.6,3.1c3.1,2.2,5,5,4.6,9.1
		c-0.2,2.6,0.1,5.2,0.3,7.7C172.7,86.7,172.1,90.2,168.4,92.8z M133.6,130.9c0.8-0.3,1.8-0.7,2.7-1c3.2-1,5.4-2.8,5.4-6.4
		c0-1,0.4-2.1,0.7-3.1c2.4-9,5.5-17.7,11.4-25.1c0.3-0.4,0.2-1.4-0.1-1.8c-1.7-2-3.5-4-5.5-5.7c-2.7-2.3-5.9-4-8.4-6.4
		c-4.4-4.5-8.5-9.4-12.7-14.2c-2.5-2.9-4.9-6-7.7-8.6c-3.6-3.4-8.1-3.5-11.8-0.2c-2.5,2.2-4.4,5.1-6.5,7.8
		c-2.5,3.1-4.6,6.5-7.5,9.2c-3.9,3.6-8.4,6.5-12.5,9.8c-3,2.4-5.8,4.9-7.4,8.4c-0.3,0.6-0.3,1.6,0,2c6.8,8.5,10.1,18.5,12.2,29
		c0.6,3.3,2.2,4.8,5,5.7c0.8,0.2,1.7,0.5,2.6,0.8c0.3-0.9,0.6-1.6,0.9-2.4c2.4-6.6,5-13.2,9.3-18.9c1-1.3,2.5-2.6,4.1-3
		c2.6-0.7,5.3-1.1,8-0.9c4.2,0.3,7.6,2,9.4,6.4C127.7,118.3,130.7,124.4,133.6,130.9z M78.9,129.3c-1.6-8.8-3.9-17.1-7.9-24.9
		c-1.6-3.1-3.8-5.9-5.9-8.7c-0.7-0.8-2.3-1.6-3.3-1.4c-4.3,0.8-8.6,2-12.5,3c1.9,2.7,3.9,5,5.5,7.6c3.9,6.5,6.2,13.6,8.4,20.8
		c0.2,0.7,0.9,1.6,1.6,1.8C69.3,128.9,73.9,129.7,78.9,129.3z M148.6,129.3c5.3,0.2,10.1-0.4,14.7-2.2c0.6-0.2,1-1.1,1.3-1.7
		c1.3-3.7,2.4-7.4,3.8-11c2.5-6.1,5.1-12.2,10.4-16.8c-3.5-1-6.9-1.8-10.3-2.9c-3.4-1.1-5.7,0-7.8,2.8
		C153.9,106.9,151.1,117.8,148.6,129.3z M133.2,147.7c1.6-4.7,1.4-9-0.8-13.2c-0.5-1-0.8-2.2-1.2-3.4c-2.5-6.4-5.1-12.7-7.6-19
		c-1.3-3.4-4.1-4.8-7.4-4.9c-2.6-0.1-5.3,0.1-7.8,0.8c-1.4,0.4-3,1.6-3.7,2.9c-4.8,8.4-8.8,17.3-10.9,26.8
		c-0.3,1.3-0.5,2.7-0.2,3.9c0.7,3.2,1.7,6.3,2.6,9.4c-1.3-9.2,5.3-14.5,12.5-15.8c2.9-0.6,6-0.9,9-0.6c6.9,0.7,12.4,3.6,14.9,10.6
		C132.7,145.8,132.9,146.6,133.2,147.7z M167.5,78.5c3.2-2.5,3.8-6.1,0.9-8.8c-2.1-2-4.6-3.7-7.3-4.9c-11-4.6-22.7-6.3-34.6-6.9
		c-1.3-0.1-2.7,0-4.1,0c2.8,3.5,5.4,6.7,8,9.9c0.4,0.5,1.2,0.9,1.8,1c5.8,0.9,11.6,1.6,17.3,2.7
		C155.9,72.7,162,74.7,167.5,78.5z M60.9,78.6c1.1-0.7,2-1.6,3.1-2.1c4-1.7,7.9-3.6,12.1-4.6c6-1.4,12.1-2.1,18.2-3.2
		c1.2-0.2,2.7-0.4,3.3-1.2c2.5-3.2,4.7-6.7,6.9-10c-3.1,0.4-6.3,0.6-9.5,1.1c-7.6,1.3-15.2,2.5-22.8,4.2c-4.6,1-8.7,3.2-12,6.8
		C57.3,72.9,57.5,76.1,60.9,78.6z M148.5,130.6c-0.1,0.7-0.4,1.8-0.4,2.8c-0.2,6-0.6,11.9-0.5,17.9c0,1.5,1,3.9,2.2,4.4
		c3.9,1.8,8.2,3,12.6,4.6c-3.1-11.2-1.4-21.6,1.3-31.7C158.6,129.3,153.6,129.9,148.5,130.6z M65.2,160.3c3.9-1.3,7.4-2.5,11-3.5
		c2.8-0.8,4-2.9,3.9-5.5c-0.1-6.5-0.5-13.1-0.8-19.6c0-0.4-0.8-1-1.3-1.1c-4.6-0.5-9.2-1-13.8-1.4
		C66.7,139,68.5,149.3,65.2,160.3z M164.6,92.2c-1.9-0.8-3.8-0.4-5.7,0.7c-2.7,1.6-4.5,4.1-6.1,6.8c-8.5,14.5-11.8,30.2-11.3,46.9
		c0.1,2.9,0.5,5.8,2.2,8.3c1,1.5,2.3,2.7,4.6,2.8c-2.7-2.7-3.1-5.9-3.1-9.2c-0.2-11.5,1.5-22.7,5.1-33.6c2.3-7,5.1-13.7,10.1-19.2
		C161.5,94.3,163.2,93.3,164.6,92.2z M62.9,92.3c1.4,1,3,1.8,4,3c1.9,2.2,3.8,4.6,5.1,7.2c7.8,14.8,10.7,30.8,10.3,47.4
		c-0.1,2.8-0.7,5.5-2.7,7.8c1.1-0.4,2.2-0.8,3-1.5c2.1-1.9,3-4.5,3-7.1c0.1-5.9,0.2-11.9-0.4-17.7c-1.3-11.7-4.9-22.7-11.2-32.7
		c-1.6-2.5-3.4-4.8-6.3-6.1C66.2,91.8,64.5,91.5,62.9,92.3z M162.3,149.4c0.4,2.2,0.7,5.4,1.5,8.6c0.9,3.5,3.4,4.5,6.2,2.1
		c1.9-1.6,3.8-3.6,5-5.8c4.6-8.1,8.1-16.6,10.3-25.7c1.8-7.2,2.8-14.6,2-22.1c-0.4-3.2-1.6-5.8-4.4-7.5c-1.1-0.7-2.2-0.9-3,0.1
		c-1.9,2.2-3.9,4.3-5.4,6.7c-4.7,7.8-7.2,16.5-9.6,25.1C163.3,136.6,162.4,142.4,162.3,149.4z M39.9,112.8c0.6,4.2,1.1,9.1,2.1,13.8
		c2.1,10.2,6.1,19.7,11.3,28.7c1.2,2.1,3.2,3.9,5.2,5.3c2.4,1.7,4.4,0.7,5.2-2.1c0.6-2.2,1.1-4.5,1.3-6.8c0.7-7.5-0.5-14.8-2.6-22
		c-2.5-8.8-5.1-17.7-10.2-25.4c-1.2-1.9-2.8-3.5-4.4-5.1c-0.9-0.9-1.9-0.9-3.1-0.1c-2.1,1.4-3.5,3.1-3.9,5.6
		C40.4,107,40.2,109.5,39.9,112.8z M165.8,79.6c-10.3-5.7-21-7.7-32.2-8c1.5,2,2.9,3.9,4.7,5.5c2.4,2.2,5.1,3.9,7.4,6.1
		c2.3,2.1,4.6,2.3,7.5,1.4C157.4,83.3,161.6,82.1,165.8,79.6z M62.5,79.8c2.9,2.2,11.1,5.3,14.8,5.5c0.4,0,0.8-0.2,1.1-0.5
		c3.8-2.9,7.6-5.8,11.3-8.9c1.9-1.5,3.6-3.2,5.6-5.1C85.9,70.2,67,75.4,62.5,79.8z M114,160.4c5,0,9.1-1.1,12.7-3.5
		c2.2-1.4,3.8-3.2,4.5-5.8c1.2-4.4-0.8-9.1-5.2-12.2c-6.3-4.4-18.4-4-24.4,0.9c-4.9,4-5.4,10.8-1.1,15.4
		C104.1,159.1,108.8,160.4,114,160.4z M87.4,129.4c0.3,5.7,0.6,11.6,0.9,17.5c0,0.3,0.1,0.7,0.2,0.9c2.2,2.5,4.5,5,6.7,7.6
		c-0.5-3.3-1.4-6.3-2.4-9.4c-1-3.2-1.8-6.4-0.6-9.8c0.5-1.4,0.8-2.9,1.1-4.1C91.1,131,89.1,130.1,87.4,129.4z M134.3,153.4
		c2.3-2.8,6-4.8,5.1-9.3c-0.2-1.1,0-2.4,0.1-3.6c0.3-3.8,0.7-7.6,1-11.4c-2.3,0.9-4.6,1.8-6.9,2.8c0.6,1.5,1.1,3.1,1.7,4.6
		c1.1,2.5,1.3,4.9,0.7,7.6C135.4,147.1,134.9,150.2,134.3,153.4z M57.8,79.3c0.1,2.8,0,6,0.6,9.1c0.2,1,2,2.3,3.2,2.4
		c1.7,0.2,3.4-0.7,5.4-1.2c0.7-1.2,1.6-2.6,2.4-3.9C65.4,83.6,61.6,81.4,57.8,79.3z M170.2,79.5c-3.8,2-7.5,4-11.1,5.9
		c0.5,1.1,1,2.4,1.7,3.6c0.2,0.4,0.7,0.8,1.1,0.9c1.8,0.4,3.5,0.7,5.6,1.1C171.1,88.1,170.1,83.5,170.2,79.5z M96.7,152.8
		c0.5,1.3,0.9,2.8,1.6,4c1.9,3.1,4.5,5.7,8.4,6c4.6,0.3,9.3,0.3,13.9,0.2c1.7,0,3.6-0.4,5-1.2c1.9-1.1,3.4-2.8,4.9-4.4
		c0.6-0.6,0.8-1.6,1.2-2.4C123.4,164,103.3,165.5,96.7,152.8z M151.6,87.4c1.6,1.9,3.1,3.7,4.5,5.5c1.3-0.9,2.6-1.7,4-2.7
		c-0.7-1.6-1.5-3.2-2.2-4.7C155.7,86.2,153.7,86.8,151.6,87.4z M67.6,90.3c1.7,1.2,3.1,2.1,4.3,3c1.3-2.1,2.6-4.1,3.9-6.2
		c-1.8-0.4-3.7-1.5-5.1-0.9C69.3,86.6,68.6,88.8,67.6,90.3z"/>
	<path fill="#FFFFFF" d="M114.9,98.3c-2.6,0-4.7-1-5.6-3.4c-1.6-4.1-2.9-8.3-4.3-12.5c-0.6-1.8-1.1-3.7-1.7-5.6
		c-0.5-1.8-0.3-3.5,0.9-4.8c2.2-2.5,4.4-5,6.9-7.2c1.7-1.6,4.6-1.6,6.5,0.1c2.4,2.2,4.7,4.5,6.8,7.1c1.6,2,1.1,4.4,0.6,6.7
		c-1.2,5.1-2.5,10.1-3.8,15.2C120.4,97.1,118.5,98.3,114.9,98.3z M115.4,96.7c1.5-0.1,3.5-0.4,4-2.5c1.6-6.1,3-12.2,4.4-18.3
		c0.2-0.9,0-2.2-0.6-2.8c-1.9-2.3-3.9-4.5-6-6.5c-1.7-1.6-3.7-1.6-5.3-0.1c-2.2,2-4.2,4.3-6.1,6.6c-0.6,0.8-0.9,2.4-0.6,3.3
		c1.8,6,3.7,11.9,5.7,17.8C111.5,96,113,96.8,115.4,96.7z"/>
	<path fill="#FFFFFF" d="M126.5,102.1c0.1-0.8,0.3-2,0.6-3.1c1.2-4.9,2.5-9.7,3.8-14.6c0.2-0.7,0.4-1.4,0.7-2.1
		c1.5-3.4,3.4-3.9,6.2-1.5c2.4,2.1,4.8,4,7.1,6.2c2.7,2.5,2.6,4,0.1,6.7c-4.1,4.6-9,8.3-14.2,11.4
		C128.2,106.7,126.5,105.7,126.5,102.1z M128,102.3c0.2,0.3,0.3,1.1,0.7,1.3c0.5,0.2,1.4,0.2,1.8-0.2c4.7-3.9,9.4-7.9,14.1-11.9
		c0.8-0.7,0.8-1.6-0.2-2.4c-2.7-2.3-5.3-4.6-8-6.9c-1.6-1.4-2.3-1.2-3.2,0.7c-0.3,0.7-0.6,1.5-0.8,2.3c-1.2,4.2-2.3,8.5-3.5,12.7
		C128.6,99.3,128.3,100.7,128,102.3z"/>
	<path fill="#FFFFFF" d="M102,102.4c0,3.2-1.8,4.5-4.3,2.9c-5.7-3.6-10.9-7.9-15.4-12.9c-1.3-1.5-1-3.1,0.2-4.2
		c3.2-2.9,6.5-5.7,9.9-8.5c1.2-0.9,2.5-0.5,3.3,0.7c0.8,1.3,1.6,2.7,2,4.2c1.5,5.5,2.8,11,4.1,16.5C102,101.6,102,102.2,102,102.4z
		 M100.5,102.2c0-0.3-0.1-0.6-0.2-1c-1.5-5.7-3-11.4-4.5-17.1c-0.2-0.7-0.5-1.3-0.9-1.9c-0.5-0.9-1.3-1.2-2.2-0.4
		c-2.8,2.4-5.6,4.7-8.3,7.1c-1.3,1.1-1.1,2.2,0.1,3.3c1.1,1.1,2.2,2.3,3.4,3.3c3.4,2.7,6.9,5.5,10.4,8
		C99.6,104.5,100.4,103.8,100.5,102.2z"/>
	<path fill="#FFFFFF" d="M127.1,132.4c-9.2-2.8-18-2.7-27.1,0.8c1.4-3.8,2.7-7.2,4-10.6c1.1-2.9,2.2-5.8,3.4-8.6
		c0.3-0.8,1.3-1.7,2.1-1.8c2.8-0.3,5.6-0.3,8.4-0.2c1.5,0,2.4,0.9,3,2.5c1.7,5.2,3.8,10.4,5.7,15.6
		C126.7,130.8,126.8,131.5,127.1,132.4z M125.4,130.8c-2.1-5.7-4-11-6-16.2c-0.2-0.5-1-1.1-1.5-1.1c-2.6-0.1-5.2-0.1-7.9-0.1
		c-1.1,0-1.6,0.6-2,1.6c-1.6,4.5-3.3,9-4.9,13.4c-0.3,0.7-0.5,1.5-0.9,2.4C110,128.5,117.5,128.3,125.4,130.8z"/>
	<path fill="#FFFFFF" d="M186,112.4c-0.3,12.5-3.6,24.2-9.2,35.3c-1,2-2.1,4-3.3,5.9c-1.2,1.8-2.6,3.6-5.1,3.1
		c-2.6-0.5-3.3-2.7-3.8-4.9c-0.9-4-0.4-8,0.3-12c1.8-10.9,5.1-21.3,9.9-31.2c0.6-1.1,1.2-2.2,2-3.2c1.7-2.2,3.6-2.9,5.5-2.3
		c2.1,0.7,3.5,2.8,3.7,5.2C186.1,109.7,186,111.1,186,112.4z M165.8,147.6c0.2,1.2,0.4,3.4,1.1,5.4c0.8,2.4,2.7,2.6,4.3,0.7
		c0.7-0.9,1.3-1.9,1.9-2.8c6.8-11.7,10.6-24.3,11.3-37.8c0.1-2.1-0.3-4.3-1-6.3c-0.7-2.2-2.8-2.7-4.4-1c-1.1,1.1-2,2.4-2.7,3.8
		c-1.8,4.1-3.7,8.2-5.1,12.4C168.3,130,166.4,138.2,165.8,147.6z"/>
	<path fill="#FFFFFF" d="M63.6,147.1c-0.3,2-0.5,4-0.9,5.9c-0.4,1.9-1.6,3.5-3.7,3.9c-2,0.3-3.5-0.9-4.4-2.4
		c-2.2-3.9-4.5-7.9-6.3-12c-4.6-10.5-7.2-21.5-6.8-33c0-0.7,0.1-1.5,0.3-2.2c0.5-2,1.6-3.4,3.6-4c2.1-0.6,3.8,0.3,5,1.9
		c1.3,1.8,2.4,3.7,3.3,5.7c5,10.8,8.4,22.1,9.6,34c0.1,0.8,0.1,1.5,0.1,2.3C63.5,147,63.6,147.1,63.6,147.1z M61.9,146.7
		c-0.1,0-0.2,0-0.3,0c0-0.9,0.1-1.8,0-2.6c-1.6-12.4-5-24.2-10.8-35.4c-0.5-1-1.3-2-2.2-2.8c-1.7-1.5-3.7-1.2-4.4,0.9
		c-0.7,1.9-1.1,3.9-1,5.9c0.4,8.8,2,17.4,5.4,25.5c2.1,5.1,4.9,10.1,7.5,15c0.4,0.8,1.9,1.8,2.6,1.7c0.9-0.2,1.9-1.4,2.2-2.4
		C61.5,150.6,61.6,148.7,61.9,146.7z"/>
	<path fill="#FFFFFF" d="M114.8,159.1c-3.7-0.1-7.7-0.5-11.2-2.8c-6-3.7-6.1-10.6,0.1-14c7.8-4.3,15.7-3.9,23.3,0.7
		c5.1,3.2,5.2,8.6,0.4,12.4c-2.7,2.1-5.8,2.9-9.1,3.4C117.3,159,116.2,159,114.8,159.1z M113.7,158c5.2-0.2,8.7-0.7,11.8-2.6
		c5.5-3.3,5.5-8.5,0-11.6c-7.2-4-14.4-3.9-21.6,0c-4.4,2.4-4.9,7.4-1,10.6C106.5,157.3,110.8,158,113.7,158z"/>
	<path fill="#FFFFFF" d="M113.6,157.4c-3,0-6.4-1.1-9.4-3.1c-3.6-2.3-3.9-6.3-0.8-9.2c2.6-2.4,5.9-3.1,9.2-3.4
		c4.5-0.5,8.8,0.3,12.6,2.8c3.9,2.5,4.2,6.3,0.7,9.4C123.2,156.3,120.1,157.2,113.6,157.4z M114.5,156.2
		c4.1-0.2,8.2-0.5,11.3-3.9c2-2.2,1.9-4.5-0.4-6.4c-5.1-4.2-15.4-4.4-20.7-0.6c-3.2,2.3-3.1,6,0.3,8
		C108,155.1,111.1,156.4,114.5,156.2z"/>
</g>
</svg>
