<?xml version="1.0" encoding="utf-8"?>
<svg version="1.1" xmlns="http://www.w3.org/2000/svg" x="0px" y="0px"
	 viewBox="0 0 214.6 214.6" xml:space="preserve">
<rect fill="#344E41" width="214.6" height="214.6"/>
<path fill="#FFFFFF" d="M152.6,158.6c-7.1,0-13.9,0-20.7,0c-27.4,0-54.8,0.1-82.2,0.1c-12.7,0-23.8-8.1-28.6-20.6
	c-4.5-11.6-1.4-25.1,7.7-33.5c10.4-9.7,27.3-8.9,36.7,1.7c9.7,11,3.6,29.2-10.9,33.7c-1.7,0.5-4.2-0.1-5.7-1.1
	c-2.8-1.9-2-5.4,1-6.7c0.4-0.2,0.9-0.2,1.3-0.3c6.8-2,9.9-5.7,9.7-11.6c-0.1-5.9-4.6-11.2-10.6-12.7c-9.8-2.5-19.4,4-21.4,14.4
	c-2.8,14.1,7,26.9,21.3,27.9c4.3,0.3,8.6,0,12.8,0c1.7-5.5,3.1-11.1,5.2-16.3c8.4-20.9,23.5-35,44.3-43.1c2.9-1.1,5.2-1.3,7.7,1.3
	c1.9,1.9,4.6,3.1,6.9,4.5c0.2-0.3,0.5-0.5,0.7-0.8c-1-1.1-2-2.2-2.9-3.4c-3.7-4.3-6.6-9-7.3-14.7c-0.8-6.6,1.7-11.9,7.1-15.5
	c6.1-4.1,12.6-4,18.6-0.2c3.3,2.1,6,2.2,9.5,0.8c10.5-4.3,21.6-5.1,32.8-3.9c3.7,0.4,7.9,1.1,9.4,5.1c1.6,4.4-0.9,7.9-4,10.9
	c-13.4,13-24,27.8-30.8,45.3c-4.3,11.2-7.1,22.7-7.4,34.8C152.9,155.6,152.7,156.7,152.6,158.6z M167.2,66.3c-0.5,0-0.9,0-1.4-0.1
	c-0.8,1.2-2.3,2.5-2.3,3.7c0,1.1,1.7,2.2,2.6,3.2c1.1-1,2.9-1.9,3.1-3.1C169.5,69,168,67.5,167.2,66.3z"/>
</svg>
