<?xml version="1.0" encoding="utf-8"?>
<svg version="1.1" xmlns="http://www.w3.org/2000/svg" x="0px" y="0px"
	 viewBox="0 0 365 365" xml:space="preserve">
<rect fill="#588157" width="365" height="365"/>
<!-- BARATA -->
<g transform="translate(-780, -320)">
<path fill="#DAD7CD" d="M868.9,445.7c0.8,0.4,1,1.3,1.4,1.9c3.8,7.3,9.3,13,16.5,16.8c1.8,0.9,2.3,1.9,2.1,3.9
	c-0.7,7.2-1.7,14.4-4.5,21.2c-1.4,3.3-3.2,6.4-5.8,8.9c-5,4.6-11.8,4.7-16.9,0.3c-2.8-2.4-4.8-5.6-6.1-9.1
	c-3-7.5-4-15.3-4.6-23.3c-0.1-1.1,0.3-1.8,1.3-2.3c1.9-1.2,3.8-2.5,5.6-4c4-3.3,7.3-7.3,9.7-11.9C867.9,447.2,868.1,446.2,868.9,445.7z
	 M869.9,469.1L869.9,469.1c4.2,0,8.4,0,12.6,0c0.7,0,1.4,0,2-0.1c0.9-0.1,1.1-0.8,1.1-1.5s-0.3-1.2-1.1-1.3c-0.6,0-1.3,0-1.9,0
	c-8.3,0-16.6,0-25,0c-0.6,0-1.3,0-1.9,0.1c-0.9,0-1.2,0.6-1.2,1.4c0,0.9,0.4,1.4,1.2,1.4c0.6,0,1.3,0,1.9,0
	C861.8,469.1,865.8,469.1,869.9,469.1z M870,477.8L870,477.8c-4.2,0-8.4,0-12.6,0c-0.7,0-1.5,0.1-1.5,1.1c0,0.8,0.2,1.6,1.3,1.8
	c0.5,0.1,1.1,0.1,1.6,0.1c1.8,0,3.5,0,5.3,0c5.6,0,11,0,16.6,0c0.7,0,1.4,0,2.1,0c1.1-0.1,1.5-0.9,1.5-1.9s-0.8-1-1.6-1
	C878.4,477.8,874.2,477.8,870,477.8z M870.1,489.3L870.1,489.3c-0.6,0-1.3,0-1.9,0c-2.4,0-4.9,0-7.3,0c-0.5,0-1.1-0.1-1.4,0.5
	c-0.2,0.6,0.2,1,0.5,1.5c0.6,1,1.7,0.9,2.6,0.9c5,0,9.9,0,14.9,0c0.4,0,0.7,0,1.1,0c1.2-0.1,1.8-1,1.8-1.9c0-1.2-1.2-0.9-1.9-0.9
	C875.8,489.2,872.9,489.3,870.1,489.3z"/>
<path fill="#DAD7CD" d="M861.8,440.8c1.3,0,2.6,0,3.9,0c1.4,0,1.6,0.3,1.1,1.7c-1.3,3.3-2.9,6.3-5.1,9.2
	c-7.3,9.6-17.3,14.3-28.9,16.3c-3.8,0.6-7.6,0.9-11.5,0.2c-5.7-1.1-7-4.2-4-9c1.8-2.7,4.1-4.8,6.6-6.6c6.8-4.9,14.5-7.6,22.6-9.6
	C851.6,441.8,856.7,441.3,861.8,440.8z"/>
<path fill="#DAD7CD" d="M876,440.7c7,0.8,14,1.2,20.8,3.1c7.3,2.1,14,5.5,19.8,10.4c1.9,1.6,3.5,3.4,4.7,5.7c1.9,3.9,0.6,6.9-3.6,8
	c-1,0.3-2,0.5-3.1,0.4c-11.9-0.2-22.8-3.2-32.3-10.7c-4.9-3.9-8.4-9-10.6-14.7c-0.8-2-0.6-2.2,1.6-2.2
	C874,440.7,875,440.7,876,440.7z"/>
</g>
<!-- ESCARABAJO -->
<g transform="translate(-780, -320) scale(0.5 0.5) translate(800, 850)">
<path fill="#DAD7CD" d="M994.5,555.3c0-12.1,0-24,0-36.2c0-3.4,0.9-6.2,3-8.7c3.8-4.9,7.7-10.2,11.3-15.3c1.5-2.1,3.2-3.2,6-3
	c5.5,0.2,11.1,0,16.8,0.2c4.3,0,4.5,0.4,4.5,4.3c0,20.4,0.4,40.8-0.2,61.5c-0.6,15.7-8.7,27.4-22.6,35.1c-4,2.1-8.5,3.8-13.2,4.5
	c-4.7,0.6-5.3,0.2-5.3-4.7c0-7.9,0-16,0-23.8C994.5,564.5,994.5,560,994.5,555.3L994.5,555.3z"/>
<path fill="#DAD7CD" d="M992,555.5c0,11.9,0,23.8,0,35.7c0,0.9,0,1.5,0,2.3c-0.2,4-0.6,4.5-4.5,4c-6-0.6-11.5-2.6-16.4-5.7
	c-13-8.3-20.2-20-20.4-35.5c-0.2-19.8-0.2-39.8-0.2-59.6c0-4,0.4-4.3,4.5-4.5c6,0,11.7,0,17.7,0c1.9,0,3.4,0.6,4.7,2.3
	c4.5,6.2,8.9,12.1,13.4,18.1c1.5,1.9,1.5,4.3,1.5,6.4C992,531.3,992,543.4,992,555.5L992,555.5z"/>
<path fill="#DAD7CD" d="M993,489.8c-12.1,0-24,0-36.2,0c-1.3,0-2.3,0-3.6,0c-2.1,0-3-1.1-2.8-3.2c0.6-13.2,4.7-25.1,14.9-34.3
	c4-3.6,9.1-6,14.3-7.2c8.5-2.1,17.2-2.1,26-0.2c11.3,2.6,19.4,9.4,24.5,19.6c3.2,6.4,5.1,13.2,5.3,20.4c0.2,4.7,0,4.9-4.5,4.9
	c-10.2,0-20.4,0-30.6,0C997.9,489.8,995.6,489.8,993,489.8L993,489.8z"/>
<path fill="#DAD7CD" d="M984.5,434.5c0.2,3.2-2.6,6-6,6.2c-3,0.2-5.7-2.6-6-5.5c-0.2-3.2,2.6-6,6-6.2
	C981.8,428.9,984.3,431.3,984.5,434.5z"/>
<path fill="#DAD7CD" d="M1007.9,428.9c3.2,0,5.7,2.6,5.5,5.7c0,3.4-2.6,6-6.2,5.7c-3,0-5.7-2.8-5.7-5.7
	C1001.8,431.5,1004.7,428.9,1007.9,428.9z"/>
</g>
</svg>
